<?xml version="1.0" encoding="utf-8"?>
<COLLADA xmlns="http://www.collada.org/2005/11/COLLADASchema" version="1.4.1" xmlns:xsi="http://www.w3.org/2001/XMLSchema-instance">
  <asset>
    <contributor>
      <author>Blender User</author>
      <authoring_tool>Blender 3.4.1 commit date:2022-12-19, commit time:17:00, hash:55485cb379f7</authoring_tool>
    </contributor>
    <created>2022-12-20T19:00:02</created>
    <modified>2022-12-20T19:00:02</modified>
    <unit name="meter" meter="1"/>
    <up_axis>Z_UP</up_axis>
  </asset>
  <library_effects>
    <effect id="Material_001-effect">
      <profile_COMMON>
        <newparam sid="low_DefaultMaterial_BaseColor_png_002_png-surface">
          <surface type="2D">
            <init_from>low_DefaultMaterial_BaseColor_png_002_png</init_from>
          </surface>
        </newparam>
        <newparam sid="low_DefaultMaterial_BaseColor_png_002_png-sampler">
          <sampler2D>
            <source>low_DefaultMaterial_BaseColor_png_002_png-surface</source>
          </sampler2D>
        </newparam>
        <technique sid="common">
          <lambert>
            <emission>
              <color sid="emission">0.5 0.5 0.5 1</color>
            </emission>
            <diffuse>
              <texture texture="low_DefaultMaterial_BaseColor_png_002_png-sampler" texcoord="Mesh-mesh-map-0"/>
            </diffuse>
            <index_of_refraction>
              <float sid="ior">1.45</float>
            </index_of_refraction>
          </lambert>
        </technique>
      </profile_COMMON>
    </effect>
  </library_effects>
  <library_images>
    <image id="low_DefaultMaterial_BaseColor_png_002_png" name="low_DefaultMaterial_BaseColor_png_002_png">
      <init_from>low_DefaultMaterial_BaseColor.png.002.png</init_from>
    </image>
  </library_images>
  <library_materials>
    <material id="Material_001-material" name="Material.001">
      <instance_effect url="#Material_001-effect"/>
    </material>
  </library_materials>
  <library_geometries>
    <geometry id="Mesh-mesh" name="Mesh">
      <mesh>
        <source id="Mesh-mesh-positions">
          <float_array id="Mesh-mesh-positions-array" count="1062">18.26665 -122.1445 -2.46339e-5 18.26665 128.7502 -2.46339e-5 210.4641 -122.928 -2.46339e-5 187.8285 29.51765 -2.46339e-5 186.0816 128.7502 -2.46339e-5 196.6458 -45.98627 -2.46339e-5 167.8715 -45.98453 68.09822 169.6861 -45.98032 68.10144 174.6869 -45.98383 77.46746 148.5371 -45.98429 116.6016 131.0096 -45.98426 125.9703 138.3042 -45.97733 127.4926 84.77959 -45.9858 180.9838 75.68981 -45.98564 179.5961 69.43444 -45.98589 187.2175 10.62728 -45.98406 198.3119 3.508188 -45.98595 193.1738 3.502208 -45.98633 195.4371 -60.91973 -45.98407 167.0273 -118.7909 -45.98459 125.9698 -149.8562 -45.98537 68.09758 -160.1125 -45.98627 -2.46339e-5 3.73545 128.7502 181.8887 10.4328 128.7502 186.7181 3.697868 29.51792 183.7679 10.46491 29.51711 188.6456 -173.9308 -122.928 -2.46339e-5 -151.2952 29.51765 -2.46339e-5 -149.5484 128.7502 -2.46339e-5 -162.0362 -122.9301 72.25495 -142.084 29.51764 64.87369 -140.5446 128.7502 64.22 -128.5655 -122.9318 134.6128 -112.5533 29.51764 119.8835 -111.3181 128.7502 118.6631 -66.21031 -122.933 178.6683 -57.54351 29.51763 159.0277 -56.87503 128.7502 157.4287 3.203939 -122.9431 209.3113 3.692171 29.51788 186.0382 3.72981 128.7502 184.1603 89.9298 -122.9259 193.8789 81.49163 29.51787 172.18 80.84008 128.7502 170.4203 147.5965 -122.9334 136.2442 132.3551 29.51616 121.318 131.182 128.7502 120.0852 179.5246 -122.9619 72.28293 160.4729 29.51743 64.87351 159.0082 128.7502 64.22 165.4185 128.7502 73.03358 160.7075 128.7502 64.22 162.1896 29.5173 64.8734 166.9482 29.51662 73.77802 181.4621 -122.9572 72.27878 186.8074 -122.9322 82.35147 139.7868 -122.9591 134.6578 158.6339 -122.9332 124.5203 142.0944 29.51758 110.9781 125.4336 29.51749 119.8833 140.8188 128.7502 109.8495 124.3298 128.7502 118.6631 66.40386 128.7502 176.2851 72.28858 128.7502 169.1145 72.85102 29.5178 170.8605 66.90504 29.51779 178.1056 80.1464 -122.9395 192.4153 73.39617 -122.9254 200.5943 3.210422 -122.9425 207.0552 10.88103 -122.9235 212.5377 -62.51137 128.7502 155.3267 -58.02198 128.7502 155.612 -58.68617 29.51763 157.2089 -63.18009 29.51763 156.9256 -67.3384 -122.933 176.8422 -71.84735 -122.9329 176.5657 -112.465 128.7502 119.2342 -112.6308 128.7502 121.838 -66.55667 -45.9841 164.9249 -62.05295 -45.98407 165.2038 -120.1023 -45.98458 129.1456 -119.9156 -45.98459 126.5299 -129.6817 -122.9318 135.1687 -129.8763 -122.9318 137.789 -113.8657 29.51764 123.0586 -113.6933 29.51764 120.4512 -125.1787 128.7502 115.8983 -116.3583 128.7502 119.8616 -117.5794 29.51764 121.0786 -126.4146 29.51764 117.1174 -133.5408 -122.9318 135.7958 -142.4279 -122.9316 131.8439 -145.5846 128.7502 65.41846 -148.6347 128.7502 72.20436 -132.6531 -45.98467 123.2017 -123.7845 -45.98459 127.1572 -157.9459 -45.98529 76.08315 -154.8383 -45.98537 69.28227 -166.9954 -122.9301 73.43418 -170.1257 -122.9302 80.24141 -150.1741 29.51764 72.85822 -147.1065 29.51764 66.068 -149.6236 124.4763 -2.46339e-5 -140.6109 124.4763 64.24816 -145.6501 124.4763 65.44644 -148.701 124.4763 72.23252 -125.232 124.4763 115.9508 -116.4109 124.4763 119.914 -111.3713 124.4763 118.7157 -112.5179 124.4763 119.2867 -112.684 124.4763 121.8905 -62.54017 124.4763 155.3956 -58.05059 124.4763 155.6808 -56.90382 124.4763 157.4975 3.728189 124.4763 184.2412 3.733832 124.4763 181.9696 10.43418 124.4763 186.8012 66.42545 124.4763 176.3635 72.3128 124.4763 169.1897 80.86814 124.4763 170.4961 131.2325 124.4762 120.1383 124.3773 124.4763 118.7157 140.8738 124.4763 109.8981 165.4844 124.4762 73.06564 160.7713 124.4763 64.24814 159.0713 124.4763 64.24815 186.1569 124.4763 -2.46339e-5 -173.047 -118.0066 -2.46339e-5 -161.2571 -118.0085 71.98903 -166.2178 -118.0085 73.16861 -169.3466 -118.0086 79.97544 -141.8027 -118.0099 131.2911 -132.9167 -118.01 135.2433 -127.9403 -118.01 134.0599 -129.0571 -118.01 134.6161 -129.2511 -118.0101 137.2361 -71.50895 -118.0111 175.8211 -67.00033 -118.0111 176.0978 -65.87192 -118.0111 177.9237 3.223016 -118.0207 208.4239 3.229469 -118.0202 206.1674 10.8648 -118.0022 211.6277 73.14276 -118.0042 199.7387 79.86134 -118.0173 191.5953 89.60037 -118.0046 193.054 147.0022 -118.0111 135.6844 139.2254 -118.0356 134.1021 157.9881 -118.0113 124.0138 186.0321 -118.0103 82.03908 180.7088 -118.0335 72.01158 178.7792 -118.0382 72.01527 209.5803 -118.0066 -2.46339e-5 178.7792 -118.0382 -72.01531 180.7088 -118.0335 -72.01163 186.0321 -118.0103 -82.03913 157.9881 -118.0113 -124.0138 139.2254 -118.0356 -134.1021 147.0022 -118.0111 -135.6844 167.8715 -45.98453 -68.09826 169.6861 -45.98032 -68.10148 174.6869 -45.98383 -77.46751 148.5371 -45.98429 -116.6017 131.0096 -45.98426 -125.9704 138.3042 -45.97733 -127.4926 84.77959 -45.9858 -180.9838 75.68981 -45.98564 -179.5961 69.43444 -45.98589 -187.2176 10.62728 -45.98406 -198.312 3.508188 -45.98595 -193.1738 3.502208 -45.98633 -195.4372 -60.91973 -45.98407 -167.0273 -118.7909 -45.98459 -125.9699 -149.8562 -45.98537 -68.09763 89.60037 -118.0046 -193.0541 3.73545 128.7502 -181.8887 10.4328 128.7502 -186.7182 3.697868 29.51792 -183.7679 10.46491 29.51711 -188.6457 79.86134 -118.0173 -191.5954 73.14276 -118.0042 -199.7387 10.8648 -118.0022 -211.6278 -162.0362 -122.9301 -72.25501 -142.084 29.51764 -64.87374 -140.5446 128.7502 -64.22004 -128.5655 -122.9318 -134.6128 -112.5533 29.51764 -119.8835 -111.3181 128.7502 -118.6632 -66.21031 -122.933 -178.6683 -57.54351 29.51763 -159.0278 -56.87503 128.7502 -157.4287 3.203939 -122.9431 -209.3113 3.692171 29.51788 -186.0382 3.72981 128.7502 -184.1603 89.9298 -122.9259 -193.8789 81.49163 29.51787 -172.1801 80.84008 128.7502 -170.4204 147.5965 -122.9334 -136.2442 132.3551 29.51616 -121.318 131.182 128.7502 -120.0852 179.5246 -122.9619 -72.28298 160.4729 29.51743 -64.87355 159.0082 128.7502 -64.22004 165.4185 128.7502 -73.03363 160.7075 128.7502 -64.22004 162.1896 29.5173 -64.87345 166.9482 29.51662 -73.77806 181.4621 -122.9572 -72.27883 186.8074 -122.9322 -82.35152 139.7868 -122.9591 -134.6578 158.6339 -122.9332 -124.5203 142.0944 29.51758 -110.9782 125.4336 29.51749 -119.8833 140.8188 128.7502 -109.8496 124.3298 128.7502 -118.6632 66.40386 128.7502 -176.2851 72.28858 128.7502 -169.1146 72.85102 29.5178 -170.8605 66.90504 29.51779 -178.1057 80.1464 -122.9395 -192.4153 73.39617 -122.9254 -200.5943 3.210422 -122.9425 -207.0553 10.88103 -122.9235 -212.5377 -62.51137 128.7502 -155.3267 -58.02198 128.7502 -155.6121 -58.68617 29.51763 -157.209 -63.18009 29.51763 -156.9256 -67.3384 -122.933 -176.8422 -71.84735 -122.9329 -176.5657 -112.465 128.7502 -119.2343 -112.6308 128.7502 -121.838 -66.55667 -45.9841 -164.9249 -62.05295 -45.98407 -165.2039 -120.1023 -45.98458 -129.1456 -119.9156 -45.98459 -126.53 -129.6817 -122.9318 -135.1687 -129.8763 -122.9318 -137.789 -113.8657 29.51764 -123.0586 -113.6933 29.51764 -120.4513 -125.1787 128.7502 -115.8984 -116.3583 128.7502 -119.8616 -117.5794 29.51764 -121.0787 -126.4146 29.51764 -117.1174 -133.5408 -122.9318 -135.7958 -142.4279 -122.9316 -131.8439 -145.5846 128.7502 -65.41851 -148.6347 128.7502 -72.20441 -132.6531 -45.98467 -123.2017 -123.7845 -45.98459 -127.1573 -157.9459 -45.98529 -76.08319 -154.8383 -45.98537 -69.28231 -166.9954 -122.9301 -73.43423 -170.1257 -122.9302 -80.24146 -150.1741 29.51764 -72.85826 -147.1065 29.51764 -66.06804 3.229469 -118.0202 -206.1674 -140.6109 124.4763 -64.2482 -145.6501 124.4763 -65.44648 -148.701 124.4763 -72.23257 -125.232 124.4763 -115.9509 -116.4109 124.4763 -119.9141 -111.3713 124.4763 -118.7157 -112.5179 124.4763 -119.2867 -112.684 124.4763 -121.8906 -62.54017 124.4763 -155.3956 -58.05059 124.4763 -155.6808 -56.90382 124.4763 -157.4976 3.728189 124.4763 -184.2412 3.733832 124.4763 -181.9696 10.43418 124.4763 -186.8012 66.42545 124.4763 -176.3635 72.3128 124.4763 -169.1898 80.86814 124.4763 -170.4962 131.2325 124.4762 -120.1383 124.3773 124.4763 -118.7157 140.8738 124.4763 -109.8982 165.4844 124.4762 -73.06568 160.7713 124.4763 -64.24819 159.0713 124.4763 -64.24819 3.223016 -118.0207 -208.4239 -65.87192 -118.0111 -177.9237 -161.2571 -118.0085 -71.98908 -166.2178 -118.0085 -73.16866 -169.3466 -118.0086 -79.97548 -141.8027 -118.0099 -131.2912 -132.9167 -118.01 -135.2433 -127.9403 -118.01 -134.06 -129.0571 -118.01 -134.6161 -129.2511 -118.0101 -137.2362 -71.50895 -118.0111 -175.8211 -67.00033 -118.0111 -176.0978 -54.37908 128.7502 -152.1995 -107.0138 128.7502 -114.7216 -135.2694 128.7502 -62.08688 -143.9741 128.7502 -2.46339e-5 -135.2694 128.7502 62.08683 -107.0138 128.7502 114.7215 -54.37908 128.7502 152.1994 4.212673 128.7502 178.0431 78.76161 128.7502 164.7596 127.4314 128.7502 116.0964 154.3333 128.7502 62.08683 180.5074 128.7502 -2.46339e-5 154.3333 128.7502 -62.08688 127.4314 128.7502 -116.0964 78.76161 128.7502 -164.7596 4.212673 128.7502 -178.0431 -22.33228 128.7502 -85.0585 -51.74781 128.7502 -64.11352 -67.5388 128.7502 -34.698 -72.40354 128.7502 -2.46339e-5 -67.5388 128.7502 34.69795 -51.74781 128.7502 64.11347 -22.33228 128.7502 85.05845 10.41242 128.7502 99.50151 52.07498 128.7502 92.07783 79.27465 128.7502 64.88182 94.30911 128.7502 34.69795 108.9368 128.7502 -2.46339e-5 94.30911 128.7502 -34.698 79.27465 128.7502 -64.88186 52.07498 128.7502 -92.07788 10.41242 128.7502 -99.50155 -63.57083 -122.9083 -173.0858 -123.9778 -122.9072 -130.4068 -156.4026 -122.9055 -69.99739 -167.9256 -122.9035 -2.46339e-5 -156.4026 -122.9055 69.99735 -123.9778 -122.9072 130.4068 -63.57083 -122.9083 173.0858 3.674573 -122.9181 202.7714 87.69068 -122.9015 187.8211 143.5556 -122.9087 131.9872 174.4861 -122.9364 70.02445 204.4589 -122.9035 -2.46339e-5 174.4861 -122.9364 -70.0245 143.5556 -122.9087 -131.9873 87.69068 -122.9015 -187.8211 3.674573 -122.9181 -202.7714 -12.61987 -122.4328 -65.32483 12.75941 -122.4365 -76.52856 44.46817 -122.4302 -70.88614 65.55233 -122.4329 -49.81371 77.22588 -122.4434 -26.42816 88.53802 -122.431 -2.46339e-5 77.22588 -122.4434 26.42811 65.55233 -122.4329 49.81366 44.46817 -122.4302 70.8861 12.75941 -122.4365 76.52851 -12.61987 -122.4328 65.32479 -35.41822 -122.4323 49.21718 -47.65579 -122.4317 26.41788 -52.00472 -122.431 -2.46339e-5 -47.65579 -122.4317 -26.41793 -35.41822 -122.4323 -49.21723</float_array>
          <technique_common>
            <accessor source="#Mesh-mesh-positions-array" count="354" stride="3">
              <param name="X" type="float"/>
              <param name="Y" type="float"/>
              <param name="Z" type="float"/>
            </accessor>
          </technique_common>
        </source>
        <source id="Mesh-mesh-normals">
          <float_array id="Mesh-mesh-normals-array" count="1659">0.7960188 0.5761225 -0.185572 0.8309018 -0.521454 -0.1941338 0.4500517 -0.5919027 -0.6686589 0 -1 -6.5789e-7 0.4379096 -0.5046726 0.7440032 0.2626454 -0.5520033 0.7913973 0.264923 0.6773788 0.6862753 0.2850034 -0.6039231 0.7443454 0.4539201 0.5643953 0.6895032 0.3771788 -0.5454246 0.7484973 3.158e-5 1 -8.26623e-6 -0.4034421 -0.6111559 0.6809721 -0.4950842 0.6531283 0.572988 -0.6568259 0.611427 -0.4412901 -9.95114e-6 -1 -2.11951e-5 0 1 3.62329e-7 0.8308659 -0.521421 0.1943761 0.7960271 0.5760907 0.1856353 0.8356981 -0.5462675 -0.05657327 0.7945788 0.5555851 0.2448875 0.4043177 0.6083842 0.6829318 0.8331214 -0.5413975 0.1131266 0.4379097 -0.5046727 -0.7440032 0.4012574 0.6064524 -0.6864461 0.2649254 0.6773773 -0.686276 0 -1 2.2379e-6 -0.5268698 -0.5873689 -0.6143338 -0.6910378 -0.5914576 0.4155053 -0.3814555 0.6773719 -0.6290144 0 -1 -1.61508e-5 -9.44576e-6 -1 2.21723e-5 0 1 0 0.9977191 0.06750386 0 0.8336891 0.07782346 -0.5467231 0.9892398 0.1463032 0 0.5071427 0.02105891 -0.8616048 0.8252391 0.09573692 -0.5566102 0.9901592 0.1323857 0.04537403 0.5129802 0.03179532 -0.8578114 0.6633422 0.1622309 0.7305192 0.6642909 0.1376763 0.7346857 0.6694844 0.06495547 0.7399806 0.9871887 0.07955998 -0.1383068 0.9501113 0.02736473 -0.3107084 0.9510521 0.06403434 -0.3023236 0.3101509 0.07238817 0.9479275 0.3068997 0.1516388 0.9395841 0.3527868 0.1734015 0.9194964 0.3543769 0.1459335 0.9236452 0.5056251 0.1476932 0.8500176 -0.2171668 0.1510226 0.9643811 0.502561 0.1734201 0.8469699 -0.2207576 0.07189297 0.9726755 0.4503819 0.1318301 0.8830499 0.9999942 -0.002186954 0.002641737 0.5590391 0.05908322 0.8270335 -0.6509307 0.1335141 0.747304 0.5539831 0.1243268 0.8231922 -0.3158843 0.1391059 0.9385451 -0.8974871 0.06358325 0.4364337 -0.8909993 0.1361572 0.4331071 -0.6795696 0.06667774 0.7305747 -0.9908636 0.1316497 0.02928888 -0.6730331 0.1411992 0.7260091 -0.8350443 0.03779232 -0.5488832 -0.9894443 0.144914 0 -0.8289421 0.08395445 -0.5529979 0.7729195 0.0155394 0.634314 -0.2184626 0.01882874 0.9756637 0.442992 0.06213855 0.8943696 0.5105121 0.06999331 0.8570172 0.3563591 0.06853181 0.9318324 -0.5754181 0.1468734 0.8045634 -0.1509274 0.0165348 0.9884065 0.9999969 -3.31686e-4 0.002484023 0.9999903 -0.003353834 0.002858996 0.8818743 0.01007354 -0.4713771 0.6714606 0.01705944 0.7408439 0.9918178 0.03698819 -0.1221861 0.9972571 0.06060785 0.04248481 0.5012146 0.006380379 -0.8652996 0.5439309 -0.5935227 0.5931864 0 -0.006583392 -0.9999784 0.9580928 0.007743418 -0.2863534 0.9897155 0.009253084 -0.1427503 0.1988766 -0.08749222 -0.9761113 0.004077196 -0.9999915 -6.96478e-4 -0.3772401 -0.8801481 -0.2881479 -0.9848383 0.1734749 0 -0.7950944 -0.6064859 3.56808e-5 -0.8259282 0.009296834 -0.5636988 -0.9977653 0.0668174 0 0.003576636 -0.9999917 -0.001945316 -0.9870513 0.1577789 0.02890551 -0.681667 0.01746034 0.7314543 -0.9977619 0.06021857 0.02906703 0.002320766 -0.9999919 -0.00331676 -0.3150307 0.1630955 0.9349628 -0.8877939 0.1611706 0.4310989 -0.3189607 0.06626743 0.9454484 -0.8963999 0.01658195 0.4429361 0 1 3.20015e-7 0.001491189 -0.999992 -0.003708183 0.5475644 0.1463623 0.8238636 -0.5268821 -0.5873716 0.6143208 0.4378932 -0.5046262 0.7440444 0.5450927 0.01561796 0.8382304 -0.6547474 0.06313318 0.7532066 -4.86461e-4 -0.9999925 -0.003850579 0 1 3.281e-6 -0.003035068 -0.9999912 -0.002908587 0.6973925 0.163635 0.6977587 0.3113815 0.01887941 0.9500975 0 1 -9.39988e-7 -0.004307091 -0.9999893 -0.001700937 0.9986745 0.01573604 0.04900872 0 1 1.90425e-7 -0.004077196 -0.9999893 -0.002213239 0.9070187 0.1628876 0.3883104 0.9998459 0.01756083 0 0.8427897 0.03479725 -0.5371171 0 1 1.36401e-6 -0.8237297 0.01180857 -0.5668598 -0.9331915 0.1282653 0.3357107 -0.8255119 0.03109538 -0.5635274 -0.5079565 0.1370691 0.8504072 -0.5084862 0.06440049 0.8586585 -0.4453754 -0.0438838 -0.8942679 -0.5071908 0.1628684 0.8463046 -0.8330274 0.003509759 -0.5532207 -0.9348177 0.05924159 0.350152 -0.5102707 0.01726531 0.8598406 -0.9903413 0.1175366 -0.07354736 -0.2407681 0.6594929 0.7121094 -0.626471 0.01706236 -0.7792581 -0.6280977 0.0436052 -0.7769119 -0.08710026 0.05031859 0.994928 -0.08733069 0.1046209 0.9906704 -0.231308 -0.01594305 -0.97275 -0.9319545 0.1551477 0.3277046 -0.09027951 0.1224406 0.9883613 -0.6372127 0.004730284 -0.7706735 -0.9400636 0.01583862 0.340631 -0.07022327 0.6462658 0.7598746 -0.09425216 0.01337426 0.9954586 -0.9019373 0.1203647 -0.4147548 -0.999264 0.01568454 0.03500926 -0.5192713 0.6478163 0.557397 -0.3701522 0.8948541 -0.2494467 -0.9998457 0.01757007 0 -0.2313398 -0.002824604 -0.9728689 -0.912004 0.01145023 -0.4100215 -0.4457748 -0.005478203 -0.8951284 -0.9979038 0.01164132 -0.06366026 -0.3204345 0.01741838 0.9471106 -0.7065531 0.6163587 0.3476848 -0.6529442 0.0165826 0.7572246 0.4539368 0.5643453 0.6895332 0.9999969 -3.3231e-4 0.002484083 -0.5848183 0.01558017 0.8110148 0.1832249 0.01916986 0.9828842 0.5089547 0.01834332 0.8605979 0.357551 0.01845514 0.9337113 0.7069558 0.01718521 0.707049 0.2031797 -0.009762763 -0.9790928 0.5028162 0.6626312 0.5550638 0.7887771 0.6135631 0.03702849 0.5140827 0.001950383 -0.8577384 0.833141 0.008636951 -0.5529931 0.9213409 0.01623266 0.3884168 -0.8246882 0.100439 -0.5565981 -0.2313032 -0.01594364 -0.9727511 -0.6316001 0.05816769 -0.7731092 -0.8285614 -0.5587241 0.03624296 -0.6707185 0.1663738 0.7228115 -0.09231412 -0.5939815 0.7991647 -0.06121343 -0.9979575 0.01827085 -0.4453914 -0.04386895 -0.8942607 -0.8285358 0.04246073 -0.5583239 -0.2598401 -0.5905049 0.7640597 -0.3814791 0.6773514 0.6290222 -0.6490117 0.157257 0.7443482 0.9999904 -0.00336039 0.002858996 0.4595952 0.1556285 0.8743867 -0.2121943 0.1770064 0.9610632 0.4119001 -0.5707311 0.7103552 -0.1465511 0.1542909 0.9770963 0.9518232 0.08120363 -0.2957003 0.3074397 0.1772855 0.9349068 0.9833363 0.09452599 -0.1552884 0.986239 0.1583702 0.04745084 0.8778867 0.1090049 -0.4662972 -0.001769781 -0.05455005 -0.9985095 0.9842528 0.1767671 0 0.8336923 0.0778228 0.5467185 0.8427916 0.03479737 0.537114 0.8252366 0.09573829 0.5566138 0.5071482 0.02105873 0.8616016 0.5129778 0.03179568 0.8578128 0.9901593 0.1323855 -0.04537385 0.6633422 0.1622306 -0.7305193 0.986239 0.1583704 -0.04745179 0.6694828 0.06495577 -0.7399821 0.9871878 0.0795589 0.1383138 0.9918182 0.03698819 0.1221834 0.950111 0.02736407 0.3107095 0.9510502 0.06403386 0.3023295 0.3101468 0.07238799 -0.9479289 0.3069003 0.1516386 -0.939584 0.3528233 0.1734203 -0.9194788 0.3074943 0.1772857 -0.9348888 0.5056279 0.147693 -0.8500161 0.3543803 0.1459338 -0.9236438 0.502561 0.1734187 -0.8469702 -0.2171719 0.1510224 -0.9643799 -0.2207624 0.07189345 -0.9726744 0.4504149 0.1318303 -0.883033 0.443026 0.06213605 -0.8943529 0.9999942 -0.002186954 -0.002641558 0.5590395 0.05908298 -0.8270334 -0.6509237 0.1335138 -0.7473102 -0.6547436 0.06313306 -0.7532099 -0.8974878 0.06358343 -0.436432 -0.315896 0.1391057 -0.9385411 -0.8909997 0.1361573 -0.4331059 -0.6795731 0.06667733 -0.7305715 -0.9908636 0.1316497 -0.02928906 -0.997762 0.06021839 -0.02906739 -0.8350437 0.03779238 0.5488843 0.7729142 0.0155397 -0.6343203 -0.2184628 0.01882439 -0.9756637 0.4544775 0.007115781 -0.8907299 0.5105143 0.06999373 -0.8570159 0.3563567 0.06853193 -0.9318333 -0.5755882 0.1473214 -0.8043599 -0.1509273 0.01653534 -0.9884066 0.9999968 -3.31812e-4 -0.002509355 0.9999903 -0.003357589 -0.002872765 0.8818747 0.01007103 0.4713763 0.6714589 0.01705908 -0.7408455 0.9897162 0.009263515 0.1427444 0.9972571 0.06060796 -0.04248434 0.5012178 0.006380677 0.8652977 0.9833363 0.09452676 0.1552881 0 -0.006587028 0.9999784 0.9580925 0.007751584 0.286354 0.1985856 -0.08704471 0.9762105 0.004077196 -0.9999915 6.96478e-4 -0.3772378 -0.8801491 0.2881478 -0.8259282 0.009296834 0.5636988 0 1 -3.52709e-7 0.003576636 -0.9999917 0.001945316 -0.6730359 0.1411991 -0.7260066 -0.9870493 0.157782 -0.02895915 -0.6816663 0.0174601 -0.7314549 -0.999264 0.01568454 -0.03500854 0 1 3.61227e-7 0.002320766 -0.9999919 0.003316521 -0.3150304 0.1630955 -0.9349629 -0.8963751 0.01656389 -0.4429868 -0.3189702 0.06626737 -0.9454452 0.001491189 -0.9999921 0.003708362 0.5475645 0.1463599 -0.8238641 -0.6490118 0.1572569 -0.7443481 0.5450938 0.01561629 -0.8382297 -0.6529516 0.01659053 -0.7572179 0 1 4.93689e-7 -4.86462e-4 -0.9999925 0.00385046 0 1 -4.19968e-6 -0.003035068 -0.9999912 0.002908587 0.6973931 0.1636257 -0.6977605 0.3113817 0.01887887 -0.9500974 -0.004307091 -0.9999893 0.001701533 0.6642913 0.1376757 -0.7346853 0.998674 0.01576155 -0.04900789 -0.004077196 -0.9999893 0.002213716 0.9077808 0.1585388 -0.3883293 0.8331408 0.00865972 0.5529933 -0.9331915 0.1282652 -0.3357107 -0.8237528 0.01181077 0.5668263 -0.825511 0.0310952 0.5635288 -0.507959 0.1370679 -0.8504059 -0.5084912 0.06440067 -0.8586556 -0.4453744 -0.04388368 0.8942684 -0.5071909 0.1628684 -0.8463046 -0.9348012 0.05923849 -0.3501964 -0.8330287 0.00344479 0.5532191 -0.4950433 0.6531306 -0.5730206 -0.5102798 0.0172646 -0.8598351 -0.4034317 -0.6111385 -0.6809939 -0.9903682 0.1174504 0.07332414 -0.2408025 0.6595055 -0.7120862 -0.8289421 0.08395445 0.552998 -0.6264702 0.01706224 0.7792586 -0.6280976 0.04360526 0.7769119 -0.08709603 0.05031847 -0.9949284 -0.2313029 -0.01594364 0.9727512 -0.9319525 0.1552323 -0.3276697 -0.0873351 0.1046211 -0.9906701 -0.6372129 0.004666566 0.7706738 -0.9400584 0.01588511 -0.3406434 -0.07021409 0.6463137 -0.7598346 -0.05475801 0.998297 -0.02012169 -0.9020284 0.1201413 0.4146214 -0.09028267 0.1224375 -0.9883613 -0.09423965 0.01338362 -0.9954596 -0.5193111 0.647819 -0.5573568 -0.3701521 0.8948542 0.2494465 -0.7299045 0.6835491 -3.19388e-5 -0.2313449 -0.002821028 0.9728677 -0.9120423 0.01129424 0.4099407 -0.7795729 0.625772 -0.02599078 -0.4457241 -0.005447983 0.8951539 -0.9979121 0.01156973 0.06354308 -0.7065491 0.6163695 -0.3476739 -0.3204356 0.01741898 -0.9471101 0.4539383 0.5643458 -0.6895316 0.9999969 -3.32408e-4 -0.002484083 -0.5848258 0.0155704 -0.8110095 0.1832261 0.01914513 -0.9828844 0.5089516 0.01834332 -0.8605998 0.3580005 0.01842123 -0.9335396 0.7069563 0.01718389 -0.7070485 0.2031792 -0.009762525 0.9790929 0.5028097 0.6626183 -0.5550851 0.7887796 0.6135597 -0.03703051 0.5140823 0.002013921 0.8577386 0.9213441 0.01616239 -0.3884121 -0.2313095 -0.01594316 0.9727495 -0.6316087 0.05810713 0.7731069 -0.8285606 -0.5587252 -0.03624278 -0.6707159 0.1663671 -0.7228155 -0.5574966 -0.5772518 -0.5966389 -0.0923109 -0.5939856 -0.799162 -0.06121146 -0.9979577 -0.01826786 -0.4453361 -0.04387539 0.8942879 -0.8285104 0.04245483 0.5583621 -0.2598469 -0.590455 -0.7640959 -0.8877921 0.1611766 -0.4311001 0.5539827 0.1243254 -0.8231927 0.9999903 -0.003360331 -0.002858936 0.459586 0.1556727 -0.8743837 0.4119008 -0.570731 -0.7103547 -0.2121978 0.1770074 -0.9610623 -0.1463978 0.1539711 -0.9771697 0.9518231 0.08120399 0.2957006 0.543911 -0.5935457 -0.5931816 0.877887 0.1090074 0.466296 -0.00176382 -0.05455237 0.9985094 0 1 -2.25073e-7 0 1 2.25073e-7 0 1 -2.05069e-7 0 1 -4.01767e-7 0 1 -3.029e-7 0 1 2.19769e-7 0 1 -4.39537e-7 0 1 2.01933e-7 0 1 3.3833e-7 0 1 1.28168e-7 0 1 2.91304e-7 0 1 -3.584e-7 0 1 2.85216e-7 0 1 -2.85216e-7 0 1 2.38933e-7 0 1 -1.44822e-7 0.00233072 -0.9999918 0.00332719 0.00358504 -0.9999917 0.001952946 0.004081904 -0.9999914 6.99862e-4 0.004081904 -0.9999914 -6.99572e-4 0.00358504 -0.9999917 -0.001952648 0.00233072 -0.9999918 -0.003327727 0.001496016 -0.999992 -0.0037238 -4.87066e-4 -0.9999925 -0.003849089 -0.003041446 -0.9999911 -0.002916336 -0.004300117 -0.9999893 -0.001700997 -0.004070401 -0.9999893 -0.002211987 -0.004070401 -0.9999893 0.002211987 -0.004300117 -0.9999893 0.001700997 -0.001857817 -0.9999928 0.003315806 -0.003732621 -0.9999905 0.002258598 -4.87066e-4 -0.9999926 0.003849565 0.001496016 -0.999992 0.003723263 0.00149089 -0.999992 0.003707408 -4.86456e-4 -0.9999925 0.003850579 -0.003035306 -0.9999912 0.002909123 -0.004306375 -0.9999893 0.001700878 -0.00407648 -0.9999893 0.002213716 -0.00407648 -0.9999893 -0.002213478 -0.004306375 -0.9999893 -0.001700699 -0.003035306 -0.9999912 -0.002909004 -4.86453e-4 -0.9999926 -0.003850698 0.00149089 -0.9999921 -0.003707408 0.002320289 -0.9999918 -0.003315508 0.003576874 -0.9999917 -0.001947462 0.004075884 -0.9999915 -6.96448e-4 0.004075884 -0.9999915 6.96369e-4 0.003576874 -0.9999918 0.001947283 0.002320289 -0.9999919 0.003315389 0.002090275 -0.999997 0.001373171 0.2695332 -0.9399712 -0.209299 0 1 -4.07538e-6 0 1 8.09266e-7 0.4012686 0.6064146 0.6864728 -0.1691612 -0.5591466 0.8116278 0.3898486 0.6443967 0.6578534 0.243035 0.6252872 0.7415862 -2.41561e-5 -1 1.22995e-5 0 -1 0 -1.50623e-5 -1 -7.63531e-6 0 1 1.61569e-6 -7.77682e-6 -1 -2.42723e-5 -9.44578e-6 -1 -2.19811e-5 -3.88991e-6 -1 -1.21798e-5 0.002428174 -0.9999964 -0.001193284 0.2694582 -0.9399648 0.2094244 0 1 -3.21466e-6 -0.1691624 -0.5591521 -0.8116238 0.2626459 -0.552002 -0.7913982 0.285044 -0.6039622 -0.7442981 0.389898 0.6443963 -0.6578245 0.3771913 -0.5454332 -0.7484848 -0.1695493 0.6354091 -0.7533315 0.4539175 0.5643882 -0.6895107 -8.04323e-6 -1 1.05561e-5 -1.81627e-5 -1 0 -7.77682e-6 -1 2.42723e-5 -9.9511e-6 -1 2.15114e-5 -3.88994e-6 -1 1.42099e-5 0 1 -3.62329e-7 0.9999945 -0.00219959 0.002509295 0.7729178 0.01554191 0.6343159 0.4545228 0.01660317 0.8905804 -0.5755826 0.1473051 0.8043667 -0.1509279 0.01654022 0.9884065 0.9999968 -3.31812e-4 0.002509355 0.9999903 -0.003357648 0.002872586 0.8818749 0.01004922 -0.4713765 0 -0.00658518 -0.9999784 0.1985856 -0.08704471 -0.9762105 0 1 3.52709e-7 0 1 -3.61227e-7 0 1 -2.64805e-6 0 1 -4.93682e-7 0 1 4.34406e-6 0.6973983 0.1635575 0.6977712 0 1 -1.57574e-6 0.9077809 0.1585378 0.3883293 -0.4453811 -0.0438832 -0.8942651 -0.9903677 0.1174512 -0.0733276 -0.2313034 -0.01594454 -0.9727511 -0.05475026 0.9982969 0.0201447 -0.902028 0.1201477 -0.4146204 -0.2313371 -0.002822399 -0.9728695 -0.9120423 0.0112881 -0.4099407 -0.7795729 0.6257721 0.02599114 -0.4457419 -0.005470752 -0.8951448 -0.9979122 0.01157253 -0.06354069 0.999997 -3.31426e-4 0.002482712 -0.5848167 0.01557028 0.8110161 0.1832112 0.01895511 0.9828909 0.7069541 0.01713347 0.7070519 0.2032027 -0.009793639 -0.9790878 0.8331278 -0.5413913 -0.1131085 0.9213441 0.01616394 0.3884121 -0.2313095 -0.01594316 -0.9727495 -0.5575026 -0.5772374 0.5966472 -0.4453362 -0.04387408 -0.894288 -0.7470129 -0.5477703 0.376722 0.9999908 -0.003392577 0.002641499 -0.1463999 0.1539856 0.9771671 0.8357205 -0.5462373 0.05653482 0.8779806 0.1087087 -0.4661894 -0.002009987 -0.05449336 -0.9985122 0.9999945 -0.00219953 -0.002509295 0.7729135 0.01554161 -0.6343212 -0.5754125 0.1468596 -0.80457 -0.1509314 0.01654005 -0.988406 0.9999969 -3.31686e-4 -0.002484023 0.9999903 -0.003353714 -0.002858936 0.8818743 0.01005297 0.4713776 0 -0.006586849 0.9999784 0.1988766 -0.08749222 0.9761113 -0.8246884 0.1004373 0.5565979 0 1 2.15157e-6 0.437893 -0.5046263 -0.7440444 0 1 -2.98649e-6 0.6973987 0.1635552 -0.6977713 0 1 -1.13433e-6 0 1 1.57574e-6 0.9070187 0.1628876 -0.3883104 0 1 -1.36401e-6 -0.4453006 -0.0438776 0.8943054 -0.9903408 0.1175413 0.07354736 -0.231308 -0.01594668 0.9727499 -0.9019376 0.1203645 0.4147542 -0.2313372 -0.002823233 0.9728696 -0.9120041 0.01144641 0.4100216 -0.4457749 -0.005458712 0.8951285 -0.997904 0.0116409 0.06365817 0.999997 -3.31364e-4 -0.002482712 -0.5848208 0.01555985 -0.8110134 0.1832128 0.01895523 -0.9828906 0.7069553 0.01713275 -0.7070507 0.203185 -0.009768784 0.9790917 0.9213408 0.01623266 -0.3884168 -0.2313032 -0.01594364 0.9727511 -0.4453215 -0.04387992 0.8942949 -0.7470153 -0.5477475 -0.3767506 0.9999908 -0.003392636 -0.002641379 -0.1465516 0.1542706 -0.9770994 0.8779808 0.1087056 0.4661895 -0.002005219 -0.05449515 0.998512 0 1 3.02051e-7 0 1 0 0 1 -1.84521e-7 0 1 3.02695e-7 0 1 1.80665e-7 0 1 4.39193e-7 0 1 -3.93244e-7 0 1 3.93244e-7 0 1 -4.39193e-7 0 1 -4.54044e-7 0.002322494 -0.9999919 0.003314197 0.003576576 -0.9999918 0.001948297 0.004086256 -0.9999914 7.02468e-4 0.004086315 -0.9999914 -7.02191e-4 0.003576576 -0.9999917 -0.001949191 0.002322494 -0.9999918 -0.003314971 0.001494705 -0.999992 -0.003715336 -4.8814e-4 -0.9999925 -0.00385499 -0.003034412 -0.9999912 -0.002904295 -0.004312932 -0.9999893 -0.001705765 -0.004081904 -0.9999893 -0.002215921 -0.004081904 -0.9999893 0.002215683 0.2626371 -0.5520512 -0.7913667 -4.88141e-4 -0.9999925 0.003854453 0.001494705 -0.9999921 0.00371468 0.00149089 -0.9999921 0.003707408 -4.87476e-4 -0.9999926 0.003849804 -0.003035604 -0.9999912 0.00290817 -0.004306077 -0.9999893 0.001702487 -0.004075884 -0.9999893 0.002214312 -0.004075884 -0.9999893 -0.002214372 -0.004306077 -0.9999893 -0.001702547 -0.003035604 -0.9999912 -0.00290817 -4.87474e-4 -0.9999926 -0.003849744 0.00149089 -0.9999921 -0.003707289 0.002323627 -0.9999919 -0.003314435 0.003576576 -0.9999917 -0.001947641 0.00407648 -0.9999915 -6.99576e-4 0.00407648 -0.9999915 6.99485e-4 0.003576576 -0.9999917 0.001947581 0.002323627 -0.9999919 0.003314435</float_array>
          <technique_common>
            <accessor source="#Mesh-mesh-normals-array" count="553" stride="3">
              <param name="X" type="float"/>
              <param name="Y" type="float"/>
              <param name="Z" type="float"/>
            </accessor>
          </technique_common>
        </source>
        <source id="Mesh-mesh-map">
          <float_array id="Mesh-mesh-map-array" count="4224">0.5143496 0.9086924 0.5140104 0.9100167 0.5032939 0.9168109 0.2754845 0.9821768 0.3519299 0.9679629 0.3590212 0.9740589 0.5426443 0.9109891 0.527877 0.9061383 0.5296284 0.9061431 0.4510012 0.9294857 0.5025452 0.8511272 0.5053852 0.8500558 0.5571706 0.9327089 0.5507905 0.9213189 0.5511629 0.921392 0.5071154 0.7605338 0.5051818 0.7626557 0.4911087 0.6736363 0.06456637 0.5464213 0.06480145 0.5256691 0.06807816 0.5283419 0.48976 0.6746906 0.4409202 0.6081148 0.4944016 0.6563838 0.4907299 0.950878 0.4897536 0.9518629 0.4892538 0.939557 0.06228423 0.8297587 0.1126673 0.8975139 0.05308443 0.8280815 0.04073393 0.4878379 0.04083514 0.4871836 0.01844078 0.479538 0.1817834 0.6919394 0.1580992 0.753563 0.1627233 0.7478977 0.5202609 0.9749037 0.53382 0.9736244 0.5205237 0.975169 0.1254653 0.5814727 0.1258985 0.5786348 0.2004724 0.5347123 0.01323997 0.5935412 0.04080969 0.5932491 0.01178473 0.5985211 0.1926984 0.8168385 0.1655688 0.7848516 0.1706108 0.7770087 0.8517476 0.7223812 0.7709615 0.8029626 0.8516865 0.8069141 0.8857927 0.1926311 0.8826748 0.1394628 0.8871182 0.1927167 0.791841 0.267351 0.7949239 0.235328 0.7965407 0.2676762 0.3494594 0.249301 0.3944905 0.3174187 0.3503643 0.3176872 0.3522294 0.38925 0.3318277 0.3190181 0.3503643 0.3176872 0.9388289 0.2629534 0.9424424 0.207696 0.9442735 0.2632779 0.1313638 0.04600584 0.2055804 0.1196278 0.129507 0.121669 0.8171045 0.1122394 0.8201085 0.144479 0.8160334 0.1446758 0.8025525 0.2673518 0.805772 0.2351611 0.8069204 0.2675938 0.2656896 0.3200005 0.3212026 0.2500517 0.3217018 0.3185777 0.957324 0.2075029 0.9636737 0.2627359 0.9572653 0.2632164 0.8964672 0.4565306 0.8959375 0.4010255 0.8981177 0.456671 0.6422598 0.7103269 0.7113254 0.7889373 0.6385065 0.7889296 0.434791 0.4007309 0.4927554 0.3288843 0.4951857 0.3998048 0.7749745 0.47173 0.8239005 0.4389993 0.8238226 0.4733899 0.4542975 0.1973919 0.5312346 0.129135 0.531225 0.1992013 0.8011453 0.345104 0.8053408 0.343437 0.8052548 0.3453318 0.9529201 0.1381247 0.9634124 0.2070448 0.957324 0.2075029 0.8030988 0.3011097 0.8069204 0.2675938 0.8072511 0.3013399 0.9554331 0.3167905 0.9621907 0.3199526 0.9553081 0.3204515 0.8175126 0.2205284 0.821422 0.2222388 0.8175883 0.2224239 0.9005039 0.3316608 0.8942818 0.400885 0.8988473 0.33152 0.8160334 0.1446758 0.8197031 0.1782358 0.8158294 0.1784228 0.9031275 0.5100139 0.9018243 0.5135189 0.9014819 0.5098738 0.7901746 0.3450271 0.7947042 0.3434382 0.7945982 0.3453318 0.355367 0.4783285 0.3345072 0.3901863 0.3522294 0.38925 0.7925896 0.3010575 0.7965407 0.2676762 0.7970587 0.3013655 0.3494594 0.249301 0.3294984 0.246209 0.3493933 0.2446442 0.8852173 0.3176586 0.8838143 0.3206986 0.8839762 0.3175753 0.9456576 0.138258 0.9372781 0.207383 0.9405426 0.1379489 0.8871182 0.1927167 0.887578 0.2481876 0.8857927 0.1926311 0.9485197 0.3165555 0.9429861 0.319865 0.94272 0.3162249 0.05243498 0.9853068 0.04577785 0.9747736 0.07355731 0.960408 0.6103875 0.2017599 0.6057154 0.1274908 0.6107936 0.1273788 0.3584043 0.198427 0.4536718 0.1308472 0.4542975 0.1973919 0.4353121 0.6132491 0.3686526 0.5603011 0.4409202 0.6081148 0.06153398 0.9926627 0.05243498 0.9853068 0.07355731 0.960408 0.7807248 0.3752457 0.8132155 0.3507813 0.8131169 0.3745091 0.7139008 0.4712912 0.7750473 0.439426 0.7749745 0.47173 0.4825295 0.6776134 0.4409202 0.6081148 0.48976 0.6746906 0.07355731 0.9949665 0.06153398 0.9926627 0.07355731 0.960408 0.4343864 0.4691682 0.4951857 0.3998048 0.4993069 0.4679786 0.4355644 0.3291029 0.4929921 0.2404267 0.4927554 0.3288843 0.5051818 0.7626557 0.4825295 0.6776134 0.48976 0.6746906 0.08568423 0.9946223 0.07355731 0.9949665 0.07355731 0.960408 0.6333408 0.8644557 0.7114629 0.869612 0.6329877 0.8696167 0.6429887 0.6121022 0.7114797 0.7103362 0.6422598 0.7103269 0.4948902 0.8481894 0.5051818 0.7626557 0.5025452 0.8511272 0.09716451 0.9857005 0.08568423 0.9946223 0.07355731 0.960408 0.3217018 0.3185777 0.2690246 0.3911886 0.2656896 0.3200005 0.3227633 0.3898136 0.2715886 0.4800754 0.2690246 0.3911886 0.4416027 0.9362153 0.4948902 0.8481894 0.5025452 0.8511272 0.1015608 0.9722792 0.09716451 0.9857005 0.07355731 0.960408 0.05337524 0.04371452 0.05638688 0.1250075 0.0513907 0.1252359 0.2073379 0.04770445 0.3005605 0.1212007 0.2055804 0.1196278 0.3519299 0.9679629 0.4359719 0.9304513 0.4416027 0.9362153 0.1018046 0.9597817 0.1015608 0.9722792 0.07355731 0.960408 0.3503643 0.3176872 0.3941743 0.3884407 0.3522294 0.38925 0.3965951 0.4770367 0.3522294 0.38925 0.3941743 0.3884407 0.268544 0.9693743 0.3492776 0.9611443 0.3519299 0.9679629 0.1013367 0.9460424 0.1018046 0.9597817 0.07355731 0.960408 0.8516287 0.887056 0.7668241 0.8869885 0.851625 0.8924607 0.8518235 0.6172177 0.7740043 0.7205425 0.8517476 0.7223812 0.178723 0.9583474 0.268544 0.9693743 0.1755154 0.9650701 0.8715689 0.2114803 0.8724807 0.268647 0.8715391 0.2687497 0.8590368 0.3913064 0.8606367 0.4468236 0.859068 0.4469274 0.868599 0.3237527 0.8693325 0.3274094 0.8683983 0.3275113 0.8603464 0.3378602 0.860605 0.3912019 0.8590368 0.3913064 0.8660224 0.1506447 0.8725227 0.2113764 0.8715689 0.2114803 0.8629617 0.5163148 0.8647058 0.5193341 0.8631371 0.5194381 0.827993 0.1538777 0.8285005 0.1875151 0.8273398 0.1875923 0.4355644 0.3291029 0.4305745 0.4004928 0.4313331 0.3289577 0.8256164 0.2199546 0.8266615 0.2220883 0.8254985 0.2221661 0.434791 0.4007309 0.4301771 0.4688931 0.4305745 0.4004928 0.8257626 0.11179 0.82915 0.1538013 0.827993 0.1538777 0.4369142 0.2359726 0.4326539 0.2398793 0.4327129 0.2358865 0.8100228 0.4299874 0.7614744 0.4323082 0.7611805 0.429028 0.7742033 0.1808658 0.7722851 0.2145038 0.7719411 0.1806536 0.7143519 0.4254959 0.7114444 0.4285199 0.7111519 0.4252546 0.7726188 0.148512 0.7719411 0.1806536 0.7703678 0.1482878 0.8709312 0.4255365 0.8103193 0.4332943 0.8100228 0.4299874 0.7725028 0.2567846 0.7701194 0.2585255 0.7702121 0.2566377 0.9253494 0.2079558 0.9306519 0.2631321 0.9251956 0.2635611 0.7679901 0.2143191 0.7719411 0.1806536 0.7722851 0.2145038 0.923317 0.316978 0.9286559 0.3201969 0.9231885 0.3206282 0.7676292 0.180541 0.7703678 0.1482878 0.7719411 0.1806536 0.9207826 0.138594 0.9307863 0.2075301 0.9253494 0.2079558 0.7658572 0.2582883 0.7702121 0.2566377 0.7701194 0.2585255 0.3540918 0.1984856 0.3572282 0.1329762 0.3584043 0.198427 0.824404 0.404311 0.8225396 0.4069948 0.8223128 0.4044639 0.9205768 0.1354721 0.9262115 0.138169 0.9207826 0.138594 0.7111519 0.4712713 0.7139726 0.4393818 0.7139008 0.4712912 0.7659502 0.2564031 0.7722851 0.2145038 0.7702121 0.2566377 0.7702121 0.2566377 0.7745749 0.2146781 0.7725028 0.2567846 0.8657279 0.1474559 0.8669762 0.1505407 0.8660224 0.1506447 0.7137187 0.4898747 0.716686 0.4877577 0.7168408 0.4896613 0.436863 0.2399607 0.493012 0.2364484 0.4929921 0.2404267 0.436863 0.2399607 0.4313331 0.3289577 0.4326539 0.2398793 0.859068 0.4469274 0.8645306 0.516211 0.8629617 0.5163148 0.6430215 0.6076812 0.7115258 0.6121113 0.6429887 0.6121022 0.8988473 0.33152 0.9007096 0.3285383 0.9005039 0.3316608 0.9527221 0.1350023 0.9589494 0.1376718 0.9529201 0.1381247 0.3248969 0.4787104 0.2717036 0.484076 0.2715886 0.4800754 0.8012294 0.3432092 0.8072511 0.3013399 0.8053408 0.343437 0.8158294 0.1784228 0.8213481 0.2203437 0.8175126 0.2205284 0.3023024 0.04998719 0.3048354 0.1212716 0.3005605 0.1212007 0.9405426 0.1379489 0.945802 0.1351329 0.9456576 0.138258 0.3555043 0.482314 0.3378962 0.47905 0.355367 0.4783285 0.3967111 0.481015 0.355367 0.4783285 0.3965951 0.4770367 0.7902787 0.3431333 0.7970587 0.3013655 0.7947042 0.3434382 0.8839762 0.3175753 0.8888314 0.2482713 0.8852173 0.3176586 0.8518269 0.6125242 0.7752662 0.6164215 0.8518235 0.6172177 0.531225 0.1992013 0.6057154 0.1274908 0.6053216 0.2015941 0.7611805 0.429028 0.7146446 0.4287622 0.7143519 0.4254959 0.9251956 0.2635611 0.9287835 0.3165466 0.923317 0.316978 0.7785113 0.3752959 0.7808312 0.3494046 0.7807248 0.3752457 0.7660608 0.1481975 0.7702607 0.146081 0.7703678 0.1482878 0.7703678 0.1482878 0.7725121 0.146306 0.7726188 0.148512 0.8715391 0.2687497 0.8695338 0.3236508 0.868599 0.3237527 0.8273398 0.1875923 0.8267791 0.2198768 0.8256164 0.2199546 0.4993069 0.4679786 0.4343519 0.47383 0.4343864 0.4691682 0.4343864 0.4691682 0.4301431 0.4735519 0.4301771 0.4688931 0.8604357 0.334208 0.8619146 0.337755 0.8603464 0.3378602 0.6385065 0.7889296 0.711454 0.8644518 0.6333408 0.8644557 0.9014819 0.5098738 0.8981177 0.456671 0.9031275 0.5100139 0.9572653 0.2632164 0.9622857 0.3162929 0.9554331 0.3167905 0.2618592 0.2515359 0.3211682 0.2453688 0.3212026 0.2500517 0.8010947 0.2349094 0.8056935 0.2329448 0.805772 0.2351611 0.7141414 0.5038663 0.7173545 0.496737 0.7177991 0.5039314 0.05836308 0.04386079 0.129507 0.121669 0.05638688 0.1250075 0.94272 0.3162249 0.9442735 0.2632779 0.9485197 0.3165555 0.3503643 0.3176872 0.3296534 0.2508569 0.3494594 0.249301 0.3493933 0.2446442 0.3966171 0.2491871 0.3494594 0.249301 0.7898978 0.2349938 0.7948134 0.2331176 0.7949239 0.235328 0.8812645 0.1393719 0.882371 0.1358232 0.8826748 0.1394628 0.8516865 0.8069141 0.7671225 0.8816067 0.8516287 0.887056 0.8517476 0.7223812 0.9324173 0.8030791 0.9294933 0.7206549 0.8982466 0.1392244 0.8967111 0.1924639 0.8953883 0.192589 0.7799896 0.2353793 0.7833909 0.2673706 0.7786946 0.267742 0.2011016 0.2583866 0.2461328 0.3265041 0.2482593 0.2582725 0.2038714 0.3983352 0.1834701 0.3281033 0.1861494 0.3992715 0.961189 0.4001949 0.9663773 0.4553262 0.9609444 0.4558059 0.5490719 0.7103798 0.6233574 0.7889083 0.5450947 0.7889707 0.9303469 0.3314663 0.9262051 0.3847184 0.9231426 0.3312411 0.8159644 0.2351611 0.8127446 0.267352 0.8171128 0.2675942 0.1728515 0.2591237 0.1174471 0.3291588 0.1734578 0.3276489 0.9437308 0.4001287 0.9500805 0.4553615 0.949819 0.3996708 0.9133257 0.2078629 0.9144543 0.2633571 0.9128093 0.2635467 0.2039483 0.20415 0.1292151 0.1359193 0.2052174 0.1372213 0.5705094 0.3288839 0.5125451 0.4007309 0.5729399 0.3998045 0.6358468 0.3296744 0.587827 0.4006592 0.5888151 0.3295374 0.4513602 0.06433999 0.5312346 0.129135 0.4536718 0.1308472 0.8155332 0.343437 0.8113377 0.345104 0.8154472 0.3453318 0.9393274 0.3307511 0.949819 0.3996708 0.9453568 0.3302977 0.8171128 0.2675942 0.8132911 0.3011099 0.8174434 0.30134 0.9418401 0.5094166 0.9485981 0.5125784 0.9486926 0.5089188 0.9259985 0.5130119 0.9324039 0.5100926 0.9323267 0.5132204 0.9066927 0.1386266 0.9149769 0.2076727 0.9133257 0.2078629 0.9277247 0.4403881 0.9329315 0.38494 0.9341188 0.4405985 0.9093976 0.3169807 0.9108037 0.3204427 0.9091645 0.3206319 0.7812835 0.3434818 0.7858286 0.3450257 0.7814082 0.3453742 0.2070093 0.4874139 0.1861494 0.3992715 0.1895385 0.4881353 0.7786946 0.267742 0.7829772 0.3010826 0.7785113 0.301435 0.2011016 0.2583866 0.1811405 0.2552945 0.1812953 0.2599418 0.9009889 0.3174212 0.9024808 0.3204182 0.9012436 0.3205381 0.9559942 0.3308759 0.9663423 0.3997346 0.961189 0.4001949 0.8953883 0.192589 0.8965744 0.2480441 0.8953242 0.2481648 0.9582203 0.509182 0.9638459 0.5123324 0.9580339 0.5128296 0.04577785 0.9747736 0.04255938 0.9624623 0.07355731 0.960408 0.6057154 0.1274908 0.6071056 0.05308789 0.6107936 0.1273788 0.3555152 0.06753754 0.4536718 0.1308472 0.3572282 0.1329762 0.2855594 0.541794 0.3686526 0.5603011 0.3654449 0.5670236 0.04255938 0.9624623 0.0431357 0.9501028 0.07355731 0.960408 0.6378964 0.4008044 0.5857905 0.4689984 0.587827 0.4006592 0.6356666 0.240754 0.5888151 0.3295374 0.5892097 0.2406191 0.2058224 0.5455815 0.2860224 0.5342047 0.2855594 0.541794 0.0431357 0.9501028 0.04913747 0.9384778 0.07355731 0.960408 0.5121405 0.4691678 0.5729399 0.3998045 0.5125451 0.4007309 0.5707461 0.2404267 0.5133186 0.3291025 0.5705094 0.3288839 0.2058224 0.5455815 0.1254653 0.5814727 0.2035459 0.5381224 0.04913747 0.9384778 0.05707615 0.9284453 0.07355731 0.960408 0.05475687 0.209928 0.05121296 0.1342968 0.05620193 0.1344003 0.2989354 0.2052593 0.2052174 0.1372213 0.3001921 0.1389905 0.0654512 0.6432818 0.1254653 0.5814727 0.1303355 0.5874921 0.05707615 0.9284453 0.07066583 0.9244027 0.07355731 0.960408 0.1734578 0.3276489 0.1208928 0.4003418 0.1746299 0.398883 0.1235954 0.4892243 0.1746299 0.398883 0.1208928 0.4003418 0.0654512 0.6432818 0.03054898 0.740081 0.05835157 0.6391794 0.07066583 0.9244027 0.08293938 0.9292035 0.07355731 0.960408 0.5398489 0.8644766 0.6238124 0.8695855 0.5394904 0.8696362 0.5497767 0.6121551 0.6234655 0.7103281 0.5490719 0.7103798 0.03857207 0.7408319 0.06228423 0.8297587 0.03054898 0.740081 0.08293938 0.9292035 0.09192514 0.9369282 0.07355731 0.960408 0.2458167 0.3975262 0.2020063 0.3267723 0.2038714 0.3983352 0.2482371 0.4861221 0.2038714 0.3983352 0.2070093 0.4874139 0.06925302 0.8275307 0.1136452 0.8954645 0.06228423 0.8297587 0.09192514 0.9369282 0.1013367 0.9460424 0.07355731 0.960408 0.8516287 0.887056 0.9364337 0.8871108 0.9361428 0.8817287 0.8518235 0.6172177 0.9294933 0.7206549 0.9283818 0.6165319 0.178723 0.9583474 0.1136452 0.8954645 0.1189079 0.891054 0.871257 0.4553107 0.8704273 0.39814 0.872201 0.4553846 0.859176 0.2549652 0.8591363 0.1994231 0.8607469 0.2550229 0.8761947 0.5139861 0.8768174 0.5103065 0.8771325 0.5140596 0.8575662 0.1993647 0.8562549 0.1460726 0.8591363 0.1994231 0.8694708 0.398065 0.874129 0.3371992 0.8704273 0.39814 0.8572535 0.3275994 0.8589084 0.3245286 0.8588254 0.327657 0.8838207 0.4012859 0.8837304 0.4567814 0.8819108 0.401185 0.5083286 0.4004927 0.5133186 0.3291025 0.5090872 0.3289577 0.8892091 0.5102271 0.8875324 0.5137698 0.8872891 0.5101246 0.5079312 0.4688929 0.5125451 0.4007309 0.5083286 0.4004927 0.8865662 0.331815 0.8819108 0.401185 0.8846589 0.3317145 0.5104079 0.2398793 0.5146683 0.2359726 0.5104669 0.2358865 0.8220143 0.3106084 0.8236609 0.2771143 0.8242772 0.3108144 0.7742033 0.2974875 0.7722851 0.3311253 0.7745749 0.3312994 0.8245812 0.3451268 0.8266701 0.3431239 0.8268335 0.3453318 0.7726191 0.2651335 0.7719411 0.2972753 0.7742033 0.2974875 0.8213797 0.2769066 0.8267893 0.235091 0.8236609 0.2771143 0.772503 0.3734058 0.7701197 0.375147 0.7724084 0.3752959 0.9137463 0.4008584 0.9100197 0.4561637 0.9082993 0.4005879 0.7719411 0.2972753 0.7679902 0.3309406 0.7722851 0.3311253 0.9188877 0.5097764 0.9136432 0.5131458 0.9134113 0.5095012 0.770368 0.2649092 0.7676292 0.2971628 0.7719411 0.2972753 0.916333 0.3313925 0.9082993 0.4005879 0.9108936 0.3311228 0.7702124 0.3732591 0.7658575 0.3749096 0.7701197 0.375147 0.3512044 0.06766927 0.3572282 0.1329762 0.3529159 0.1330713 0.8269302 0.2331994 0.8245005 0.2348827 0.824641 0.2329913 0.9164494 0.328266 0.9108936 0.3311228 0.9110105 0.3279961 0.6356585 0.2367517 0.5892097 0.2406191 0.5892274 0.2366169 0.7722851 0.3311253 0.7659505 0.3730245 0.7702124 0.3732591 0.7745749 0.3312994 0.7702124 0.3732591 0.772503 0.3734058 0.8743267 0.3340052 0.8731728 0.337124 0.8733705 0.3339299 0.8866899 0.3286882 0.8846589 0.3317145 0.8847825 0.3285879 0.5707661 0.2364484 0.514617 0.2399604 0.5707461 0.2404267 0.5090872 0.3289577 0.514617 0.2399604 0.5104079 0.2398793 0.8607469 0.2550229 0.8573365 0.3244712 0.859176 0.2549652 0.3032103 0.2053091 0.3001921 0.1389905 0.3044668 0.1390701 0.9063944 0.1355103 0.9083456 0.1384366 0.9066927 0.1386266 0.9391291 0.3276283 0.9453568 0.3302977 0.9451559 0.3271756 0.1237168 0.4932251 0.1769015 0.4877766 0.1235954 0.4892243 0.8174434 0.30134 0.8114219 0.3432092 0.8155332 0.343437 0.9341188 0.4405985 0.9260727 0.509884 0.9277247 0.4403881 0.5498084 0.6077341 0.6234368 0.6121022 0.5497767 0.6121551 0.9557607 0.3277559 0.9610983 0.3304207 0.9559942 0.3308759 0.2071468 0.4913995 0.1895385 0.4881353 0.1896889 0.4921273 0.2483533 0.4901008 0.2070093 0.4874139 0.2071468 0.4913995 0.7785113 0.301435 0.7857058 0.343133 0.7812835 0.3434818 0.8953242 0.2481648 0.9022266 0.3173015 0.9009889 0.3174212 0.8518269 0.6125242 0.9283818 0.6165319 0.9283383 0.6118393 0.5281332 0.05913758 0.6057154 0.1274908 0.5312346 0.129135 0.8242772 0.3108144 0.824417 0.3429189 0.8220143 0.3106084 0.9154857 0.4564366 0.9134113 0.5095012 0.9100197 0.4561637 0.5856512 0.4736682 0.640319 0.4691588 0.6404845 0.4738298 0.7702609 0.2627024 0.7660611 0.264819 0.770368 0.2649092 0.7725123 0.2629274 0.770368 0.2649092 0.7726191 0.2651335 0.872201 0.4553846 0.8758789 0.5102328 0.871257 0.4553107 0.885647 0.4568831 0.8872891 0.5101246 0.8837304 0.4567814 0.512106 0.4738298 0.5770609 0.4679785 0.5121405 0.4691678 0.5078972 0.4735516 0.5121405 0.4691678 0.5079312 0.4688929 0.8560582 0.1424269 0.8546851 0.1460136 0.8544884 0.1423676 0.1278779 0.2063279 0.05620193 0.1344003 0.1292151 0.1359193 0.9128093 0.2635467 0.9110373 0.3167917 0.9093976 0.3169807 0.9436721 0.455842 0.9486926 0.5089188 0.9500805 0.4553615 0.1728098 0.2544413 0.1135106 0.2607004 0.1728515 0.2591237 0.8158859 0.2329448 0.8112871 0.2349094 0.8159644 0.2351611 0.9301705 0.3278122 0.9231426 0.3312411 0.9229331 0.3275869 0.5450947 0.7889707 0.6237832 0.8644251 0.5398489 0.8644766 0.9609444 0.4558059 0.9640079 0.5086861 0.9582203 0.509182 0.2020063 0.3267723 0.1812953 0.2599418 0.1834701 0.3281033 0.2010353 0.2537295 0.2482593 0.2582725 0.2484074 0.2536117 0.7800782 0.233168 0.7850123 0.234995 0.7799896 0.2353793 0.8984419 0.1355779 0.8996533 0.1390918 0.8982466 0.1392244 0.8516865 0.8069141 0.9361428 0.8817287 0.9324173 0.8030791 0.2350529 0.6413544 0.1303355 0.5874921 0.2058224 0.5455815 0.2855594 0.541794 0.2350529 0.6413544 0.2058224 0.5455815 0.3654449 0.5670236 0.2796149 0.6392375 0.2855594 0.541794 0.3633061 0.6791707 0.3654449 0.5670236 0.4353121 0.6132491 0.3896942 0.7151415 0.4353121 0.6132491 0.4825295 0.6776134 0.4974391 0.7626568 0.3896942 0.7151415 0.4825295 0.6776134 0.3966019 0.8104702 0.4974391 0.7626568 0.4948902 0.8481894 0.4359719 0.9304513 0.3966019 0.8104702 0.4948902 0.8481894 0.3492776 0.9611443 0.3636745 0.8564432 0.4359719 0.9304513 0.2686616 0.9625088 0.3152242 0.8735963 0.3492776 0.9611443 0.2199078 0.8720333 0.2686616 0.9625088 0.178723 0.9583474 0.1189079 0.891054 0.2199078 0.8720333 0.178723 0.9583474 0.1587293 0.798925 0.1189079 0.891054 0.06925302 0.8275307 0.141583 0.7504724 0.06925302 0.8275307 0.03857207 0.7408319 0.1566047 0.6959555 0.03857207 0.7408319 0.0654512 0.6432818 0.1303355 0.5874921 0.1566047 0.6959555 0.0654512 0.6432818 0.2480307 0.8493347 0.2826854 0.7578492 0.284816 0.8549503 0.2198485 0.8296014 0.2826854 0.7578492 0.2480307 0.8493347 0.1992666 0.7999365 0.2826854 0.7578492 0.2198485 0.8296014 0.1876361 0.7657555 0.2826854 0.7578492 0.1992666 0.7999365 0.1885101 0.7313628 0.2826854 0.7578492 0.1876361 0.7657555 0.2058507 0.6984387 0.2826854 0.7578492 0.1885101 0.7313628 0.2292724 0.6699512 0.2826854 0.7578492 0.2058507 0.6984387 0.2710489 0.6574422 0.2826854 0.7578492 0.2292724 0.6699512 0.3086972 0.6698375 0.2826854 0.7578492 0.2710489 0.6574422 0.3365401 0.6906287 0.2826854 0.7578492 0.3086972 0.6698375 0.3661041 0.7157617 0.2826854 0.7578492 0.3365401 0.6906287 0.3687525 0.7544746 0.2826854 0.7578492 0.3661041 0.7157617 0.3689312 0.7892233 0.2826854 0.7578492 0.3687525 0.7544746 0.3565307 0.8268699 0.2826854 0.7578492 0.3689312 0.7892233 0.321646 0.8530387 0.2826854 0.7578492 0.3565307 0.8268699 0.284816 0.8549503 0.2826854 0.7578492 0.321646 0.8530387 0.5333423 0.9724391 0.5202609 0.9749037 0.5203285 0.9738485 0.5442124 0.9668631 0.5333423 0.9724391 0.5435316 0.9660591 0.5522301 0.9570108 0.5435316 0.9660591 0.5512989 0.9565146 0.5554923 0.9450661 0.5522301 0.9570108 0.5512989 0.9565146 0.5556253 0.9333285 0.5565588 0.945193 0.5554923 0.9450661 0.5507905 0.9213189 0.5556253 0.9333285 0.5499042 0.921938 0.5420125 0.9119309 0.5507905 0.9213189 0.5499042 0.921938 0.527877 0.9061383 0.5420125 0.9119309 0.5277067 0.9072316 0.5140104 0.9100167 0.5277067 0.9072316 0.5142733 0.9109889 0.5035946 0.9169704 0.5142733 0.9109889 0.504183 0.9177253 0.4935524 0.9257496 0.5035946 0.9169704 0.504183 0.9177253 0.4912434 0.9386488 0.4935524 0.9257496 0.4922177 0.9387264 0.4917203 0.9505735 0.4912434 0.9386488 0.4922177 0.9387264 0.495613 0.9635614 0.4907299 0.950878 0.4917203 0.9505735 0.5073643 0.9727444 0.4947483 0.9642848 0.495613 0.9635614 0.5202609 0.9749037 0.5073643 0.9727444 0.5203285 0.9738485 0.5203285 0.9738485 0.5167411 0.9530627 0.5216339 0.9534794 0.5167411 0.9530627 0.495613 0.9635614 0.512306 0.949597 0.512306 0.949597 0.4917203 0.9505735 0.5108368 0.9446951 0.5108368 0.9446951 0.4922177 0.9387264 0.5110246 0.9402239 0.4922177 0.9387264 0.5115283 0.9353263 0.5110246 0.9402239 0.5115283 0.9353263 0.504183 0.9177253 0.5155405 0.9322978 0.504183 0.9177253 0.5193487 0.9297553 0.5155405 0.9322978 0.5142733 0.9109889 0.5244186 0.9283373 0.5193487 0.9297553 0.5277067 0.9072316 0.5298178 0.9301109 0.5244186 0.9283373 0.5298178 0.9301109 0.5499042 0.921938 0.5327962 0.9338877 0.5499042 0.921938 0.5349554 0.9381867 0.5327962 0.9338877 0.5349554 0.9381867 0.5554923 0.9450661 0.5349052 0.9426165 0.5349052 0.9426165 0.5512989 0.9565146 0.5333226 0.9469373 0.5512989 0.9565146 0.5303912 0.9505396 0.5333226 0.9469373 0.5435316 0.9660591 0.5265456 0.9529474 0.5303912 0.9505396 0.5265456 0.9529474 0.5203285 0.9738485 0.5216339 0.9534794 0.5032939 0.9168109 0.5033255 0.9148588 0.5112971 0.9108629 0.5032939 0.9168109 0.5112971 0.9108629 0.5143496 0.9086924 0.5140104 0.9100167 0.5035946 0.9169704 0.5032939 0.9168109 0.3590212 0.9740589 0.3340404 0.973695 0.2754845 0.9821768 0.2754845 0.9821768 0.2675662 0.9714237 0.268544 0.9693743 0.2754845 0.9821768 0.268544 0.9693743 0.3519299 0.9679629 0.5296284 0.9061431 0.53139 0.9055148 0.5427033 0.910607 0.53139 0.9055148 0.5420184 0.909135 0.5427033 0.910607 0.5427033 0.910607 0.5426443 0.9109891 0.5296284 0.9061431 0.5053852 0.8500558 0.5025328 0.860714 0.4627616 0.92557 0.5053852 0.8500558 0.4627616 0.92557 0.4510012 0.9294857 0.4510012 0.9294857 0.4416027 0.9362153 0.5025452 0.8511272 0.5511629 0.921392 0.551485 0.9221 0.5571706 0.9327089 0.5571706 0.9327089 0.5569167 0.9330857 0.556696 0.9330769 0.5571706 0.9327089 0.556696 0.9330769 0.5507905 0.9213189 0.4911087 0.6736363 0.4943442 0.6749346 0.5058903 0.7546489 0.4911087 0.6736363 0.5058903 0.7546489 0.5071154 0.7605338 0.5051818 0.7626557 0.48976 0.6746906 0.4911087 0.6736363 0.06629598 0.5260693 0.06807816 0.5283419 0.06480145 0.5256691 0.06807816 0.5283419 0.06788361 0.5455148 0.06456637 0.5464213 0.06788361 0.5455148 0.06605607 0.5468202 0.06456637 0.5464213 0.4452659 0.6027262 0.4552048 0.6029527 0.4409202 0.6081148 0.4552048 0.6029527 0.4944016 0.6563838 0.4409202 0.6081148 0.4944016 0.6563838 0.4941057 0.6693019 0.48976 0.6746906 0.4909433 0.9384881 0.4912434 0.9386488 0.4892538 0.939557 0.4912434 0.9386488 0.4907299 0.950878 0.4892538 0.939557 0.4897536 0.9518629 0.4900199 0.948208 0.4892538 0.939557 0.06228423 0.8297587 0.1136452 0.8954645 0.1126673 0.8975139 0.1126673 0.8975139 0.09932726 0.8981235 0.06908285 0.8472707 0.1126673 0.8975139 0.06908285 0.8472707 0.05308443 0.8280815 0.04083514 0.4871836 0.039662 0.4846622 0.02145797 0.4784618 0.04083514 0.4871836 0.02145797 0.4784618 0.01844078 0.479538 0.01844078 0.479538 0.015441 0.4795297 0.04073393 0.4878379 0.1627233 0.7478977 0.1694442 0.7439284 0.1833848 0.6928819 0.1694442 0.7439284 0.1863164 0.6990105 0.1833848 0.6928819 0.1833848 0.6928819 0.1817834 0.6919394 0.1627233 0.7478977 0.5202609 0.9749037 0.5336943 0.9734488 0.53382 0.9736244 0.53382 0.9736244 0.5336263 0.9740334 0.5213146 0.975054 0.53382 0.9736244 0.5213146 0.975054 0.5205237 0.975169 0.203517 0.5364105 0.2035459 0.5381224 0.2004724 0.5347123 0.2035459 0.5381224 0.1254653 0.5814727 0.2004724 0.5347123 0.1258985 0.5786348 0.1312437 0.575885 0.2004724 0.5347123 0.04445809 0.5959245 0.04510051 0.5981681 0.04080969 0.5932491 0.04510051 0.5981681 0.01178473 0.5985211 0.04080969 0.5932491 0.01178473 0.5985211 0.01114434 0.5962847 0.01323997 0.5935412 0.166763 0.7788035 0.1706108 0.7770087 0.1655688 0.7848516 0.1706108 0.7770087 0.2044147 0.8168646 0.1926984 0.8168385 0.2044147 0.8168646 0.2005667 0.8186594 0.1926984 0.8168385 0.8517476 0.7223812 0.7740043 0.7205425 0.7709615 0.8029626 0.8857927 0.1926311 0.8812645 0.1393719 0.8826748 0.1394628 0.791841 0.267351 0.7898978 0.2349938 0.7949239 0.235328 0.3494594 0.249301 0.3966171 0.2491871 0.3944905 0.3174187 0.3522294 0.38925 0.3345072 0.3901863 0.3318277 0.3190181 0.9388289 0.2629534 0.9372781 0.207383 0.9424424 0.207696 0.1313638 0.04600584 0.2073379 0.04770445 0.2055804 0.1196278 0.8171045 0.1122394 0.8214692 0.1120363 0.8201085 0.144479 0.8025525 0.2673518 0.8010947 0.2349094 0.805772 0.2351611 0.2656896 0.3200005 0.2618592 0.2515359 0.3212026 0.2500517 0.957324 0.2075029 0.9634124 0.2070448 0.9636737 0.2627359 0.8964672 0.4565306 0.8942818 0.400885 0.8959375 0.4010255 0.6422598 0.7103269 0.7114797 0.7103362 0.7113254 0.7889373 0.434791 0.4007309 0.4355644 0.3291029 0.4927554 0.3288843 0.7749745 0.47173 0.7750473 0.439426 0.8239005 0.4389993 0.4542975 0.1973919 0.4536718 0.1308472 0.5312346 0.129135 0.8011453 0.345104 0.8012294 0.3432092 0.8053408 0.343437 0.9529201 0.1381247 0.9589494 0.1376718 0.9634124 0.2070448 0.8030988 0.3011097 0.8025525 0.2673518 0.8069204 0.2675938 0.9554331 0.3167905 0.9622857 0.3162929 0.9621907 0.3199526 0.8175126 0.2205284 0.8213481 0.2203437 0.821422 0.2222388 0.9005039 0.3316608 0.8959375 0.4010255 0.8942818 0.400885 0.8160334 0.1446758 0.8201085 0.144479 0.8197031 0.1782358 0.9031275 0.5100139 0.9034698 0.5136592 0.9018243 0.5135189 0.7901746 0.3450271 0.7902787 0.3431333 0.7947042 0.3434382 0.355367 0.4783285 0.3378962 0.47905 0.3345072 0.3901863 0.7925896 0.3010575 0.791841 0.267351 0.7965407 0.2676762 0.3494594 0.249301 0.3296534 0.2508569 0.3294984 0.246209 0.8852173 0.3176586 0.8850547 0.3207816 0.8838143 0.3206986 0.9456576 0.138258 0.9424424 0.207696 0.9372781 0.207383 0.8871182 0.1927167 0.8888314 0.2482713 0.887578 0.2481876 0.9485197 0.3165555 0.9488097 0.3201959 0.9429861 0.319865 0.6103875 0.2017599 0.6053216 0.2015941 0.6057154 0.1274908 0.3584043 0.198427 0.3572282 0.1329762 0.4536718 0.1308472 0.4353121 0.6132491 0.3654449 0.5670236 0.3686526 0.5603011 0.7807248 0.3752457 0.7808312 0.3494046 0.8132155 0.3507813 0.7139008 0.4712912 0.7139726 0.4393818 0.7750473 0.439426 0.4825295 0.6776134 0.4353121 0.6132491 0.4409202 0.6081148 0.4343864 0.4691682 0.434791 0.4007309 0.4951857 0.3998048 0.4355644 0.3291029 0.436863 0.2399607 0.4929921 0.2404267 0.5051818 0.7626557 0.4974391 0.7626568 0.4825295 0.6776134 0.6333408 0.8644557 0.711454 0.8644518 0.7114629 0.869612 0.6429887 0.6121022 0.7115258 0.6121113 0.7114797 0.7103362 0.4948902 0.8481894 0.4974391 0.7626568 0.5051818 0.7626557 0.3217018 0.3185777 0.3227633 0.3898136 0.2690246 0.3911886 0.3227633 0.3898136 0.3248969 0.4787104 0.2715886 0.4800754 0.4416027 0.9362153 0.4359719 0.9304513 0.4948902 0.8481894 0.05337524 0.04371452 0.05836308 0.04386079 0.05638688 0.1250075 0.2073379 0.04770445 0.3023024 0.04998719 0.3005605 0.1212007 0.3519299 0.9679629 0.3492776 0.9611443 0.4359719 0.9304513 0.3503643 0.3176872 0.3944905 0.3174187 0.3941743 0.3884407 0.3965951 0.4770367 0.355367 0.4783285 0.3522294 0.38925 0.268544 0.9693743 0.2686616 0.9625088 0.3492776 0.9611443 0.8516287 0.887056 0.7671225 0.8816067 0.7668241 0.8869885 0.8518235 0.6172177 0.7752662 0.6164215 0.7740043 0.7205425 0.178723 0.9583474 0.2686616 0.9625088 0.268544 0.9693743 0.8715689 0.2114803 0.8725227 0.2113764 0.8724807 0.268647 0.8590368 0.3913064 0.860605 0.3912019 0.8606367 0.4468236 0.868599 0.3237527 0.8695338 0.3236508 0.8693325 0.3274094 0.8603464 0.3378602 0.8619146 0.337755 0.860605 0.3912019 0.8660224 0.1506447 0.8669762 0.1505407 0.8725227 0.2113764 0.8629617 0.5163148 0.8645306 0.516211 0.8647058 0.5193341 0.827993 0.1538777 0.82915 0.1538013 0.8285005 0.1875151 0.4355644 0.3291029 0.434791 0.4007309 0.4305745 0.4004928 0.8256164 0.2199546 0.8267791 0.2198768 0.8266615 0.2220883 0.434791 0.4007309 0.4343864 0.4691682 0.4301771 0.4688931 0.8257626 0.11179 0.826918 0.1117137 0.82915 0.1538013 0.4369142 0.2359726 0.436863 0.2399607 0.4326539 0.2398793 0.8100228 0.4299874 0.8103193 0.4332943 0.7614744 0.4323082 0.7742033 0.1808658 0.7745749 0.2146781 0.7722851 0.2145038 0.7143519 0.4254959 0.7146446 0.4287622 0.7114444 0.4285199 0.7726188 0.148512 0.7742033 0.1808658 0.7719411 0.1806536 0.8709312 0.4255365 0.8712285 0.428854 0.8103193 0.4332943 0.7725028 0.2567846 0.7724081 0.2586745 0.7701194 0.2585255 0.9253494 0.2079558 0.9307863 0.2075301 0.9306519 0.2631321 0.7679901 0.2143191 0.7676292 0.180541 0.7719411 0.1806536 0.923317 0.316978 0.9287835 0.3165466 0.9286559 0.3201969 0.7676292 0.180541 0.7660608 0.1481975 0.7703678 0.1482878 0.9207826 0.138594 0.9262115 0.138169 0.9307863 0.2075301 0.7658572 0.2582883 0.7659502 0.2564031 0.7702121 0.2566377 0.3540918 0.1984856 0.3529159 0.1330713 0.3572282 0.1329762 0.824404 0.404311 0.8246309 0.4068422 0.8225396 0.4069948 0.9205768 0.1354721 0.9260058 0.1350473 0.9262115 0.138169 0.7111519 0.4712713 0.7112237 0.4393799 0.7139726 0.4393818 0.7659502 0.2564031 0.7679901 0.2143191 0.7722851 0.2145038 0.7702121 0.2566377 0.7722851 0.2145038 0.7745749 0.2146781 0.8657279 0.1474559 0.8666821 0.1473518 0.8669762 0.1505407 0.7137187 0.4898747 0.7135638 0.487971 0.716686 0.4877577 0.436863 0.2399607 0.4369142 0.2359726 0.493012 0.2364484 0.436863 0.2399607 0.4355644 0.3291029 0.4313331 0.3289577 0.859068 0.4469274 0.8606367 0.4468236 0.8645306 0.516211 0.6430215 0.6076812 0.7115278 0.6076901 0.7115258 0.6121113 0.8988473 0.33152 0.8990527 0.3283976 0.9007096 0.3285383 0.9527221 0.1350023 0.9587484 0.1345493 0.9589494 0.1376718 0.3248969 0.4787104 0.324993 0.4827118 0.2717036 0.484076 0.8012294 0.3432092 0.8030988 0.3011097 0.8072511 0.3013399 0.8158294 0.1784228 0.8197031 0.1782358 0.8213481 0.2203437 0.3023024 0.04998719 0.3065766 0.05008971 0.3048354 0.1212716 0.9405426 0.1379489 0.9406895 0.1348239 0.945802 0.1351329 0.3555043 0.482314 0.3380466 0.4830419 0.3378962 0.47905 0.3967111 0.481015 0.3555043 0.482314 0.355367 0.4783285 0.7902787 0.3431333 0.7925896 0.3010575 0.7970587 0.3013655 0.8839762 0.3175753 0.887578 0.2481876 0.8888314 0.2482713 0.8518269 0.6125242 0.7753168 0.6117288 0.7752662 0.6164215 0.531225 0.1992013 0.5312346 0.129135 0.6057154 0.1274908 0.7611805 0.429028 0.7614744 0.4323082 0.7146446 0.4287622 0.9251956 0.2635611 0.9306519 0.2631321 0.9287835 0.3165466 0.7785113 0.3752959 0.7786182 0.3493105 0.7808312 0.3494046 0.7660608 0.1481975 0.7659543 0.1459895 0.7702607 0.146081 0.7703678 0.1482878 0.7702607 0.146081 0.7725121 0.146306 0.8715391 0.2687497 0.8724807 0.268647 0.8695338 0.3236508 0.8273398 0.1875923 0.8285005 0.1875151 0.8267791 0.2198768 0.4993069 0.4679786 0.4995908 0.4726369 0.4343519 0.47383 0.4343864 0.4691682 0.4343519 0.47383 0.4301431 0.4735519 0.8604357 0.334208 0.8620039 0.3341028 0.8619146 0.337755 0.6385065 0.7889296 0.7113254 0.7889373 0.711454 0.8644518 0.9014819 0.5098738 0.8964672 0.4565306 0.8981177 0.456671 0.9572653 0.2632164 0.9636737 0.2627359 0.9622857 0.3162929 0.2618592 0.2515359 0.2615975 0.2468575 0.3211682 0.2453688 0.8010947 0.2349094 0.8009951 0.2326925 0.8056935 0.2329448 0.7141414 0.5038663 0.7136955 0.4966394 0.7173545 0.496737 0.05836308 0.04386079 0.1313638 0.04600584 0.129507 0.121669 0.94272 0.3162249 0.9388289 0.2629534 0.9442735 0.2632779 0.3503643 0.3176872 0.3318277 0.3190181 0.3296534 0.2508569 0.3493933 0.2446442 0.3967652 0.2445265 0.3966171 0.2491871 0.7898978 0.2349938 0.789765 0.2327827 0.7948134 0.2331176 0.8812645 0.1393719 0.8809553 0.1357322 0.882371 0.1358232 0.8516865 0.8069141 0.7709615 0.8029626 0.7671225 0.8816067 0.8517476 0.7223812 0.8516865 0.8069141 0.9324173 0.8030791 0.8982466 0.1392244 0.8996533 0.1390918 0.8967111 0.1924639 0.7799896 0.2353793 0.7850123 0.234995 0.7833909 0.2673706 0.2011016 0.2583866 0.2020063 0.3267723 0.2461328 0.3265041 0.2038714 0.3983352 0.2020063 0.3267723 0.1834701 0.3281033 0.961189 0.4001949 0.9663423 0.3997346 0.9663773 0.4553262 0.5490719 0.7103798 0.6234655 0.7103281 0.6233574 0.7889083 0.9303469 0.3314663 0.9329315 0.38494 0.9262051 0.3847184 0.8159644 0.2351611 0.8112871 0.2349094 0.8127446 0.267352 0.1728515 0.2591237 0.1135106 0.2607004 0.1174471 0.3291588 0.9437308 0.4001287 0.9436721 0.455842 0.9500805 0.4553615 0.9133257 0.2078629 0.9149769 0.2076727 0.9144543 0.2633571 0.2039483 0.20415 0.1278779 0.2063279 0.1292151 0.1359193 0.5705094 0.3288839 0.5133186 0.3291025 0.5125451 0.4007309 0.6358468 0.3296744 0.6378964 0.4008044 0.587827 0.4006592 0.4513602 0.06433999 0.5281332 0.05913758 0.5312346 0.129135 0.8155332 0.343437 0.8114219 0.3432092 0.8113377 0.345104 0.9393274 0.3307511 0.9437308 0.4001287 0.949819 0.3996708 0.8171128 0.2675942 0.8127446 0.267352 0.8132911 0.3011099 0.9418401 0.5094166 0.9417153 0.5130776 0.9485981 0.5125784 0.9259985 0.5130119 0.9260727 0.509884 0.9324039 0.5100926 0.9066927 0.1386266 0.9083456 0.1384366 0.9149769 0.2076727 0.9277247 0.4403881 0.9262051 0.3847184 0.9329315 0.38494 0.9093976 0.3169807 0.9110373 0.3167917 0.9108037 0.3204427 0.7812835 0.3434818 0.7857058 0.343133 0.7858286 0.3450257 0.2070093 0.4874139 0.2038714 0.3983352 0.1861494 0.3992715 0.7786946 0.267742 0.7833909 0.2673706 0.7829772 0.3010826 0.2011016 0.2583866 0.2010353 0.2537295 0.1811405 0.2552945 0.9009889 0.3174212 0.9022266 0.3173015 0.9024808 0.3204182 0.9559942 0.3308759 0.9610983 0.3304207 0.9663423 0.3997346 0.8953883 0.192589 0.8967111 0.1924639 0.8965744 0.2480441 0.9582203 0.509182 0.9640079 0.5086861 0.9638459 0.5123324 0.6057154 0.1274908 0.6020517 0.05347692 0.6071056 0.05308789 0.3555152 0.06753754 0.4513602 0.06433999 0.4536718 0.1308472 0.2855594 0.541794 0.2860224 0.5342047 0.3686526 0.5603011 0.6378964 0.4008044 0.640319 0.4691588 0.5857905 0.4689984 0.6356666 0.240754 0.6358468 0.3296744 0.5888151 0.3295374 0.2058224 0.5455815 0.2035459 0.5381224 0.2860224 0.5342047 0.5121405 0.4691678 0.5770609 0.4679785 0.5729399 0.3998045 0.5707461 0.2404267 0.514617 0.2399604 0.5133186 0.3291025 0.2058224 0.5455815 0.1303355 0.5874921 0.1254653 0.5814727 0.05475687 0.209928 0.0497598 0.2101745 0.05121296 0.1342968 0.2989354 0.2052593 0.2039483 0.20415 0.2052174 0.1372213 0.0654512 0.6432818 0.05835157 0.6391794 0.1254653 0.5814727 0.1734578 0.3276489 0.1174471 0.3291588 0.1208928 0.4003418 0.1235954 0.4892243 0.1769015 0.4877766 0.1746299 0.398883 0.0654512 0.6432818 0.03857207 0.7408319 0.03054898 0.740081 0.5398489 0.8644766 0.6237832 0.8644251 0.6238124 0.8695855 0.5497767 0.6121551 0.6234368 0.6121022 0.6234655 0.7103281 0.03857207 0.7408319 0.06925302 0.8275307 0.06228423 0.8297587 0.2458167 0.3975262 0.2461328 0.3265041 0.2020063 0.3267723 0.2482371 0.4861221 0.2458167 0.3975262 0.2038714 0.3983352 0.06925302 0.8275307 0.1189079 0.891054 0.1136452 0.8954645 0.8516287 0.887056 0.851625 0.8924607 0.9364337 0.8871108 0.8518235 0.6172177 0.8517476 0.7223812 0.9294933 0.7206549 0.178723 0.9583474 0.1755154 0.9650701 0.1136452 0.8954645 0.871257 0.4553107 0.8694708 0.398065 0.8704273 0.39814 0.859176 0.2549652 0.8575662 0.1993647 0.8591363 0.1994231 0.8761947 0.5139861 0.8758789 0.5102328 0.8768174 0.5103065 0.8575662 0.1993647 0.8546851 0.1460136 0.8562549 0.1460726 0.8694708 0.398065 0.8731728 0.337124 0.874129 0.3371992 0.8572535 0.3275994 0.8573365 0.3244712 0.8589084 0.3245286 0.8838207 0.4012859 0.885647 0.4568831 0.8837304 0.4567814 0.5083286 0.4004927 0.5125451 0.4007309 0.5133186 0.3291025 0.8892091 0.5102271 0.8894526 0.5138722 0.8875324 0.5137698 0.5079312 0.4688929 0.5121405 0.4691678 0.5125451 0.4007309 0.8865662 0.331815 0.8838207 0.4012859 0.8819108 0.401185 0.5104079 0.2398793 0.514617 0.2399604 0.5146683 0.2359726 0.8220143 0.3106084 0.8213797 0.2769066 0.8236609 0.2771143 0.7742033 0.2974875 0.7719411 0.2972753 0.7722851 0.3311253 0.8245812 0.3451268 0.824417 0.3429189 0.8266701 0.3431239 0.7726191 0.2651335 0.770368 0.2649092 0.7719411 0.2972753 0.8213797 0.2769066 0.8245005 0.2348827 0.8267893 0.235091 0.772503 0.3734058 0.7702124 0.3732591 0.7701197 0.375147 0.9137463 0.4008584 0.9154857 0.4564366 0.9100197 0.4561637 0.7719411 0.2972753 0.7676292 0.2971628 0.7679902 0.3309406 0.9188877 0.5097764 0.9191201 0.5134212 0.9136432 0.5131458 0.770368 0.2649092 0.7660611 0.264819 0.7676292 0.2971628 0.916333 0.3313925 0.9137463 0.4008584 0.9082993 0.4005879 0.7702124 0.3732591 0.7659505 0.3730245 0.7658575 0.3749096 0.3512044 0.06766927 0.3555152 0.06753754 0.3572282 0.1329762 0.8269302 0.2331994 0.8267893 0.235091 0.8245005 0.2348827 0.9164494 0.328266 0.916333 0.3313925 0.9108936 0.3311228 0.6356585 0.2367517 0.6356666 0.240754 0.5892097 0.2406191 0.7722851 0.3311253 0.7679902 0.3309406 0.7659505 0.3730245 0.7745749 0.3312994 0.7722851 0.3311253 0.7702124 0.3732591 0.8743267 0.3340052 0.874129 0.3371992 0.8731728 0.337124 0.8866899 0.3286882 0.8865662 0.331815 0.8846589 0.3317145 0.5707661 0.2364484 0.5146683 0.2359726 0.514617 0.2399604 0.5090872 0.3289577 0.5133186 0.3291025 0.514617 0.2399604 0.8607469 0.2550229 0.8589084 0.3245286 0.8573365 0.3244712 0.3032103 0.2053091 0.2989354 0.2052593 0.3001921 0.1389905 0.9063944 0.1355103 0.9080473 0.1353201 0.9083456 0.1384366 0.9391291 0.3276283 0.9393274 0.3307511 0.9453568 0.3302977 0.1237168 0.4932251 0.1770039 0.4917777 0.1769015 0.4877766 0.8174434 0.30134 0.8132911 0.3011099 0.8114219 0.3432092 0.9341188 0.4405985 0.9324039 0.5100926 0.9260727 0.509884 0.5498084 0.6077341 0.6234354 0.6076812 0.6234368 0.6121022 0.9557607 0.3277559 0.9608623 0.327301 0.9610983 0.3304207 0.2071468 0.4913995 0.2070093 0.4874139 0.1895385 0.4881353 0.2483533 0.4901008 0.2482371 0.4861221 0.2070093 0.4874139 0.7785113 0.301435 0.7829772 0.3010826 0.7857058 0.343133 0.8953242 0.2481648 0.8965744 0.2480441 0.9022266 0.3173015 0.8518269 0.6125242 0.8518235 0.6172177 0.9283818 0.6165319 0.5281332 0.05913758 0.6020517 0.05347692 0.6057154 0.1274908 0.8242772 0.3108144 0.8266701 0.3431239 0.824417 0.3429189 0.9154857 0.4564366 0.9188877 0.5097764 0.9134113 0.5095012 0.5856512 0.4736682 0.5857905 0.4689984 0.640319 0.4691588 0.7702609 0.2627024 0.7659545 0.2626108 0.7660611 0.264819 0.7725123 0.2629274 0.7702609 0.2627024 0.770368 0.2649092 0.872201 0.4553846 0.8768174 0.5103065 0.8758789 0.5102328 0.885647 0.4568831 0.8892091 0.5102271 0.8872891 0.5101246 0.512106 0.4738298 0.5773449 0.4726372 0.5770609 0.4679785 0.5078972 0.4735516 0.512106 0.4738298 0.5121405 0.4691678 0.8560582 0.1424269 0.8562549 0.1460726 0.8546851 0.1460136 0.1278779 0.2063279 0.05475687 0.209928 0.05620193 0.1344003 0.9128093 0.2635467 0.9144543 0.2633571 0.9110373 0.3167917 0.9436721 0.455842 0.9418401 0.5094166 0.9486926 0.5089188 0.1728098 0.2544413 0.1132417 0.2560222 0.1135106 0.2607004 0.8158859 0.2329448 0.8111874 0.2326925 0.8112871 0.2349094 0.9301705 0.3278122 0.9303469 0.3314663 0.9231426 0.3312411 0.5450947 0.7889707 0.6233574 0.7889083 0.6237832 0.8644251 0.9609444 0.4558059 0.9663773 0.4553262 0.9640079 0.5086861 0.2020063 0.3267723 0.2011016 0.2583866 0.1812953 0.2599418 0.2010353 0.2537295 0.2011016 0.2583866 0.2482593 0.2582725 0.7800782 0.233168 0.7851231 0.2327827 0.7850123 0.234995 0.8984419 0.1355779 0.8998544 0.1354449 0.8996533 0.1390918 0.8516865 0.8069141 0.8516287 0.887056 0.9361428 0.8817287 0.2350529 0.6413544 0.192866 0.6647768 0.1303355 0.5874921 0.2855594 0.541794 0.2796149 0.6392375 0.2350529 0.6413544 0.3654449 0.5670236 0.32426 0.6533373 0.2796149 0.6392375 0.3633061 0.6791707 0.32426 0.6533373 0.3654449 0.5670236 0.3896942 0.7151415 0.3633061 0.6791707 0.4353121 0.6132491 0.4974391 0.7626568 0.3980265 0.762669 0.3896942 0.7151415 0.3966019 0.8104702 0.3980265 0.762669 0.4974391 0.7626568 0.4359719 0.9304513 0.3636745 0.8564432 0.3966019 0.8104702 0.3492776 0.9611443 0.3152242 0.8735963 0.3636745 0.8564432 0.2686616 0.9625088 0.2701709 0.8743589 0.3152242 0.8735963 0.2199078 0.8720333 0.2701709 0.8743589 0.2686616 0.9625088 0.1189079 0.891054 0.1864795 0.8344257 0.2199078 0.8720333 0.1587293 0.798925 0.1864795 0.8344257 0.1189079 0.891054 0.141583 0.7504724 0.1587293 0.798925 0.06925302 0.8275307 0.1566047 0.6959555 0.141583 0.7504724 0.03857207 0.7408319 0.1303355 0.5874921 0.192866 0.6647768 0.1566047 0.6959555 0.5333423 0.9724391 0.5336943 0.9734488 0.5202609 0.9749037 0.5442124 0.9668631 0.5336943 0.9734488 0.5333423 0.9724391 0.5522301 0.9570108 0.5442124 0.9668631 0.5435316 0.9660591 0.5554923 0.9450661 0.5565588 0.945193 0.5522301 0.9570108 0.5556253 0.9333285 0.556696 0.9330769 0.5565588 0.945193 0.5507905 0.9213189 0.556696 0.9330769 0.5556253 0.9333285 0.5420125 0.9119309 0.5426443 0.9109891 0.5507905 0.9213189 0.527877 0.9061383 0.5426443 0.9109891 0.5420125 0.9119309 0.5140104 0.9100167 0.527877 0.9061383 0.5277067 0.9072316 0.5035946 0.9169704 0.5140104 0.9100167 0.5142733 0.9109889 0.4935524 0.9257496 0.4926211 0.9252535 0.5035946 0.9169704 0.4912434 0.9386488 0.4926211 0.9252535 0.4935524 0.9257496 0.4917203 0.9505735 0.4907299 0.950878 0.4912434 0.9386488 0.495613 0.9635614 0.4947483 0.9642848 0.4907299 0.950878 0.5073643 0.9727444 0.5068786 0.973764 0.4947483 0.9642848 0.5202609 0.9749037 0.5068786 0.973764 0.5073643 0.9727444 0.5203285 0.9738485 0.5073643 0.9727444 0.5167411 0.9530627 0.5167411 0.9530627 0.5073643 0.9727444 0.495613 0.9635614 0.512306 0.949597 0.495613 0.9635614 0.4917203 0.9505735 0.5108368 0.9446951 0.4917203 0.9505735 0.4922177 0.9387264 0.4922177 0.9387264 0.4935524 0.9257496 0.5115283 0.9353263 0.5115283 0.9353263 0.4935524 0.9257496 0.504183 0.9177253 0.504183 0.9177253 0.5142733 0.9109889 0.5193487 0.9297553 0.5142733 0.9109889 0.5277067 0.9072316 0.5244186 0.9283373 0.5277067 0.9072316 0.5420125 0.9119309 0.5298178 0.9301109 0.5298178 0.9301109 0.5420125 0.9119309 0.5499042 0.921938 0.5499042 0.921938 0.5556253 0.9333285 0.5349554 0.9381867 0.5349554 0.9381867 0.5556253 0.9333285 0.5554923 0.9450661 0.5349052 0.9426165 0.5554923 0.9450661 0.5512989 0.9565146 0.5512989 0.9565146 0.5435316 0.9660591 0.5303912 0.9505396 0.5435316 0.9660591 0.5333423 0.9724391 0.5265456 0.9529474 0.5265456 0.9529474 0.5333423 0.9724391 0.5203285 0.9738485</float_array>
          <technique_common>
            <accessor source="#Mesh-mesh-map-array" count="2112" stride="2">
              <param name="S" type="float"/>
              <param name="T" type="float"/>
            </accessor>
          </technique_common>
        </source>
        <vertices id="Mesh-mesh-vertices">
          <input semantic="POSITION" source="#Mesh-mesh-positions"/>
        </vertices>
        <triangles material="Material_001-material" count="704">
          <input semantic="VERTEX" source="#Mesh-mesh-vertices" offset="0"/>
          <input semantic="NORMAL" source="#Mesh-mesh-normals" offset="1"/>
          <input semantic="TEXCOORD" source="#Mesh-mesh-map" offset="2" set="0"/>
          <p>56 0 0 44 1 1 54 2 2 50 3 3 46 3 4 61 3 5 38 4 6 41 5 7 66 6 8 63 7 9 40 8 10 22 9 11 83 10 12 35 10 13 74 10 14 71 11 15 37 12 16 76 13 17 29 14 18 32 14 19 91 14 20 34 15 21 31 15 22 86 15 23 196 16 24 208 17 25 207 18 26 198 19 27 203 20 28 213 21 29 190 22 30 220 23 31 218 24 32 192 25 33 195 25 34 215 25 35 187 26 36 234 27 37 226 28 38 189 29 39 223 29 40 229 29 41 251 30 42 243 30 43 181 30 44 238 31 45 245 31 46 183 31 47 3 32 48 6 33 49 5 34 50 7 35 51 150 36 52 6 33 53 8 37 54 149 38 55 7 35 56 147 39 57 8 37 58 9 40 59 58 41 60 10 42 61 9 40 62 10 42 63 45 43 64 11 44 65 11 44 66 42 45 67 12 46 68 143 47 69 12 46 70 13 48 71 14 49 72 143 47 73 13 48 74 15 50 75 142 51 76 14 49 77 25 52 78 16 53 79 15 50 80 16 54 81 39 54 82 17 54 83 39 55 84 18 56 85 17 57 86 78 58 87 84 59 88 80 60 89 89 61 90 96 62 91 94 63 92 30 64 93 21 65 94 20 66 95 62 67 96 118 67 97 63 67 98 116 68 99 24 69 100 25 52 101 65 70 102 13 48 103 64 71 104 141 72 105 68 72 106 69 72 107 118 73 108 43 73 109 63 73 110 114 74 111 24 74 112 115 74 113 13 48 114 42 45 115 64 71 116 139 75 117 68 75 118 140 75 119 50 76 120 124 76 121 51 76 122 122 77 123 59 78 124 58 41 125 53 79 126 7 35 127 52 80 128 147 39 129 56 0 130 57 81 131 125 82 132 51 82 133 124 82 134 120 83 135 59 78 136 121 84 137 6 33 138 52 80 139 7 35 140 145 85 141 56 85 142 146 85 143 350 86 144 351 86 145 0 86 146 29 87 147 127 88 148 26 89 149 103 90 150 27 91 151 30 64 152 294 31 153 28 31 154 31 31 155 349 92 156 350 92 157 0 92 158 130 93 159 94 63 160 96 62 161 106 94 162 100 95 163 89 61 164 295 31 165 31 31 166 34 31 167 348 96 168 349 96 169 0 96 170 136 97 171 80 60 172 135 98 173 73 99 174 110 100 175 84 59 176 37 101 177 295 101 178 34 101 179 347 102 180 348 102 181 0 102 182 139 103 183 35 104 184 38 105 185 114 106 186 36 107 187 39 55 188 297 31 189 37 31 190 40 31 191 346 108 192 347 108 193 0 108 194 14 49 195 25 52 196 15 50 197 65 70 198 116 68 199 25 52 200 43 109 201 297 109 202 40 109 203 345 110 204 346 110 205 0 110 206 44 111 207 144 111 208 41 111 209 45 43 210 119 112 211 42 45 212 46 113 213 298 113 214 43 113 215 344 114 216 345 114 217 0 114 218 9 40 219 53 79 220 58 41 221 123 115 222 58 41 223 53 79 224 49 116 225 299 116 226 46 116 227 343 117 228 344 117 229 0 117 230 151 118 231 47 118 232 2 118 233 126 119 234 48 120 235 3 32 236 301 121 237 49 121 238 4 121 239 85 122 240 19 123 241 81 124 242 79 125 243 36 107 244 72 126 245 134 127 246 32 127 247 82 127 248 137 128 249 18 56 250 79 125 251 109 129 252 33 130 253 85 122 254 112 131 255 37 12 256 71 11 257 84 59 258 81 124 259 80 60 260 73 99 261 79 125 262 72 126 263 135 132 264 82 132 265 83 132 266 78 58 267 137 128 268 79 125 269 110 100 270 85 122 271 84 59 272 70 133 273 112 131 274 71 11 275 101 134 276 20 66 277 97 135 278 19 123 279 88 136 280 95 137 281 129 138 282 29 138 283 98 138 284 133 139 285 95 137 286 132 140 287 104 141 288 30 64 289 101 134 290 108 142 291 87 143 292 107 144 293 100 95 294 97 135 295 96 62 296 89 61 297 95 137 298 88 136 299 130 145 300 98 145 301 99 145 302 94 63 303 132 140 304 95 137 305 105 146 306 101 134 307 100 95 308 86 147 309 107 144 310 87 143 311 31 148 312 102 149 313 103 90 314 92 150 315 103 150 316 104 150 317 93 151 318 104 151 319 105 151 320 86 147 321 105 146 322 106 94 323 106 94 324 88 136 325 107 144 326 107 144 327 33 130 328 108 142 329 76 152 330 108 152 331 109 152 332 77 153 333 109 153 334 110 153 335 111 154 336 77 155 337 110 100 338 111 154 339 72 126 340 112 131 341 72 126 342 113 156 343 112 131 344 40 157 345 113 156 346 114 106 347 115 158 348 40 158 349 114 158 350 23 159 351 115 159 352 116 159 353 117 160 354 23 160 355 116 160 356 117 161 357 64 71 358 118 162 359 64 71 360 119 112 361 118 162 362 120 163 363 43 163 364 119 163 365 121 164 366 46 164 367 120 164 368 60 165 369 121 84 370 122 77 371 50 166 372 122 77 373 123 115 374 123 115 375 52 80 376 124 167 377 124 167 378 48 120 379 125 168 380 4 169 381 125 169 382 126 169 383 20 66 384 127 88 385 128 170 386 97 171 387 128 171 388 129 171 389 96 62 390 129 172 391 130 93 392 99 173 393 131 174 394 130 93 395 131 174 396 90 175 397 132 140 398 132 140 399 32 176 400 133 139 401 81 177 402 133 177 403 134 177 404 80 60 405 134 178 406 135 98 407 135 98 408 75 179 409 136 97 410 136 97 411 74 180 412 137 128 413 74 180 414 138 181 415 137 128 416 17 57 417 138 181 418 139 103 419 140 182 420 17 182 421 139 182 422 15 50 423 140 183 424 141 184 425 141 184 426 67 185 427 142 51 428 142 51 429 66 6 430 143 47 431 66 186 432 144 186 433 143 186 434 145 187 435 12 46 436 144 188 437 146 189 438 11 44 439 145 187 440 9 40 441 146 189 442 147 39 443 57 81 444 148 190 445 147 39 446 148 191 447 54 191 448 149 191 449 149 192 450 47 192 451 150 192 452 5 34 453 150 36 454 151 193 455 3 32 456 158 194 457 200 195 458 152 196 459 159 197 460 158 194 461 153 198 462 160 199 463 159 197 464 155 200 465 160 199 466 154 201 467 210 202 468 162 203 469 211 204 470 197 205 471 162 203 472 163 206 473 194 207 474 163 206 475 164 208 476 178 209 477 164 208 478 173 210 479 178 209 480 166 211 481 165 212 482 179 213 483 167 214 484 166 211 485 177 215 486 168 216 487 176 217 488 191 218 489 168 218 490 169 218 491 191 219 492 170 220 493 188 221 494 236 222 495 230 223 496 232 224 497 241 225 498 248 226 499 252 227 500 182 228 501 21 65 502 27 91 503 270 229 504 214 229 505 215 229 506 268 230 507 176 217 508 267 231 509 165 212 510 217 232 511 216 233 512 180 234 513 220 234 514 254 234 515 195 235 516 270 235 517 215 235 518 266 236 519 176 236 520 191 236 521 194 207 522 165 212 523 216 233 524 278 237 525 220 237 526 190 237 527 276 238 528 202 238 529 203 238 530 274 239 531 211 204 532 273 240 533 159 197 534 205 241 535 204 242 536 155 200 537 208 17 538 156 243 539 277 244 540 203 244 541 201 244 542 272 245 543 211 204 544 197 205 545 158 194 546 204 242 547 200 195 548 157 246 549 208 246 550 196 246 551 351 247 552 352 247 553 0 247 554 127 88 555 181 248 556 26 89 557 255 249 558 27 91 559 102 149 560 292 250 561 28 250 562 293 250 563 352 251 564 353 251 565 0 251 566 246 252 567 282 253 568 248 226 569 258 254 570 252 227 571 257 255 572 291 256 573 183 256 574 292 256 575 353 257 576 338 257 577 0 257 578 288 258 579 232 224 580 230 223 581 262 259 582 225 260 583 236 222 584 291 31 585 189 31 586 186 31 587 338 261 588 339 261 589 0 261 590 278 262 591 187 26 592 279 263 593 266 264 594 188 221 595 265 265 596 305 266 597 189 266 598 290 266 599 339 267 600 340 267 601 0 267 602 166 211 603 177 215 604 217 232 605 268 230 606 217 232 607 177 215 608 305 268 609 195 268 610 192 268 611 340 269 612 341 269 613 0 269 614 173 270 615 196 270 616 193 270 617 271 271 618 197 205 619 194 207 620 304 31 621 198 31 622 195 31 623 341 272 624 342 272 625 0 272 626 205 241 627 161 273 628 210 202 629 275 274 630 210 202 631 274 239 632 303 31 633 201 31 634 198 31 635 342 275 636 343 275 637 0 275 638 151 276 639 199 276 640 152 276 641 126 119 642 200 195 643 277 277 644 301 31 645 201 31 646 302 31 647 171 278 648 237 279 649 233 280 650 188 221 651 231 281 652 224 282 653 184 283 654 286 283 655 234 283 656 170 220 657 289 284 658 231 281 659 185 285 660 261 286 661 237 279 662 189 287 663 264 288 664 223 289 665 236 222 666 233 280 667 237 279 668 231 281 669 225 260 670 224 282 671 287 290 672 234 290 673 286 290 674 289 284 675 230 223 676 231 281 677 262 259 678 237 279 679 261 286 680 264 288 681 222 291 682 223 289 683 172 292 684 253 293 685 249 294 686 171 278 687 240 295 688 185 285 689 181 296 690 281 296 691 250 296 692 285 297 693 247 298 694 171 278 695 182 228 696 256 299 697 253 293 698 260 300 699 239 301 700 186 302 701 252 227 702 249 294 703 253 293 704 247 298 705 241 225 706 240 295 707 282 303 708 250 303 709 281 303 710 284 304 711 246 252 712 247 298 713 257 255 714 253 293 715 256 299 716 259 305 717 238 306 718 239 301 719 183 307 720 102 149 721 28 308 722 244 309 723 255 309 724 183 309 725 245 310 726 256 310 727 244 310 728 238 306 729 257 255 730 245 311 731 240 295 732 258 254 733 259 305 734 185 285 735 259 305 736 260 300 737 228 312 738 260 312 739 186 312 740 229 313 741 261 313 742 228 313 743 229 314 744 263 315 745 262 259 746 224 282 747 263 315 748 264 288 749 224 282 750 265 265 751 188 221 752 192 316 753 265 265 754 189 287 755 192 317 756 267 317 757 266 317 758 175 318 759 267 318 760 174 318 761 175 319 762 269 319 763 268 319 764 216 233 765 269 320 766 270 321 767 216 233 768 271 271 769 194 207 770 195 322 771 272 322 772 271 322 773 198 323 774 273 323 775 272 323 776 212 324 777 273 240 778 213 21 779 202 325 780 274 239 781 212 324 782 204 242 783 275 274 784 276 326 785 200 195 786 276 326 787 277 277 788 4 327 789 277 327 790 201 327 791 172 292 792 127 88 793 21 65 794 249 328 795 280 328 796 172 328 797 248 226 798 281 329 799 249 294 800 251 330 801 283 331 802 243 332 803 242 333 804 283 331 805 284 304 806 184 334 807 284 304 808 285 297 809 233 335 810 285 335 811 171 335 812 232 224 813 286 336 814 233 280 815 227 337 816 287 338 817 288 258 818 226 28 819 288 258 820 289 284 821 226 28 822 279 263 823 187 26 824 169 339 825 279 263 826 170 220 827 169 340 828 254 340 829 278 340 830 167 214 831 254 341 832 168 216 833 219 342 834 180 343 835 179 213 836 218 24 837 179 213 838 178 209 839 218 344 840 173 344 841 193 344 842 164 208 843 157 345 844 173 210 845 163 206 846 156 243 847 157 345 848 161 273 849 156 243 850 162 203 851 209 346 852 154 201 853 207 18 854 206 347 855 154 347 856 153 347 857 199 348 858 153 348 859 152 348 860 5 34 861 152 196 862 158 194 863 307 31 864 290 31 865 291 31 866 292 349 867 307 349 868 291 349 869 293 31 870 308 31 871 292 31 872 310 31 873 293 31 874 294 31 875 311 350 876 294 350 877 295 350 878 296 31 879 311 31 880 295 31 881 313 351 882 296 351 883 297 351 884 298 352 885 313 352 886 297 352 887 299 353 888 314 353 889 298 353 890 300 31 891 315 31 892 299 31 893 317 354 894 300 354 895 301 354 896 302 355 897 317 355 898 301 355 899 319 31 900 302 31 901 303 31 902 320 356 903 303 356 904 304 356 905 321 357 906 304 357 907 305 357 908 290 358 909 321 358 910 305 358 911 307 359 912 1 359 913 306 359 914 308 31 915 1 31 916 307 31 917 309 31 918 1 31 919 308 31 920 310 31 921 1 31 922 309 31 923 311 31 924 1 31 925 310 31 926 312 31 927 1 31 928 311 31 929 313 31 930 1 31 931 312 31 932 314 360 933 1 360 934 313 360 935 315 361 936 1 361 937 314 361 938 316 31 939 1 31 940 315 31 941 317 31 942 1 31 943 316 31 944 318 31 945 1 31 946 317 31 947 319 31 948 1 31 949 318 31 950 320 362 951 1 362 952 319 362 953 321 363 954 1 363 955 320 363 956 306 364 957 1 364 958 321 364 959 323 365 960 187 365 961 322 365 962 181 366 963 323 366 964 324 366 965 26 367 966 324 367 967 325 367 968 326 368 969 26 368 970 325 368 971 327 369 972 29 369 973 326 369 974 35 370 975 327 370 976 328 370 977 329 371 978 35 371 979 328 371 980 41 372 981 329 372 982 330 372 983 44 373 984 330 373 985 331 373 986 47 374 987 331 374 988 332 374 989 333 375 990 47 375 991 332 375 992 199 376 993 333 376 994 334 376 995 335 377 996 199 377 997 334 377 998 336 378 999 196 16 1000 335 379 1001 337 380 1002 193 380 1003 336 380 1004 187 381 1005 337 381 1006 322 381 1007 322 382 1008 339 382 1009 338 382 1010 339 383 1011 336 383 1012 340 383 1013 340 384 1014 335 384 1015 341 384 1016 341 385 1017 334 385 1018 342 385 1019 334 386 1020 343 386 1021 342 386 1022 343 387 1023 332 387 1024 344 387 1025 332 388 1026 345 388 1027 344 388 1028 331 389 1029 346 389 1030 345 389 1031 330 390 1032 347 390 1033 346 390 1034 347 391 1035 328 391 1036 348 391 1037 328 392 1038 349 392 1039 348 392 1040 349 393 1041 326 393 1042 350 393 1043 350 394 1044 325 394 1045 351 394 1046 325 395 1047 352 395 1048 351 395 1049 324 396 1050 353 396 1051 352 396 1052 353 397 1053 322 397 1054 338 397 1055 54 398 1056 55 398 1057 57 398 1058 54 2 1059 57 81 1060 56 0 1061 44 1 1062 47 399 1063 54 2 1064 61 31 1065 60 31 1066 50 31 1067 50 400 1068 51 400 1069 49 400 1070 50 401 1071 49 401 1072 46 401 1073 66 6 1074 67 185 1075 68 402 1076 67 185 1077 69 403 1078 68 402 1079 68 402 1080 38 4 1081 66 6 1082 22 31 1083 23 31 1084 62 31 1085 22 9 1086 62 404 1087 63 7 1088 63 7 1089 43 405 1090 40 8 1091 74 406 1092 75 406 1093 83 406 1094 83 407 1095 82 407 1096 32 407 1097 83 408 1098 32 408 1099 35 408 1100 76 31 1101 77 31 1102 70 31 1103 76 13 1104 70 133 1105 71 11 1106 37 409 1107 34 409 1108 76 409 1109 90 410 1110 91 410 1111 32 410 1112 91 411 1113 99 411 1114 29 411 1115 99 412 1116 98 412 1117 29 412 1118 92 31 1119 93 31 1120 31 31 1121 93 31 1122 86 31 1123 31 31 1124 86 31 1125 87 31 1126 34 31 1127 206 413 1128 199 413 1129 207 413 1130 199 414 1131 196 16 1132 207 18 1133 208 17 1134 209 346 1135 207 18 1136 198 415 1137 201 415 1138 203 415 1139 203 31 1140 202 31 1141 212 31 1142 203 20 1143 212 324 1144 213 21 1145 220 23 1146 221 416 1147 219 342 1148 220 23 1149 219 342 1150 218 24 1151 218 24 1152 193 417 1153 190 22 1154 215 418 1155 214 419 1156 174 420 1157 214 419 1158 175 421 1159 174 420 1160 174 420 1161 192 422 1162 215 418 1163 187 423 1164 184 423 1165 234 423 1166 234 424 1167 235 424 1168 227 424 1169 234 27 1170 227 337 1171 226 28 1172 228 31 1173 186 31 1174 229 31 1175 186 31 1176 189 31 1177 229 31 1178 223 31 1179 222 31 1180 229 31 1181 242 425 1182 184 425 1183 243 425 1184 184 426 1185 181 426 1186 243 426 1187 181 427 1188 250 427 1189 251 427 1190 244 31 1191 183 31 1192 245 31 1193 183 428 1194 186 428 1195 238 428 1196 186 31 1197 239 31 1198 238 31 1199 3 32 1200 48 120 1201 6 33 1202 7 35 1203 149 38 1204 150 36 1205 8 37 1206 148 190 1207 149 38 1208 147 39 1209 148 190 1210 8 37 1211 58 41 1212 59 78 1213 10 42 1214 10 42 1215 59 78 1216 45 43 1217 11 44 1218 45 43 1219 42 45 1220 143 47 1221 144 188 1222 12 46 1223 14 49 1224 142 51 1225 143 47 1226 15 50 1227 141 184 1228 142 51 1229 25 52 1230 24 69 1231 16 53 1232 16 429 1233 24 429 1234 39 429 1235 39 55 1236 36 107 1237 18 56 1238 78 58 1239 73 99 1240 84 59 1241 89 61 1242 100 95 1243 96 62 1244 30 64 1245 27 91 1246 21 65 1247 62 430 1248 117 430 1249 118 430 1250 116 68 1251 115 431 1252 24 69 1253 65 70 1254 14 49 1255 13 48 1256 141 432 1257 140 432 1258 68 432 1259 118 433 1260 119 433 1261 43 433 1262 114 434 1263 39 434 1264 24 434 1265 13 48 1266 12 46 1267 42 45 1268 139 435 1269 38 435 1270 68 435 1271 50 436 1272 123 436 1273 124 436 1274 122 77 1275 121 84 1276 59 78 1277 53 79 1278 8 37 1279 7 35 1280 147 39 1281 146 189 1282 56 0 1283 125 437 1284 49 437 1285 51 437 1286 120 83 1287 45 43 1288 59 78 1289 6 33 1290 48 120 1291 52 80 1292 145 438 1293 44 438 1294 56 438 1295 29 87 1296 128 170 1297 127 88 1298 103 90 1299 102 149 1300 27 91 1301 294 439 1302 293 439 1303 28 439 1304 130 93 1305 131 174 1306 94 63 1307 106 94 1308 105 146 1309 100 95 1310 295 440 1311 294 440 1312 31 440 1313 136 97 1314 78 58 1315 80 60 1316 73 99 1317 111 154 1318 110 100 1319 37 441 1320 296 441 1321 295 441 1322 139 103 1323 138 181 1324 35 104 1325 114 106 1326 113 156 1327 36 107 1328 297 442 1329 296 442 1330 37 442 1331 14 49 1332 65 70 1333 25 52 1334 65 70 1335 117 161 1336 116 68 1337 43 443 1338 298 443 1339 297 443 1340 44 444 1341 145 444 1342 144 444 1343 45 43 1344 120 83 1345 119 112 1346 46 31 1347 299 31 1348 298 31 1349 9 40 1350 8 37 1351 53 79 1352 123 115 1353 122 77 1354 58 41 1355 49 445 1356 300 445 1357 299 445 1358 151 446 1359 150 446 1360 47 446 1361 126 119 1362 125 168 1363 48 120 1364 301 31 1365 300 31 1366 49 31 1367 85 122 1368 33 130 1369 19 123 1370 79 125 1371 18 56 1372 36 107 1373 134 447 1374 133 447 1375 32 447 1376 137 128 1377 138 181 1378 18 56 1379 109 129 1380 108 142 1381 33 130 1382 112 131 1383 113 156 1384 37 12 1385 84 59 1386 85 122 1387 81 124 1388 73 99 1389 78 58 1390 79 125 1391 135 448 1392 134 448 1393 82 448 1394 78 58 1395 136 97 1396 137 128 1397 110 100 1398 109 129 1399 85 122 1400 70 133 1401 111 154 1402 112 131 1403 101 134 1404 30 64 1405 20 66 1406 19 123 1407 33 130 1408 88 136 1409 129 449 1410 128 449 1411 29 449 1412 133 139 1413 19 123 1414 95 137 1415 104 141 1416 103 90 1417 30 64 1418 108 142 1419 34 450 1420 87 143 1421 100 95 1422 101 134 1423 97 135 1424 89 61 1425 94 63 1426 95 137 1427 130 451 1428 129 451 1429 98 451 1430 94 63 1431 131 174 1432 132 140 1433 105 146 1434 104 141 1435 101 134 1436 86 147 1437 106 94 1438 107 144 1439 31 148 1440 28 308 1441 102 149 1442 92 452 1443 31 452 1444 103 452 1445 93 453 1446 92 453 1447 104 453 1448 86 147 1449 93 454 1450 105 146 1451 106 94 1452 89 61 1453 88 136 1454 107 144 1455 88 136 1456 33 130 1457 76 455 1458 34 455 1459 108 455 1460 77 456 1461 76 456 1462 109 456 1463 111 154 1464 70 133 1465 77 155 1466 111 154 1467 73 99 1468 72 126 1469 72 126 1470 36 107 1471 113 156 1472 40 157 1473 37 12 1474 113 156 1475 115 457 1476 22 457 1477 40 457 1478 23 458 1479 22 458 1480 115 458 1481 117 459 1482 62 459 1483 23 459 1484 117 161 1485 65 70 1486 64 71 1487 64 71 1488 42 45 1489 119 112 1490 120 460 1491 46 460 1492 43 460 1493 121 461 1494 61 461 1495 46 461 1496 60 165 1497 61 462 1498 121 84 1499 50 166 1500 60 165 1501 122 77 1502 123 115 1503 53 79 1504 52 80 1505 124 167 1506 52 80 1507 48 120 1508 4 463 1509 49 463 1510 125 463 1511 20 66 1512 21 65 1513 127 88 1514 97 464 1515 20 464 1516 128 464 1517 96 62 1518 97 135 1519 129 172 1520 99 173 1521 91 465 1522 131 174 1523 131 174 1524 91 465 1525 90 175 1526 132 140 1527 90 175 1528 32 176 1529 81 466 1530 19 466 1531 133 466 1532 80 60 1533 81 124 1534 134 178 1535 135 98 1536 83 467 1537 75 179 1538 136 97 1539 75 179 1540 74 180 1541 74 180 1542 35 104 1543 138 181 1544 17 57 1545 18 56 1546 138 181 1547 140 468 1548 16 468 1549 17 468 1550 15 50 1551 16 53 1552 140 183 1553 141 184 1554 69 403 1555 67 185 1556 142 51 1557 67 185 1558 66 6 1559 66 469 1560 41 469 1561 144 469 1562 145 187 1563 11 44 1564 12 46 1565 146 189 1566 10 42 1567 11 44 1568 9 40 1569 10 42 1570 146 189 1571 57 81 1572 55 470 1573 148 190 1574 148 471 1575 55 471 1576 54 471 1577 149 472 1578 54 472 1579 47 472 1580 5 34 1581 6 33 1582 150 36 1583 3 32 1584 5 34 1585 158 194 1586 152 196 1587 153 198 1588 159 197 1589 153 198 1590 154 201 1591 160 199 1592 155 200 1593 161 273 1594 160 199 1595 210 202 1596 161 273 1597 162 203 1598 197 205 1599 211 204 1600 162 203 1601 194 207 1602 197 205 1603 163 206 1604 178 209 1605 165 212 1606 164 208 1607 178 209 1608 179 213 1609 166 211 1610 179 213 1611 180 343 1612 167 214 1613 177 215 1614 167 214 1615 168 216 1616 191 473 1617 176 473 1618 168 473 1619 191 219 1620 169 339 1621 170 220 1622 236 222 1623 225 260 1624 230 223 1625 241 225 1626 246 252 1627 248 226 1628 182 228 1629 172 292 1630 21 65 1631 270 474 1632 269 474 1633 214 474 1634 268 230 1635 177 215 1636 176 217 1637 165 212 1638 166 211 1639 217 232 1640 180 475 1641 221 475 1642 220 475 1643 195 476 1644 271 476 1645 270 476 1646 266 477 1647 267 477 1648 176 477 1649 194 207 1650 164 208 1651 165 212 1652 278 478 1653 254 478 1654 220 478 1655 276 479 1656 275 479 1657 202 479 1658 274 239 1659 210 202 1660 211 204 1661 159 197 1662 160 199 1663 205 241 1664 155 200 1665 209 346 1666 208 17 1667 277 480 1668 276 480 1669 203 480 1670 272 245 1671 273 240 1672 211 204 1673 158 194 1674 159 197 1675 204 242 1676 157 481 1677 156 481 1678 208 481 1679 127 88 1680 280 482 1681 181 248 1682 255 249 1683 182 228 1684 27 91 1685 292 31 1686 183 31 1687 28 31 1688 246 252 1689 283 331 1690 282 253 1691 258 254 1692 241 225 1693 252 227 1694 291 31 1695 186 31 1696 183 31 1697 288 258 1698 287 338 1699 232 224 1700 262 259 1701 263 315 1702 225 260 1703 291 483 1704 290 483 1705 189 483 1706 278 262 1707 190 484 1708 187 26 1709 266 264 1710 191 219 1711 188 221 1712 305 31 1713 192 31 1714 189 31 1715 166 211 1716 167 214 1717 177 215 1718 268 230 1719 269 320 1720 217 232 1721 305 485 1722 304 485 1723 195 485 1724 173 486 1725 157 486 1726 196 486 1727 271 271 1728 272 245 1729 197 205 1730 304 487 1731 303 487 1732 198 487 1733 205 241 1734 160 199 1735 161 273 1736 275 274 1737 205 241 1738 210 202 1739 303 488 1740 302 488 1741 201 488 1742 151 489 1743 2 489 1744 199 489 1745 126 119 1746 3 32 1747 200 195 1748 301 490 1749 4 490 1750 201 490 1751 171 278 1752 185 285 1753 237 279 1754 188 221 1755 170 220 1756 231 281 1757 184 491 1758 285 491 1759 286 491 1760 170 220 1761 279 263 1762 289 284 1763 185 285 1764 260 300 1765 261 286 1766 189 287 1767 265 265 1768 264 288 1769 236 222 1770 232 224 1771 233 280 1772 231 281 1773 230 223 1774 225 260 1775 287 492 1776 235 492 1777 234 492 1778 289 284 1779 288 258 1780 230 223 1781 262 259 1782 236 222 1783 237 279 1784 264 288 1785 263 315 1786 222 291 1787 172 292 1788 182 228 1789 253 293 1790 171 278 1791 247 298 1792 240 295 1793 181 493 1794 280 493 1795 281 493 1796 285 297 1797 284 304 1798 247 298 1799 182 228 1800 255 249 1801 256 299 1802 260 300 1803 259 305 1804 239 301 1805 252 227 1806 248 226 1807 249 294 1808 247 298 1809 246 252 1810 241 225 1811 282 494 1812 251 494 1813 250 494 1814 284 304 1815 283 331 1816 246 252 1817 257 255 1818 252 227 1819 253 293 1820 259 305 1821 258 254 1822 238 306 1823 183 307 1824 255 249 1825 102 149 1826 244 495 1827 256 495 1828 255 495 1829 245 496 1830 257 496 1831 256 496 1832 238 306 1833 258 254 1834 257 255 1835 240 295 1836 241 225 1837 258 254 1838 185 285 1839 240 295 1840 259 305 1841 228 497 1842 261 497 1843 260 497 1844 229 498 1845 262 498 1846 261 498 1847 229 314 1848 222 291 1849 263 315 1850 224 282 1851 225 260 1852 263 315 1853 224 282 1854 264 288 1855 265 265 1856 192 316 1857 266 264 1858 265 265 1859 192 499 1860 174 499 1861 267 499 1862 175 500 1863 268 500 1864 267 500 1865 175 501 1866 214 501 1867 269 501 1868 216 233 1869 217 232 1870 269 320 1871 216 233 1872 270 321 1873 271 271 1874 195 502 1875 198 502 1876 272 502 1877 198 503 1878 213 503 1879 273 503 1880 212 324 1881 274 239 1882 273 240 1883 202 325 1884 275 274 1885 274 239 1886 204 242 1887 205 241 1888 275 274 1889 200 195 1890 204 242 1891 276 326 1892 4 504 1893 126 504 1894 277 504 1895 172 292 1896 280 482 1897 127 88 1898 249 505 1899 281 505 1900 280 505 1901 248 226 1902 282 253 1903 281 329 1904 251 330 1905 282 253 1906 283 331 1907 242 333 1908 243 332 1909 283 331 1910 184 334 1911 242 333 1912 284 304 1913 233 506 1914 286 506 1915 285 506 1916 232 224 1917 287 338 1918 286 336 1919 227 337 1920 235 507 1921 287 338 1922 226 28 1923 227 337 1924 288 258 1925 226 28 1926 289 284 1927 279 263 1928 169 339 1929 278 262 1930 279 263 1931 169 508 1932 168 508 1933 254 508 1934 167 214 1935 180 343 1936 254 341 1937 219 342 1938 221 416 1939 180 343 1940 218 24 1941 219 342 1942 179 213 1943 218 509 1944 178 509 1945 173 509 1946 164 208 1947 163 206 1948 157 345 1949 163 206 1950 162 203 1951 156 243 1952 161 273 1953 155 200 1954 156 243 1955 209 346 1956 155 200 1957 154 201 1958 206 510 1959 207 510 1960 154 510 1961 199 511 1962 206 511 1963 153 511 1964 5 34 1965 151 193 1966 152 196 1967 307 31 1968 306 31 1969 290 31 1970 292 512 1971 308 512 1972 307 512 1973 293 513 1974 309 513 1975 308 513 1976 310 31 1977 309 31 1978 293 31 1979 311 31 1980 310 31 1981 294 31 1982 296 514 1983 312 514 1984 311 514 1985 313 31 1986 312 31 1987 296 31 1988 298 515 1989 314 515 1990 313 515 1991 299 516 1992 315 516 1993 314 516 1994 300 517 1995 316 517 1996 315 517 1997 317 518 1998 316 518 1999 300 518 2000 302 519 2001 318 519 2002 317 519 2003 319 520 2004 318 520 2005 302 520 2006 320 31 2007 319 31 2008 303 31 2009 321 521 2010 320 521 2011 304 521 2012 290 31 2013 306 31 2014 321 31 2015 323 522 2016 184 522 2017 187 522 2018 181 523 2019 184 523 2020 323 523 2021 26 524 2022 181 524 2023 324 524 2024 326 525 2025 29 525 2026 26 525 2027 327 526 2028 32 526 2029 29 526 2030 35 527 2031 32 527 2032 327 527 2033 329 528 2034 38 528 2035 35 528 2036 41 529 2037 38 529 2038 329 529 2039 44 530 2040 41 530 2041 330 530 2042 47 531 2043 44 531 2044 331 531 2045 333 532 2046 2 532 2047 47 532 2048 199 533 2049 2 533 2050 333 533 2051 335 379 2052 196 16 2053 199 414 2054 336 378 2055 193 534 2056 196 16 2057 337 535 2058 190 535 2059 193 535 2060 187 536 2061 190 536 2062 337 536 2063 322 537 2064 337 537 2065 339 537 2066 339 538 2067 337 538 2068 336 538 2069 340 539 2070 336 539 2071 335 539 2072 341 540 2073 335 540 2074 334 540 2075 334 541 2076 333 541 2077 343 541 2078 343 542 2079 333 542 2080 332 542 2081 332 543 2082 331 543 2083 345 543 2084 331 544 2085 330 544 2086 346 544 2087 330 545 2088 329 545 2089 347 545 2090 347 546 2091 329 546 2092 328 546 2093 328 547 2094 327 547 2095 349 547 2096 349 548 2097 327 548 2098 326 548 2099 350 549 2100 326 549 2101 325 549 2102 325 550 2103 324 550 2104 352 550 2105 324 551 2106 323 551 2107 353 551 2108 353 552 2109 323 552 2110 322 552 2111</p>
        </triangles>
      </mesh>
    </geometry>
  </library_geometries>
  <library_visual_scenes>
    <visual_scene id="Scene" name="Scene">
      <node id="tree_stump" name="tree_stump" type="NODE">
        <matrix sid="transform">0.005937 0 0 1.16273e-7 0 -0.02644057 1.72379e-4 -3.07117e-8 0 -8.21525e-4 -0.00554799 -0.03751183 0 0 0 1</matrix>
        <instance_geometry url="#Mesh-mesh" name="tree_stump">
          <bind_material>
            <technique_common>
              <instance_material symbol="Material_001-material" target="#Material_001-material">
                <bind_vertex_input semantic="Mesh-mesh-map-0" input_semantic="TEXCOORD" input_set="0"/>
              </instance_material>
            </technique_common>
          </bind_material>
        </instance_geometry>
      </node>
    </visual_scene>
  </library_visual_scenes>
  <scene>
    <instance_visual_scene url="#Scene"/>
  </scene>
</COLLADA>