<?xml version='1.0' encoding='utf-8'?>
<COLLADA xmlns="http://www.collada.org/2005/11/COLLADASchema" version="1.4.1">
  <asset>
    <contributor>
      <author>Blender User</author>
      <authoring_tool>Blender 4.0.1 commit date:2023-11-16, commit time:16:40, hash:d0dd92834a08</authoring_tool>
    </contributor>
    <created>2025-10-03T17:02:26</created>
    <modified>2025-10-03T17:02:26</modified>
    <unit name="meter" meter="1" />
    <up_axis>Z_UP</up_axis>
  </asset>
  <library_effects>
    <effect id="preto_003-effect">
      <profile_COMMON>
        <technique sid="common">
          <phong><emission>
              <color sid="emission">0 0 0 1</color>
            <color>0.45 0.45 0.45 1.0</color></emission>
            <ambient><color>1.0 1.0 1.0 1.0</color></ambient><diffuse><texture texture="flat_000000ff-sampler" texcoord="CHANNEL0" /></diffuse><specular><color>0.20 0.20 0.20 1.0</color></specular><shininess><float>30.0</float></shininess></phong></technique>
      <newparam sid="flat_000000ff-surface"><surface type="2D"><init_from>flat_000000ff</init_from></surface></newparam><newparam sid="flat_000000ff-sampler"><sampler2D><source>flat_000000ff-surface</source></sampler2D></newparam></profile_COMMON>
    </effect>
    <effect id="cinza_003-effect">
      <profile_COMMON>
        <technique sid="common">
          <phong><emission>
              <color sid="emission">0 0 0 1</color>
            <color>0.45 0.45 0.45 1.0</color></emission>
            <ambient><color>1.0 1.0 1.0 1.0</color></ambient><diffuse><texture texture="flat_8a8d96ff-sampler" texcoord="CHANNEL0" /></diffuse><specular><color>0.20 0.20 0.20 1.0</color></specular><shininess><float>30.0</float></shininess></phong></technique>
      <newparam sid="flat_8a8d96ff-surface"><surface type="2D"><init_from>flat_8a8d96ff</init_from></surface></newparam><newparam sid="flat_8a8d96ff-sampler"><sampler2D><source>flat_8a8d96ff-surface</source></sampler2D></newparam></profile_COMMON>
    </effect>
    <effect id="vermelho_003-effect">
      <profile_COMMON>
        <technique sid="common">
          <phong><emission>
              <color sid="emission">0 0 0 1</color>
            <color>0.45 0.45 0.45 1.0</color></emission>
            <ambient><color>1.0 1.0 1.0 1.0</color></ambient><diffuse><texture texture="flat_fe2e00ff-sampler" texcoord="CHANNEL0" /></diffuse><specular><color>0.20 0.20 0.20 1.0</color></specular><shininess><float>30.0</float></shininess></phong></technique>
      <newparam sid="flat_fe2e00ff-surface"><surface type="2D"><init_from>flat_fe2e00ff</init_from></surface></newparam><newparam sid="flat_fe2e00ff-sampler"><sampler2D><source>flat_fe2e00ff-surface</source></sampler2D></newparam></profile_COMMON>
    </effect>
    <effect id="branco_003-effect">
      <profile_COMMON>
        <technique sid="common">
          <phong><emission>
              <color sid="emission">0 0 0 1</color>
            <color>0.45 0.45 0.45 1.0</color></emission>
            <ambient><color>1.0 1.0 1.0 1.0</color></ambient><diffuse><texture texture="flat_fefefeff-sampler" texcoord="CHANNEL0" /></diffuse><specular><color>0.20 0.20 0.20 1.0</color></specular><shininess><float>30.0</float></shininess></phong></technique>
      <newparam sid="flat_fefefeff-surface"><surface type="2D"><init_from>flat_fefefeff</init_from></surface></newparam><newparam sid="flat_fefefeff-sampler"><sampler2D><source>flat_fefefeff-surface</source></sampler2D></newparam></profile_COMMON>
    </effect>
    <effect id="laranja_003-effect">
      <profile_COMMON>
        <technique sid="common">
          <phong><emission>
              <color sid="emission">0 0 0 1</color>
            <color>0.45 0.45 0.45 1.0</color></emission>
            <ambient><color>1.0 1.0 1.0 1.0</color></ambient><diffuse><texture texture="flat_feae21ff-sampler" texcoord="CHANNEL0" /></diffuse><specular><color>0.20 0.20 0.20 1.0</color></specular><shininess><float>30.0</float></shininess></phong></technique>
      <newparam sid="flat_feae21ff-surface"><surface type="2D"><init_from>flat_feae21ff</init_from></surface></newparam><newparam sid="flat_feae21ff-sampler"><sampler2D><source>flat_feae21ff-surface</source></sampler2D></newparam></profile_COMMON>
    </effect>
  </library_effects>
  <library_images><image id="flat_000000ff" name="flat_000000ff"><init_from>flat_000000ff.png</init_from></image><image id="flat_8a8d96ff" name="flat_8a8d96ff"><init_from>flat_8a8d96ff.png</init_from></image><image id="flat_fe2e00ff" name="flat_fe2e00ff"><init_from>flat_fe2e00ff.png</init_from></image><image id="flat_fefefeff" name="flat_fefefeff"><init_from>flat_fefefeff.png</init_from></image><image id="flat_feae21ff" name="flat_feae21ff"><init_from>flat_feae21ff.png</init_from></image></library_images>
  <library_materials>
    <material id="preto_003-material" name="preto.003">
      <instance_effect url="#preto_003-effect" />
    </material>
    <material id="cinza_003-material" name="cinza.003">
      <instance_effect url="#cinza_003-effect" />
    </material>
    <material id="vermelho_003-material" name="vermelho.003">
      <instance_effect url="#vermelho_003-effect" />
    </material>
    <material id="branco_003-material" name="branco.003">
      <instance_effect url="#branco_003-effect" />
    </material>
    <material id="laranja_003-material" name="laranja.003">
      <instance_effect url="#laranja_003-effect" />
    </material>
  </library_materials>
  <library_geometries>
    <geometry id="logboom_017-mesh" name="logboom.017">
      <mesh>
        <source id="logboom_017-mesh-positions">
          <float_array id="logboom_017-mesh-positions-array" count="192">-3.511963 1.180115 1.642349 -2.111694 0.2321166 7.413719 -3.301147 1.729187 1.681396 -1.900879 0.781189 7.452766 -2.990417 2.230103 1.688282 -1.590149 1.282104 7.459652 -2.591675 2.663452 1.66272 -1.191406 1.715454 7.43409 -2.120239 3.012756 1.605728 -0.7199707 2.064758 7.377098 -1.594177 3.264465 1.519436 -0.1939697 2.316406 7.290806 -1.033874 3.408874 1.407211 0.3663941 2.460815 7.178581 -0.4606323 3.440552 1.273338 0.9396362 2.492554 7.044708 0.1033325 3.358215 1.122982 1.503601 2.410217 6.894352 0.6364746 3.164978 0.961895 2.036682 2.21698 6.733265 1.118225 2.868408 0.7962895 2.518494 1.92041 6.567657 1.53009 2.479797 0.632534 2.930359 1.531799 6.403904 1.856262 2.014099 0.4769001 3.25647 1.066101 6.248268 2.084228 1.489258 0.3353748 3.484497 0.5411987 6.106743 2.205139 0.925293 0.2134094 3.605408 -0.02270507 5.984779 2.214355 0.3440552 0.1156806 3.614624 -0.6040039 5.887051 2.111694 -0.2321777 0.04594993 3.511902 -1.180176 5.817322 1.900879 -0.781311 0.006889343 3.301147 -1.729309 5.778259 1.59021 -1.282166 0 2.990478 -2.230164 5.77137 1.191406 -1.715576 0.02556228 2.591675 -2.663574 5.796932 0.7199707 -2.064819 0.08256721 2.120239 -3.012817 5.853935 0.1939086 -2.316467 0.1688594 1.594177 -3.264526 5.940231 -0.3663941 -2.460937 0.2810745 1.033874 -3.408997 6.052444 -0.9396362 -2.492615 0.4149551 0.4606323 -3.440613 6.186325 -1.503601 -2.410278 0.5653133 -0.1033325 -3.358276 6.336685 -2.036743 -2.217102 0.7263889 -0.6364746 -3.1651 6.497757 -2.518433 -1.920471 0.8919926 -1.118164 -2.868469 6.663361 -2.930359 -1.53186 1.055763 -1.53009 -2.479858 6.827133 -3.256531 -1.066162 1.211395 -1.856262 -2.01416 6.982765 -3.484436 -0.5412598 1.352909 -2.084167 -1.489319 7.124279 -3.605408 0.02264404 1.474884 -2.205139 -0.925415 7.246254 -3.614624 0.6038818 1.572601 -2.214416 -0.3441773 7.343971</float_array>
          <technique_common>
            <accessor source="#logboom_017-mesh-positions-array" count="64" stride="3">
              <param name="X" type="float" />
              <param name="Y" type="float" />
              <param name="Z" type="float" />
            </accessor>
          </technique_common>
        </source>
        <source id="logboom_017-mesh-normals">
          <float_array id="logboom_017-mesh-normals-array" count="192">-0.5209828 0.06286066 0.8512495 -0.7892624 0.4119561 -0.4553646 -0.8403019 0.2790223 -0.4648002 -0.3947684 0.3170253 0.8623532 -0.7140536 0.5331807 -0.4537023 -0.6175383 0.6380751 -0.4598985 -0.2982354 0.4219003 0.8561868 -0.5034487 0.7226566 -0.4736106 -0.05675822 0.5674093 0.8214774 -0.3760724 0.7835776 -0.4945461 -0.2404289 0.818521 -0.5217446 0.07885724 0.6023187 0.7943512 -0.1016887 0.8261948 -0.5541314 0.3541908 0.5900696 0.7255114 0.03486132 0.8062377 -0.5905637 0.4832015 0.5432934 0.6865484 0.1638957 0.7594822 -0.6295436 0.5997821 0.4715287 0.6464689 0.2804682 0.6876831 -0.6696489 0.3802098 0.5936284 -0.7092574 0.7784444 0.2647274 0.5691606 0.4591414 0.4809296 -0.7469244 0.5143068 0.3538522 -0.7812025 0.833596 0.1376891 0.5349388 0.5436611 0.2172982 -0.8106874 0.8651339 -0.139586 0.4817253 0.5458259 0.07664984 -0.8343854 0.5210799 -0.06285941 -0.8511901 0.7892872 -0.4118954 0.4553767 0.4699618 -0.1957515 -0.8607074 0.3947942 -0.3170306 -0.8623393 0.6175026 -0.6380968 0.4599163 0.2982228 -0.4219308 -0.8561762 0.5034118 -0.7226367 0.47368 0.1840856 -0.5064707 -0.8423777 0.05675989 -0.5673628 -0.8215095 0.3761093 -0.7835397 0.4945779 -0.07884436 -0.60235 -0.7943287 0.1016576 -0.826185 0.5541517 -0.2176171 -0.6100155 -0.7619212 -0.3541406 -0.5900825 -0.7255254 -0.1639688 -0.759535 0.6294609 -0.4832165 -0.5432621 -0.6865625 -0.5998196 -0.4714972 -0.6464573 -0.3802073 -0.5936499 0.7092406 -0.6994947 -0.3774698 -0.6068145 -0.7784795 -0.264715 -0.5691184 -0.4591795 -0.4809092 0.7469141 -0.8336255 -0.1376657 -0.5348988 0.8402895 -0.2790108 0.4648296 -0.280502 -0.6876783 0.6696395 -0.5435914 -0.2173618 0.8107171 -0.862906 -0.001149892 -0.5053633 -0.5458684 -0.07664662 0.8343579 -0.8651409 0.1395389 -0.4817264 -0.4699442 0.1957702 0.8607128 -0.1840901 0.5064015 0.8424182 0.2175761 0.6100402 0.7619132 0.6995064 0.3773676 0.6068645 0.8628991 0.001105964 0.505375 0.7140502 -0.5331698 0.4537205 0.240427 -0.8185179 0.5217505 -0.03482252 -0.8062479 0.5905523 -0.5143162 -0.3538663 0.7811898</float_array>
          <technique_common>
            <accessor source="#logboom_017-mesh-normals-array" count="64" stride="3">
              <param name="X" type="float" />
              <param name="Y" type="float" />
              <param name="Z" type="float" />
            </accessor>
          </technique_common>
        </source>
        <source id="logboom_017-mesh-map-0">
          <float_array id="logboom_017-mesh-map-0-array" count="744">1 1 0.96875 0.5 1 0.5 0.96875 0.5 0.9375 1 0.9375 0.5 0.9375 1 0.90625 0.5 0.9375 0.5 0.90625 1 0.875 0.5 0.90625 0.5 0.875 0.5 0.84375 1 0.84375 0.5 0.84375 1 0.8125 0.5 0.84375 0.5 0.8125 1 0.78125 0.5 0.8125 0.5 0.78125 0.5 0.75 1 0.75 0.5 0.75 0.5 0.71875 1 0.71875 0.5 0.71875 0.5 0.6875 1 0.6875 0.5 0.6875 1 0.65625 0.5 0.6875 0.5 0.65625 0.5 0.625 1 0.625 0.5 0.625 1 0.59375 0.5 0.625 0.5 0.59375 1 0.5625 0.5 0.59375 0.5 0.5625 0.5 0.53125 1 0.53125 0.5 0.53125 1 0.5 0.5 0.53125 0.5 0.5 0.5 0.46875 1 0.46875 0.5 0.46875 1 0.4375 0.5 0.46875 0.5 0.4375 0.5 0.40625 1 0.40625 0.5 0.40625 0.5 0.375 1 0.375 0.5 0.375 1 0.34375 0.5 0.375 0.5 0.34375 1 0.3125 0.5 0.34375 0.5 0.3125 0.5 0.28125 1 0.28125 0.5 0.28125 1 0.25 0.5 0.28125 0.5 0.25 0.5 0.21875 1 0.21875 0.5 0.21875 1 0.1875 0.5 0.21875 0.5 0.1875 0.5 0.15625 1 0.15625 0.5 0.15625 1 0.125 0.5 0.15625 0.5 0.125 1 0.09375 0.5 0.125 0.5 0.25 0.00999999 0.4717311 0.341844 0.02826887 0.341844 0.09375 0.5 0.0625 1 0.0625 0.5 0.0625 0.5 0.03125 1 0.03125 0.5 0.7031784 0.4853885 0.5504473 0.1166631 0.5282689 0.341844 0.03125 1 0 0.5 0.03125 0.5 1 1 0.96875 1 0.96875 0.5 0.96875 0.5 0.96875 1 0.9375 1 0.9375 1 0.90625 1 0.90625 0.5 0.90625 1 0.875 1 0.875 0.5 0.875 0.5 0.875 1 0.84375 1 0.84375 1 0.8125 1 0.8125 0.5 0.8125 1 0.78125 1 0.78125 0.5 0.78125 0.5 0.78125 1 0.75 1 0.75 0.5 0.75 1 0.71875 1 0.71875 0.5 0.71875 1 0.6875 1 0.6875 1 0.65625 1 0.65625 0.5 0.65625 0.5 0.65625 1 0.625 1 0.625 1 0.59375 1 0.59375 0.5 0.59375 1 0.5625 1 0.5625 0.5 0.5625 0.5 0.5625 1 0.53125 1 0.53125 1 0.5 1 0.5 0.5 0.5 0.5 0.5 1 0.46875 1 0.46875 1 0.4375 1 0.4375 0.5 0.4375 0.5 0.4375 1 0.40625 1 0.40625 0.5 0.40625 1 0.375 1 0.375 1 0.34375 1 0.34375 0.5 0.34375 1 0.3125 1 0.3125 0.5 0.3125 0.5 0.3125 1 0.28125 1 0.28125 1 0.25 1 0.25 0.5 0.25 0.5 0.25 1 0.21875 1 0.21875 1 0.1875 1 0.1875 0.5 0.1875 0.5 0.1875 1 0.15625 1 0.15625 1 0.125 1 0.125 0.5 0.125 1 0.09375 1 0.09375 0.5 0.341844 0.4717311 0.2968217 0.4853885 0.3833369 0.4495527 0.2968217 0.4853885 0.25 0.49 0.2031783 0.4853885 0.1166631 0.4495527 0.2031783 0.4853885 0.1581559 0.4717311 0.2968217 0.4853885 0.2031783 0.4853885 0.1166631 0.4495527 0.1166631 0.4495527 0.08029437 0.4197056 0.02826887 0.341844 0.08029437 0.4197056 0.05044728 0.3833369 0.02826887 0.341844 0.02826887 0.341844 0.01461154 0.2968217 0.00999999 0.25 0.00999999 0.25 0.01461154 0.2031783 0.02826887 0.341844 0.01461154 0.2031783 0.02826887 0.1581559 0.05044728 0.1166631 0.02826887 0.341844 0.01461154 0.2031783 0.05044728 0.1166631 0.05044728 0.1166631 0.08029437 0.08029437 0.02826887 0.341844 0.08029437 0.08029437 0.1166631 0.05044728 0.25 0.00999999 0.1166631 0.05044728 0.1581559 0.02826887 0.2031783 0.01461154 0.25 0.00999999 0.1166631 0.05044728 0.2031783 0.01461154 0.25 0.00999999 0.2968217 0.01461154 0.4197056 0.08029437 0.2968217 0.01461154 0.341844 0.02826887 0.4197056 0.08029437 0.341844 0.02826887 0.3833369 0.05044728 0.4197056 0.08029437 0.4197056 0.08029437 0.4495527 0.1166631 0.4717311 0.1581559 0.4717311 0.1581559 0.4853885 0.2031783 0.4197056 0.08029437 0.4853885 0.2031783 0.49 0.25 0.4717311 0.341844 0.49 0.25 0.4853885 0.2968217 0.4717311 0.341844 0.4717311 0.341844 0.4495527 0.3833369 0.3833369 0.4495527 0.4495527 0.3833369 0.4197056 0.4197056 0.3833369 0.4495527 0.4717311 0.341844 0.3833369 0.4495527 0.2968217 0.4853885 0.02826887 0.341844 0.2968217 0.4853885 0.1166631 0.4495527 0.02826887 0.341844 0.08029437 0.08029437 0.25 0.00999999 0.4717311 0.341844 0.4197056 0.08029437 0.4853885 0.2031783 0.25 0.00999999 0.4197056 0.08029437 0.4717311 0.341844 0.2968217 0.4853885 0.02826887 0.341844 0.4717311 0.341844 0.09375 0.5 0.09375 1 0.0625 1 0.0625 0.5 0.0625 1 0.03125 1 0.7031784 0.4853885 0.75 0.49 0.7968217 0.4853885 0.7968217 0.4853885 0.841844 0.4717311 0.8833369 0.4495527 0.8833369 0.4495527 0.9197056 0.4197056 0.9495527 0.3833369 0.9495527 0.3833369 0.9717311 0.341844 0.8833369 0.4495527 0.9717311 0.341844 0.9853885 0.2968217 0.9853885 0.2031783 0.8833369 0.4495527 0.9717311 0.341844 0.9853885 0.2031783 0.9853885 0.2968217 0.99 0.25 0.9853885 0.2031783 0.9853885 0.2031783 0.9717311 0.1581559 0.9495527 0.1166631 0.9495527 0.1166631 0.9197056 0.08029437 0.7968217 0.01461154 0.9197056 0.08029437 0.8833369 0.05044728 0.841844 0.02826887 0.7968217 0.01461154 0.9197056 0.08029437 0.841844 0.02826887 0.7968217 0.01461154 0.75 0.00999999 0.7031784 0.01461154 0.7031784 0.01461154 0.658156 0.02826887 0.6166632 0.05044728 0.6166632 0.05044728 0.5802944 0.08029437 0.5504473 0.1166631 0.5504473 0.1166631 0.5282689 0.1581559 0.5146116 0.2031783 0.5146116 0.2031783 0.51 0.25 0.5282689 0.341844 0.51 0.25 0.5146116 0.2968217 0.5282689 0.341844 0.5282689 0.341844 0.5504473 0.3833369 0.6166632 0.4495527 0.5146116 0.2031783 0.5282689 0.341844 0.5504473 0.1166631 0.5504473 0.3833369 0.5802944 0.4197056 0.6166632 0.4495527 0.6166632 0.4495527 0.658156 0.4717311 0.7031784 0.4853885 0.7031784 0.4853885 0.7968217 0.4853885 0.8833369 0.4495527 0.9853885 0.2031783 0.9495527 0.1166631 0.7968217 0.01461154 0.7968217 0.01461154 0.7031784 0.01461154 0.5504473 0.1166631 0.7031784 0.01461154 0.6166632 0.05044728 0.5504473 0.1166631 0.7968217 0.01461154 0.5504473 0.1166631 0.7031784 0.4853885 0.7031784 0.4853885 0.5282689 0.341844 0.6166632 0.4495527 0.7031784 0.4853885 0.8833369 0.4495527 0.7968217 0.01461154 0.7968217 0.01461154 0.8833369 0.4495527 0.9853885 0.2031783 0.03125 1 0 1 0 0.5</float_array>
          <technique_common>
            <accessor source="#logboom_017-mesh-map-0-array" count="372" stride="2">
              <param name="S" type="float" />
              <param name="T" type="float" />
            </accessor>
          </technique_common>
        </source>
        <vertices id="logboom_017-mesh-vertices">
          <input semantic="POSITION" source="#logboom_017-mesh-positions" />
        </vertices>
        <triangles material="cinza_003-material" count="124">
          <input semantic="VERTEX" source="#logboom_017-mesh-vertices" offset="0" />
          <input semantic="NORMAL" source="#logboom_017-mesh-normals" offset="1" />
          <input semantic="TEXCOORD" source="#logboom_017-mesh-map-0" offset="2" set="0" />
          <p>1 0 0 2 1 1 0 2 2 2 1 3 5 3 4 4 4 5 5 3 6 6 5 7 4 4 8 7 6 9 8 7 10 6 5 11 8 7 12 11 8 13 10 9 14 11 8 15 12 10 16 10 9 17 13 11 18 14 12 19 12 10 20 14 12 21 17 13 22 16 14 23 16 14 24 19 15 25 18 16 26 18 16 27 21 17 28 20 18 29 21 17 30 22 19 31 20 18 32 22 19 33 25 20 34 24 21 35 25 20 36 26 22 37 24 21 38 27 23 39 28 24 40 26 22 41 28 24 42 31 25 43 30 26 44 31 25 45 32 27 46 30 26 47 32 27 48 35 28 49 34 29 50 35 28 51 36 30 52 34 29 53 36 30 54 39 31 55 38 32 56 38 32 57 41 33 58 40 34 59 41 33 60 42 35 61 40 34 62 43 36 63 44 37 64 42 35 65 44 37 66 47 38 67 46 39 68 47 38 69 48 40 70 46 39 71 48 40 72 51 41 73 50 42 74 51 41 75 52 43 76 50 42 77 52 43 78 55 44 79 54 45 80 55 44 81 56 46 82 54 45 83 57 47 84 58 48 85 56 46 86 33 49 87 13 11 88 53 50 89 58 48 90 61 51 91 60 52 92 60 52 93 63 53 94 62 54 95 62 54 96 42 35 97 52 43 98 63 53 99 0 2 100 62 54 101 1 0 102 3 55 103 2 1 104 2 1 105 3 55 106 5 3 107 5 3 108 7 6 109 6 5 110 7 6 111 9 56 112 8 7 113 8 7 114 9 56 115 11 8 116 11 8 117 13 11 118 12 10 119 13 11 120 15 57 121 14 12 122 14 12 123 15 57 124 17 13 125 16 14 126 17 13 127 19 15 128 18 16 129 19 15 130 21 17 131 21 17 132 23 58 133 22 19 134 22 19 135 23 58 136 25 20 137 25 20 138 27 23 139 26 22 140 27 23 141 29 59 142 28 24 143 28 24 144 29 59 145 31 25 146 31 25 147 33 49 148 32 27 149 32 27 150 33 49 151 35 28 152 35 28 153 37 60 154 36 30 155 36 30 156 37 60 157 39 31 158 38 32 159 39 31 160 41 33 161 41 33 162 43 36 163 42 35 164 43 36 165 45 61 166 44 37 167 44 37 168 45 61 169 47 38 170 47 38 171 49 62 172 48 40 173 48 40 174 49 62 175 51 41 176 51 41 177 53 50 178 52 43 179 52 43 180 53 50 181 55 44 182 55 44 183 57 47 184 56 46 185 57 47 186 59 63 187 58 48 188 5 3 189 3 55 190 7 6 191 3 55 192 1 0 193 63 53 194 59 63 195 63 53 196 61 51 197 3 55 198 63 53 199 59 63 200 59 63 201 57 47 202 53 50 203 57 47 204 55 44 205 53 50 206 53 50 207 51 41 208 49 62 209 49 62 210 47 38 211 53 50 212 47 38 213 45 61 214 43 36 215 53 50 216 47 38 217 43 36 218 43 36 219 41 33 220 53 50 221 41 33 222 39 31 223 33 49 224 39 31 225 37 60 226 35 28 227 33 49 228 39 31 229 35 28 230 33 49 231 31 25 232 25 20 233 31 25 234 29 59 235 25 20 236 29 59 237 27 23 238 25 20 239 25 20 240 23 58 241 21 17 242 21 17 243 19 15 244 25 20 245 19 15 246 17 13 247 13 11 248 17 13 249 15 57 250 13 11 251 13 11 252 11 8 253 7 6 254 11 8 255 9 56 256 7 6 257 13 11 258 7 6 259 3 55 260 53 50 261 3 55 262 59 63 263 53 50 264 41 33 265 33 49 266 13 11 267 25 20 268 19 15 269 33 49 270 25 20 271 13 11 272 3 55 273 53 50 274 13 11 275 58 48 276 59 63 277 61 51 278 60 52 279 61 51 280 63 53 281 62 54 282 0 2 283 2 1 284 2 1 285 4 4 286 6 5 287 6 5 288 8 7 289 10 9 290 10 9 291 12 10 292 6 5 293 12 10 294 14 12 295 18 16 296 6 5 297 12 10 298 18 16 299 14 12 300 16 14 301 18 16 302 18 16 303 20 18 304 22 19 305 22 19 306 24 21 307 30 26 308 24 21 309 26 22 310 28 24 311 30 26 312 24 21 313 28 24 314 30 26 315 32 27 316 34 29 317 34 29 318 36 30 319 38 32 320 38 32 321 40 34 322 42 35 323 42 35 324 44 37 325 46 39 326 46 39 327 48 40 328 52 43 329 48 40 330 50 42 331 52 43 332 52 43 333 54 45 334 58 48 335 46 39 336 52 43 337 42 35 338 54 45 339 56 46 340 58 48 341 58 48 342 60 52 343 62 54 344 62 54 345 2 1 346 6 5 347 18 16 348 22 19 349 30 26 350 30 26 351 34 29 352 42 35 353 34 29 354 38 32 355 42 35 356 30 26 357 42 35 358 62 54 359 62 54 360 52 43 361 58 48 362 62 54 363 6 5 364 30 26 365 30 26 366 6 5 367 18 16 368 63 53 369 1 0 370 0 2 371</p>
        </triangles>
      </mesh>
    </geometry>
  </library_geometries>
  <library_visual_scenes>
    <visual_scene id="Scene" name="Scene">
      <node id="maincolumn" name="maincolumn" type="NODE">
        <matrix sid="transform">1 0 0 0 0 1 0 0 0 0 1 0 0 0 0 1</matrix>
        <instance_geometry url="#logboom_017-mesh" name="maincolumn">
          <bind_material>
            <technique_common>
              <instance_material symbol="preto_003-material" target="#preto_003-material">
                <bind_vertex_input semantic="UVMap" input_semantic="TEXCOORD" input_set="0" />
              </instance_material>
              <instance_material symbol="cinza_003-material" target="#cinza_003-material">
                <bind_vertex_input semantic="UVMap" input_semantic="TEXCOORD" input_set="0" />
              </instance_material>
              <instance_material symbol="vermelho_003-material" target="#vermelho_003-material">
                <bind_vertex_input semantic="UVMap" input_semantic="TEXCOORD" input_set="0" />
              </instance_material>
              <instance_material symbol="branco_003-material" target="#branco_003-material">
                <bind_vertex_input semantic="UVMap" input_semantic="TEXCOORD" input_set="0" />
              </instance_material>
              <instance_material symbol="laranja_003-material" target="#laranja_003-material">
                <bind_vertex_input semantic="UVMap" input_semantic="TEXCOORD" input_set="0" />
              </instance_material>
            </technique_common>
          </bind_material>
        </instance_geometry>
      </node>
    </visual_scene>
  </library_visual_scenes>
  <scene>
    <instance_visual_scene url="#Scene" />
  </scene>
</COLLADA>