<?xml version='1.0' encoding='utf-8'?>
<COLLADA xmlns="http://www.collada.org/2005/11/COLLADASchema" version="1.4.1">
  <asset>
    <contributor>
      <author>Blender User</author>
      <authoring_tool>Blender 4.0.1 commit date:2023-11-16, commit time:16:40, hash:d0dd92834a08</authoring_tool>
    </contributor>
    <created>2025-11-13T15:33:27</created>
    <modified>2025-11-13T15:33:27</modified>
    <unit name="meter" meter="1" />
    <up_axis>Z_UP</up_axis>
  </asset>
  <library_effects>
    <effect id="Material_002-effect">
      <profile_COMMON>
        <technique sid="common">
          <phong><emission>
              <color sid="emission">0 0 0 1</color>
            <color>0.45 0.45 0.45 1.0</color></emission>
            <ambient><color>1.0 1.0 1.0 1.0</color></ambient><diffuse><texture texture="flat_fed200ff-sampler" texcoord="CHANNEL0" /></diffuse><specular><color>0.20 0.20 0.20 1.0</color></specular><shininess><float>30.0</float></shininess></phong></technique>
      <newparam sid="flat_fed200ff-surface"><surface type="2D"><init_from>flat_fed200ff</init_from></surface></newparam><newparam sid="flat_fed200ff-sampler"><sampler2D><source>flat_fed200ff-surface</source></sampler2D></newparam></profile_COMMON>
    </effect>
    <effect id="Material_001-effect">
      <profile_COMMON>
        <technique sid="common">
          <phong><emission>
              <color sid="emission">0 0 0 1</color>
            <color>0.45 0.45 0.45 1.0</color></emission>
            <ambient><color>1.0 1.0 1.0 1.0</color></ambient><diffuse><texture texture="flat_fed200ff-sampler" texcoord="CHANNEL0" /></diffuse><specular><color>0.20 0.20 0.20 1.0</color></specular><shininess><float>30.0</float></shininess></phong></technique>
      <newparam sid="flat_fed200ff-surface"><surface type="2D"><init_from>flat_fed200ff</init_from></surface></newparam><newparam sid="flat_fed200ff-sampler"><sampler2D><source>flat_fed200ff-surface</source></sampler2D></newparam></profile_COMMON>
    </effect>
  </library_effects>
  <library_images />
  <library_materials>
    <material id="Material_002-material" name="Material.002">
      <instance_effect url="#Material_002-effect" />
    </material>
    <material id="Material_001-material" name="Material.001">
      <instance_effect url="#Material_001-effect" />
    </material>
  </library_materials>
  <library_geometries>
    <geometry id="Circle_001-mesh" name="Circle.001">
      <mesh>
        <source id="Circle_001-mesh-positions">
          <float_array id="Circle_001-mesh-positions-array" count="576">0 1 -0.5 -0.1950912 0.9807129 -0.5 -0.3826828 0.9238281 -0.5 -0.5555725 0.831543 -0.5 -0.7071076 0.7070313 -0.5 -0.8314667 0.5556641 -0.5 -0.9238815 0.3825684 -0.5 -0.9807816 0.1950683 -0.5 -1 0 -0.5 -0.9807816 -0.1950683 -0.5 -0.9238815 -0.3825684 -0.5 -0.8314667 -0.5556641 -0.5 -0.7071076 -0.7070313 -0.5 -0.5555725 -0.831543 -0.5 -0.3826828 -0.9238281 -0.5 -0.1950912 -0.9807129 -0.5 0 -1 -0.5 0.1950912 -0.9807129 -0.5 0.3826828 -0.9238281 -0.5 0.5555725 -0.831543 -0.5 0.7071076 -0.7070313 -0.5 0.8314667 -0.5556641 -0.5 0.9238815 -0.3825684 -0.5 0.9807816 -0.1950683 -0.5 1 0 -0.5 0.9807816 0.1950683 -0.5 0.9238815 0.3825684 -0.5 0.8314667 0.5556641 -0.5 0.7071076 0.7070313 -0.5 0.5555725 0.831543 -0.5 0.3826828 0.9238281 -0.5 0.1950912 0.9807129 -0.5 0 1 -0.5 -0.1950912 0.9807129 -0.5 -0.3826828 0.9238281 -0.5 -0.5555725 0.831543 -0.5 -0.7071076 0.7070313 -0.5 -0.8314667 0.5556641 -0.5 -0.9238815 0.3825684 -0.5 -0.9807816 0.1950683 -0.5 -1 0 -0.5 -0.9807816 -0.1950683 -0.5 -0.9238815 -0.3825684 -0.5 -0.8314667 -0.5556641 -0.5 -0.7071076 -0.7070313 -0.5 -0.5555725 -0.831543 -0.5 -0.3826828 -0.9238281 -0.5 -0.1950912 -0.9807129 -0.5 0 -1 -0.5 0.1950912 -0.9807129 -0.5 0.3826828 -0.9238281 -0.5 0.5555725 -0.831543 -0.5 0.7071076 -0.7070313 -0.5 0.8314667 -0.5556641 -0.5 0.9238815 -0.3825684 -0.5 0.9807816 -0.1950683 -0.5 1 0 -0.5 0.9807816 0.1950683 -0.5 0.9238815 0.3825684 -0.5 0.8314667 0.5556641 -0.5 0.7071076 0.7070313 -0.5 0.5555725 0.831543 -0.5 0.3826828 0.9238281 -0.5 0.1950912 0.9807129 -0.5 0 1 -0.5 -0.1950912 0.9807129 -0.5 -0.3826828 0.9238281 -0.5 -0.5555725 0.831543 -0.5 -0.7071076 0.7070313 -0.5 -0.8314667 0.5556641 -0.5 -0.9238815 0.3825684 -0.5 -0.9807816 0.1950683 -0.5 -1 0 -0.5 -0.9807816 -0.1950683 -0.5 -0.9238815 -0.3825684 -0.5 -0.8314667 -0.5556641 -0.5 -0.7071076 -0.7070313 -0.5 -0.5555725 -0.831543 -0.5 -0.3826828 -0.9238281 -0.5 -0.1950912 -0.9807129 -0.5 0 -1 -0.5 0.1950912 -0.9807129 -0.5 0.3826828 -0.9238281 -0.5 0.5555725 -0.831543 -0.5 0.7071076 -0.7070313 -0.5 0.8314667 -0.5556641 -0.5 0.9238815 -0.3825684 -0.5 0.9807816 -0.1950683 -0.5 1 0 -0.5 0.9807816 0.1950683 -0.5 0.9238815 0.3825684 -0.5 0.8314667 0.5556641 -0.5 0.7071076 0.7070313 -0.5 0.5555725 0.831543 -0.5 0.3826828 0.9238281 -0.5 0.1950912 0.9807129 -0.5 -0.1950912 0.9807129 -0.5 0 1 -0.5 -0.3826828 0.9238281 -0.5 -0.5555725 0.831543 -0.5 -0.7071076 0.7070313 -0.5 -0.8314667 0.5556641 -0.5 -0.9238815 0.3825684 -0.5 -0.9807816 0.1950683 -0.5 -1 0 -0.5 -0.9807816 -0.1950683 -0.5 -0.9238815 -0.3825684 -0.5 -0.8314667 -0.5556641 -0.5 -0.7071076 -0.7070313 -0.5 -0.5555725 -0.831543 -0.5 -0.3826828 -0.9238281 -0.5 -0.1950912 -0.9807129 -0.5 0 -1 -0.5 0.1950912 -0.9807129 -0.5 0.3826828 -0.9238281 -0.5 0.5555725 -0.831543 -0.5 0.7071076 -0.7070313 -0.5 0.8314667 -0.5556641 -0.5 0.9238815 -0.3825684 -0.5 0.9807816 -0.1950683 -0.5 1 0 -0.5 0.9807816 0.1950683 -0.5 0.9238815 0.3825684 -0.5 0.8314667 0.5556641 -0.5 0.7071076 0.7070313 -0.5 0.5555725 0.831543 -0.5 0.3826828 0.9238281 -0.5 0.1950912 0.9807129 -0.5 -0.1950912 0.9807129 -0.5 0 1 -0.5 -0.3826828 0.9238281 -0.5 -0.5555725 0.831543 -0.5 -0.7071076 0.7070313 -0.5 -0.8314667 0.5556641 -0.5 -0.9238815 0.3825684 -0.5 -0.9807816 0.1950683 -0.5 -1 0 -0.5 -0.9807816 -0.1950683 -0.5 -0.9238815 -0.3825684 -0.5 -0.8314667 -0.5556641 -0.5 -0.7071076 -0.7070313 -0.5 -0.5555725 -0.831543 -0.5 -0.3826828 -0.9238281 -0.5 -0.1950912 -0.9807129 -0.5 0 -1 -0.5 0.1950912 -0.9807129 -0.5 0.3826828 -0.9238281 -0.5 0.5555725 -0.831543 -0.5 0.7071076 -0.7070313 -0.5 0.8314667 -0.5556641 -0.5 0.9238815 -0.3825684 -0.5 0.9807816 -0.1950683 -0.5 1 0 -0.5 0.9807816 0.1950683 -0.5 0.9238815 0.3825684 -0.5 0.8314667 0.5556641 -0.5 0.7071076 0.7070313 -0.5 0.5555725 0.831543 -0.5 0.3826828 0.9238281 -0.5 0.1950912 0.9807129 -0.5 -0.1950912 0.9807129 0.5 0 1 0.5 -0.3826828 0.9238281 0.5 -0.5555725 0.831543 0.5 -0.7071076 0.7070313 0.5 -0.8314667 0.5556641 0.5 -0.9238815 0.3825684 0.5 -0.9807816 0.1950683 0.5 -1 0 0.5 -0.9807816 -0.1950683 0.5 -0.9238815 -0.3825684 0.5 -0.8314667 -0.5556641 0.5 -0.7071076 -0.7070313 0.5 -0.5555725 -0.831543 0.5 -0.3826828 -0.9238281 0.5 -0.1950912 -0.9807129 0.5 0 -1 0.5 0.1950912 -0.9807129 0.5 0.3826828 -0.9238281 0.5 0.5555725 -0.831543 0.5 0.7071076 -0.7070313 0.5 0.8314667 -0.5556641 0.5 0.9238815 -0.3825684 0.5 0.9807816 -0.1950683 0.5 1 0 0.5 0.9807816 0.1950683 0.5 0.9238815 0.3825684 0.5 0.8314667 0.5556641 0.5 0.7071076 0.7070313 0.5 0.5555725 0.831543 0.5 0.3826828 0.9238281 0.5 0.1950912 0.9807129 0.5</float_array>
          <technique_common>
            <accessor source="#Circle_001-mesh-positions-array" count="192" stride="3">
              <param name="X" type="float" />
              <param name="Y" type="float" />
              <param name="Z" type="float" />
            </accessor>
          </technique_common>
        </source>
        <source id="Circle_001-mesh-normals">
          <float_array id="Circle_001-mesh-normals-array" count="102">0 0 1 0 0 -1 0.9569085 -0.29039 0 -0.9569085 -0.29039 0 0.9951818 -0.09804689 0 -0.8821473 -0.4709737 0 0.9951818 0.09804689 0 -0.7726717 -0.6348059 0 0.9569085 0.29039 0 -0.6348506 -0.772635 0 0.8821473 0.4709737 0 -0.4708954 -0.8821891 0 -0.09838235 0.9951487 0 0.7726717 0.6348059 0 -0.2901889 -0.9569694 0 -0.2901889 0.9569694 0 0.6348506 0.772635 0 -0.09838235 -0.9951487 0 -0.4708954 0.8821891 0 0.4708954 0.8821891 0 0.09838235 -0.9951487 0 -0.6348506 0.772635 0 0.2901889 0.9569694 0 0.2901889 -0.9569694 0 -0.7726717 0.6348059 0 0.09838235 0.9951487 0 0.4708954 -0.8821891 0 -0.8821473 0.4709737 0 0.6348506 -0.772635 0 -0.9569085 0.29039 0 0.7726717 -0.6348059 0 -0.9951818 0.09804689 0 0.8821473 -0.4709737 0 -0.9951818 -0.09804689 0</float_array>
          <technique_common>
            <accessor source="#Circle_001-mesh-normals-array" count="34" stride="3">
              <param name="X" type="float" />
              <param name="Y" type="float" />
              <param name="Z" type="float" />
            </accessor>
          </technique_common>
        </source>
        <source id="Circle_001-mesh-map-0">
          <float_array id="Circle_001-mesh-map-0-array" count="2280">0 0 0 0 0 0 0 0 0 0 0 0 0 0 0 0 0 0 0 0 0 0 0 0 0 0 0 0 0 0 0 0 0 0 0 0 0 0 0 0 0 0 0 0 0 0 0 0 0 0 0 0 0 0 0 0 0 0 0 0 0 0 0 0 0 0 0 0 0 0 0 0 0 0 0 0 0 0 0 0 0 0 0 0 0 0 0 0 0 0 0 0 0 0 0 0 0 0 0 0 0 0 0 0 0 0 0 0 0 0 0 0 0 0 0 0 0 0 0 0 0 0 0 0 0 0 0 0 0 0 0 0 0 0 0 0 0 0 0 0 0 0 0 0 0 0 0 0 0 0 0 0 0 0 0 0 0 0 0 0 0 0 0 0 0 0 0 0 0 0 0 0 0 0 0 0 0 0 0 0 0 0 0 0 0 0 0 0 0 0 0 0 0 0 0 0 0 0 0 0 0 0 0 0 0 0 0 0 0 0 0 0 0 0 0 0 0 0 0 0 0 0 0 0 0 0 0 0 0 0 0 0 0 0 0 0 0 0 0 0 0 0 0 0 0 0 0 0 0 0 0 0 0 0 0 0 0 0 0 0 0 0 0 0 0 0 0 0 0 0 0 0 0 0 0 0 0 0 0 0 0 0 0 0 0 0 0 0 0 0 0 0 0 0 0 0 0 0 0 0 0 0 0 0 0 0 0 0 0 0 0 0 0 0 0 0 0 0 0 0 0 0 0 0 0 0 0 0 0 0 0 0 0 0 0 0 0 0 0 0 0 0 0 0 0 0 0 0 0 0 0 0 0 0 0 0 0 0 0 0 0 0 0 0 0 0 0 0 0 0 0 0 0 0 0 0 0 0 0 0 0 0 0 0 0 0 0 0 0 0 0 0 0 0 0 0 0 0 0 0 0 0 0 0 0 0 0 0 0 0 0 0 0 0 0 0 0 0 0 0 0 0 0 0 0 0 0 0 0 0 0 0 0 0 0 0 0 0 0 0 0 0 0 0 0 0 0 0 0 0 0 0 0 0 0 0 0 0 0 0 0 0 0 0 0 0 0 0 0 0 0 0 0 0 0 0 0 0 0 0 0 0 0 0 0 0 0 0 0 0 0 0 0 0 0 0 0 0 0 0 0 0 0 0 0 0 0 0 0 0 0 0 0 0 0 0 0 0 0 0 0 0 0 0 0 0 0 0 0 0 0 0 0 0 0 0 0 0 0 0 0 0 0 0 0 0 0 0 0 0 0 0 0 0 0 0 0 0 0 0 0 0 0 0 0 0 0 0 0 0 0 0 0 0 0 0 0 0 0 0 0 0 0 0 0 0 0 0 0 0 0 0 0 0 0 0 0 0 0 0 0 0 0 0 0 0 0 0 0 0 0 0 0 0 0 0 0 0 0 0 0 0 0 0 0 0 0 0 0 0 0 0 0 0 0 0 0 0 0 0 0 0 0 0 0 0 0 0 0 0 0 0 0 0 0 0 0 0 0 0 0 0 0 0 0 0 0 0 0 0 0 0 0 0 0 0 0 0 0 0 0 0 0 0 0 0 0 0 0 0 0 0 0 0 0 0 0 0 0 0 0 0 0 0 0 0 0 0 0 0 0 0 0 0 0 0 0 0 0 0 0 0 0 0 0 0 0 0 0 0 0 0 0 0 0 0 0 0 0 0 0 0 0 0 0 0 0 0 0 0 0 0 0 0 0 0 0 0 0 0 0 0 0 0 0 0 0 0 0 0 0 0 0 0 0 0 0 0 0 0 0 0 0 0 0 0 0 0 0 0 0 0 0 0 0 0 0 0 0 0 0 0 0 0 0 0 0 0 0 0 0 0 0 0 0 0 0 0 0 0 0 0 0 0 0 0 0 0 0 0 0 0 0 0 0 0 0 0 0 0 0 0 0 0 0 0 0 0 0 0 0 0 0 0 0 0 0 0 0 0 0 0 0 0 0 0 0 0 0 0 0 0 0 0 0 0 0 0 0 0 0 0 0 0 0 0 0 0 0 0 0 0 0 0 0 0 0 0 0 0 0 0 0 0 0 0 0 0 0 0 0 0 0 0 0 0 0 0 0 0 0 0 0 0 0 0 0 0 0 0 0 0 0 0 0 0 0 0 0 0 0 0 0 0 0 0 0 0 0 0 0 0 0 0 0 0 0 0 0 0 0 0 0 0 0 0 0 0 0 0 0 0 0 0 0 0 0 0 0 0 0 0 0 0 0 0 0 0 0 0 0 0 0 0 0 0 0 0 0 0 0 0 0 0 0 0 0 0 0 0 0 0 0 0 0 0 0 0 0 0 0 0 0 0 0 0 0 0 0 0 0 0 0 0 0 0 0 0 0 0 0 0 0 0 0 0 0 0 0 0 0 0 0 0 0 0 0 0 0 0 0 0 0 0 0 0 0 0 0 0 0 0 0 0 0 0 0 0 0 0 0 0 0 0 0 0 0 0 0 0 0 0 0 0 0 0 0 0 0 0 0 0 0 0 0 0 0 0 0 0 0 0 0 0 0 0 0 0 0 0 0 0 0 0 0 0 0 0 0 0 0 0 0 0 0 0 0 0 0 0 0 0 0 0 0 0 0 0 0 0 0 0 0 0 0 0 0 0 0 0 0 0 0 0 0 0 0 0 0 0 0 0 0 0 0 0 0 0 0 0 0 0 0 0 0 0 0 0 0 0 0 0 0 0 0 0 0 0 0 0 0 0 0 0 0 0 0 0 0 0 0 0 0 0 0 0 0 0 0 0 0 0 0 0 0 0 0 0 0 0 0 0 0 0 0 0 0 0 0 0 0 0 0 0 0 0 0 0 0 0 0 0 0 0 0 0 0 0 0 0 0 0 0 0 0 0 0 0 0 0 0 0 0 0 0 0 0 0 0 0 0 0 0 0 0 0 0 0 0 0 0 0 0 0 0 0 0 0 0 0 0 0 0 0 0 0 0 0 0 0 0 0 0 0 0 0 0 0 0 0 0 0 0 0 0 0 0 0 0 0 0 0 0 0 0 0 0 0 0 0 0 0 0 0 0 0 0 0 0 0 0 0 0 0 0 0 0 0 0 0 0 0 0 0 0 0 0 0 0 0 0 0 0 0 0 0 0 0 0 0 0 0 0 0 0 0 0 0 0 0 0 0 0 0 0 0 0 0 0 0 0 0 0 0 0 0 0 0 0 0 0 0 0 0 0 0 0 0 0 0 0 0 0 0 0 0 0 0 0 0 0 0 0 0 0 0 0 0 0 0 0 0 0 0 0 0 0 0 0 0 0 0 0 0 0 0 0 0 0 0 0 0 0 0 0 0 0 0 0 0 0 0 0 0 0 0 0 0 0 0 0 0 0 0 0 0 0 0 0 0 0 0 0 0 0 0 0 0 0 0 0 0 0 0 0 0 0 0 0 0 0 0 0 0 0 0 0 0 0 0 0 0 0 0 0 0 0 0 0 0 0 0 0 0 0 0 0 0 0 0 0 0 0 0 0 0 0 0 0 0 0 0 0 0 0 0 0 0 0 0 0 0 0 0 0 0 0 0 0 0 0 0 0 0 0 0 0 0 0 0 0 0 0 0 0 0 0 0 0 0 0 0 0 0 0 0 0 0 0 0 0 0 0 0 0 0 0 0 0 0 0 0 0 0 0 0 0 0 0 0 0 0 0 0 0 0 0 0 0 0 0 0 0 0 0 0 0 0 0 0 0 0 0 0 0 0 0 0 0 0 0 0 0 0 0 0 0 0 0 0 0 0 0 0 0 0 0 0 0 0 0 0 0 0 0 0 0 0 0 0 0 0 0 0 0 0 0 0 0 0 0 0 0 0 0 0 0 0 0 0 0 0 0 0 0 0 0 0 0 0 0 0 0 0 0 0 0 0 0 0 0 0 0 0 0 0 0 0 0 0 0 0 0 0 0 0 0 0 0 0 0 0 0 0 0 0 0 0 0 0 0 0 0 0 0 0 0 0 0 0 0 0 0 0 0 0 0 0 0 0 0 0 0 0 0 0 0 0 0 0 0 0 0 0 0 0 0 0 0 0 0 0 0 0 0 0 0 0 0 0 0 0 0 0 0 0 0 0 0 0 0 0 0 0 0 0 0 0 0 0 0 0 0 0 0 0 0 0 0 0 0 0 0 0 0 0 0 0 0 0 0 0 0 0 0 0 0 0 0 0 0 0 0 0 0 0 0 0 0 0 0 0 0 0 0 0 0 0 0 0 0 0 0 0 0 0 0 0 0 0 0 0 0 0 0 0 0 0 0 0 0 0 0 0 0 0 0 0 0 0 0 0 0 0 0 0 0 0 0 0 0 0 0 0 0 0 0 0 0 0 0 0 0 0 0 0 0 0 0 0 0 0 0 0 0 0 0 0 0 0 0 0 0 0 0 0 0 0 0 0 0 0 0 0 0 0 0 0 0 0 0 0 0 0 0 0 0 0 0 0 0 0 0 0 0 0 0 0 0 0 0 0 0 0 0 0 0 0 0 0 0 0 0 0 0 0 0 0 0 0 0 0 0 0 0 0 0 0 0 0 0 0 0 0 0 0 0 0 0 0 0 0 0 0 0 0 0 0 0 0 0 0 0 0 0 0 0 0 0 0 0 0 0 0 0 0 0 0 0 0 0 0 0 0 0 0 0 0 0 0 0 0 0 0 0 0 0 0 0 0 0 0 0 0 0 0 0 0 0 0 0 0 0 0 0 0 0 0 0 0 0 0 0 0 0 0 0 0 0 0 0 0 0 0 0 0 0 0 0 0 0 0 0 0 0 0 0 0 0 0 0 0 0 0 0 0 0 0 0 0 0 0 0 0 0 0 0 0 0 0 0 0 0 0 0 0 0 0 0 0 0 0 0 0 0 0 0 0 0 0 0 0 0 0 0 0 0 0 0 0 0 0 0 0 0 0 0 0 0 0 0 0 0 0 0 0 0 0 0 0 0 0 0 0 0 0 0 0 0 0 0 0 0 0 0 0 0 0 0 0 0 0 0 0 0 0 0 0 0 0 0 0 0 0 0 0 0 0 0 0 0 0 0 0 0 0 0 0 0 0 0 0 0 0 0 0 0 0 0 0 0 0 0 0 0 0 0 0 0 0 0 0 0 0 0 0 0 0 0 0 0 0 0 0 0 0 0 0 0 0</float_array>
          <technique_common>
            <accessor source="#Circle_001-mesh-map-0-array" count="1140" stride="2">
              <param name="S" type="float" />
              <param name="T" type="float" />
            </accessor>
          </technique_common>
        </source>
        <vertices id="Circle_001-mesh-vertices">
          <input semantic="POSITION" source="#Circle_001-mesh-positions" />
        </vertices>
        <triangles material="Material_001-material" count="380">
          <input semantic="VERTEX" source="#Circle_001-mesh-vertices" offset="0" />
          <input semantic="NORMAL" source="#Circle_001-mesh-normals" offset="1" />
          <input semantic="TEXCOORD" source="#Circle_001-mesh-map-0" offset="2" set="0" />
          <p>26 0 0 59 0 1 27 0 2 13 0 3 46 0 4 14 0 5 0 0 6 33 0 7 1 0 8 27 0 9 60 0 10 28 0 11 14 0 12 47 0 13 15 0 14 1 0 15 34 0 16 2 0 17 28 0 18 61 0 19 29 0 20 15 0 21 48 0 22 16 0 23 2 0 24 35 0 25 3 0 26 29 0 27 62 0 28 30 0 29 16 0 30 49 0 31 17 0 32 3 0 33 36 0 34 4 0 35 30 0 36 63 0 37 31 0 38 17 0 39 50 0 40 18 0 41 4 0 42 37 0 43 5 0 44 31 0 45 32 0 46 0 0 47 18 0 48 51 0 49 19 0 50 5 0 51 38 0 52 6 0 53 19 0 54 52 0 55 20 0 56 6 0 57 39 0 58 7 0 59 20 0 60 53 0 61 21 0 62 7 0 63 40 0 64 8 0 65 21 0 66 54 0 67 22 0 68 8 0 69 41 0 70 9 0 71 22 0 72 55 0 73 23 0 74 9 0 75 42 0 76 10 0 77 23 0 78 56 0 79 24 0 80 10 0 81 43 0 82 11 0 83 24 0 84 57 0 85 25 0 86 11 0 87 44 0 88 12 0 89 25 0 90 58 0 91 26 0 92 12 0 93 45 0 94 13 0 95 53 0 96 86 0 97 54 0 98 40 0 99 73 0 100 41 0 101 54 0 102 87 0 103 55 0 104 41 0 105 74 0 106 42 0 107 55 0 108 88 0 109 56 0 110 42 0 111 75 0 112 43 0 113 56 0 114 89 0 115 57 0 116 43 0 117 76 0 118 44 0 119 57 0 120 90 0 121 58 0 122 44 0 123 77 0 124 45 0 125 58 0 126 91 0 127 59 0 128 45 0 129 78 0 130 46 0 131 32 0 132 65 0 133 33 0 134 59 0 135 92 0 136 60 0 137 46 0 138 79 0 139 47 0 140 33 0 141 66 0 142 34 0 143 60 0 144 93 0 145 61 0 146 47 0 147 80 0 148 48 0 149 34 0 150 67 0 151 35 0 152 61 0 153 94 0 154 62 0 155 48 0 156 81 0 157 49 0 158 35 0 159 68 0 160 36 0 161 62 0 162 95 0 163 63 0 164 49 0 165 82 0 166 50 0 167 36 0 168 69 0 169 37 0 170 63 0 171 64 0 172 32 0 173 50 0 174 83 0 175 51 0 176 37 0 177 70 0 178 38 0 179 51 0 180 84 0 181 52 0 182 38 0 183 71 0 184 39 0 185 52 0 186 85 0 187 53 0 188 39 0 189 72 0 190 40 0 191 18 0 192 113 0 193 17 0 194 95 1 195 84 1 196 81 1 197 97 0 198 159 0 199 127 0 200 5 0 201 100 0 202 4 0 203 0 0 204 127 0 205 31 0 206 19 0 207 114 0 208 18 0 209 6 0 210 101 0 211 5 0 212 20 0 213 115 0 214 19 0 215 7 0 216 102 0 217 6 0 218 21 0 219 116 0 220 20 0 221 8 0 222 103 0 223 7 0 224 22 0 225 117 0 226 21 0 227 9 0 228 104 0 229 8 0 230 23 0 231 118 0 232 22 0 233 10 0 234 105 0 235 9 0 236 24 0 237 119 0 238 23 0 239 11 0 240 106 0 241 10 0 242 25 0 243 120 0 244 24 0 245 12 0 246 107 0 247 11 0 248 26 0 249 121 0 250 25 0 251 13 0 252 108 0 253 12 0 254 27 0 255 122 0 256 26 0 257 14 0 258 109 0 259 13 0 260 1 0 261 97 0 262 0 0 263 28 0 264 123 0 265 27 0 266 15 0 267 110 0 268 14 0 269 2 0 270 96 0 271 1 0 272 29 0 273 124 0 274 28 0 275 16 0 276 111 0 277 15 0 278 3 0 279 98 0 280 2 0 281 30 0 282 125 0 283 29 0 284 17 0 285 112 0 286 16 0 287 4 0 288 99 0 289 3 0 290 31 0 291 126 0 292 30 0 293 151 2 294 182 2 295 150 2 296 115 0 297 146 0 298 114 0 299 102 0 300 133 0 301 101 0 302 116 0 303 147 0 304 115 0 305 103 0 306 134 0 307 102 0 308 117 0 309 148 0 310 116 0 311 104 0 312 135 0 313 103 0 314 118 0 315 149 0 316 117 0 317 105 0 318 136 0 319 104 0 320 119 0 321 150 0 322 118 0 323 106 0 324 137 0 325 105 0 326 120 0 327 151 0 328 119 0 329 107 0 330 138 0 331 106 0 332 121 0 333 152 0 334 120 0 335 108 0 336 139 0 337 107 0 338 122 0 339 153 0 340 121 0 341 109 0 342 140 0 343 108 0 344 123 0 345 154 0 346 122 0 347 110 0 348 141 0 349 109 0 350 96 0 351 129 0 352 97 0 353 124 0 354 155 0 355 123 0 356 111 0 357 142 0 358 110 0 359 98 0 360 128 0 361 96 0 362 125 0 363 156 0 364 124 0 365 112 0 366 143 0 367 111 0 368 99 0 369 130 0 370 98 0 371 126 0 372 157 0 373 125 0 374 113 0 375 144 0 376 112 0 377 100 0 378 131 0 379 99 0 380 127 0 381 158 0 382 126 0 383 114 0 384 145 0 385 113 0 386 101 0 387 132 0 388 100 0 389 188 0 390 182 0 391 186 0 392 138 3 393 169 3 394 137 3 395 152 4 396 183 4 397 151 4 398 139 5 399 170 5 400 138 5 401 153 6 402 184 6 403 152 6 404 140 7 405 171 7 406 139 7 407 154 8 408 185 8 409 153 8 410 141 9 411 172 9 412 140 9 413 155 10 414 186 10 415 154 10 416 142 11 417 173 11 418 141 11 419 128 12 420 161 12 421 129 12 422 156 13 423 187 13 424 155 13 425 143 14 426 174 14 427 142 14 428 130 15 429 160 15 430 128 15 431 157 16 432 188 16 433 156 16 434 144 17 435 175 17 436 143 17 437 131 18 438 162 18 439 130 18 440 158 19 441 189 19 442 157 19 443 145 20 444 176 20 445 144 20 446 132 21 447 163 21 448 131 21 449 159 22 450 190 22 451 158 22 452 146 23 453 177 23 454 145 23 455 133 24 456 164 24 457 132 24 458 129 25 459 191 25 460 159 25 461 147 26 462 178 26 463 146 26 464 134 27 465 165 27 466 133 27 467 148 28 468 179 28 469 147 28 470 135 29 471 166 29 472 134 29 473 149 30 474 180 30 475 148 30 476 136 31 477 167 31 478 135 31 479 150 32 480 181 32 481 149 32 482 137 33 483 168 33 484 136 33 485 26 0 486 58 0 487 59 0 488 13 0 489 45 0 490 46 0 491 0 0 492 32 0 493 33 0 494 27 0 495 59 0 496 60 0 497 14 0 498 46 0 499 47 0 500 1 0 501 33 0 502 34 0 503 28 0 504 60 0 505 61 0 506 15 0 507 47 0 508 48 0 509 2 0 510 34 0 511 35 0 512 29 0 513 61 0 514 62 0 515 16 0 516 48 0 517 49 0 518 3 0 519 35 0 520 36 0 521 30 0 522 62 0 523 63 0 524 17 0 525 49 0 526 50 0 527 4 0 528 36 0 529 37 0 530 31 0 531 63 0 532 32 0 533 18 0 534 50 0 535 51 0 536 5 0 537 37 0 538 38 0 539 19 0 540 51 0 541 52 0 542 6 0 543 38 0 544 39 0 545 20 0 546 52 0 547 53 0 548 7 0 549 39 0 550 40 0 551 21 0 552 53 0 553 54 0 554 8 0 555 40 0 556 41 0 557 22 0 558 54 0 559 55 0 560 9 0 561 41 0 562 42 0 563 23 0 564 55 0 565 56 0 566 10 0 567 42 0 568 43 0 569 24 0 570 56 0 571 57 0 572 11 0 573 43 0 574 44 0 575 25 0 576 57 0 577 58 0 578 12 0 579 44 0 580 45 0 581 53 0 582 85 0 583 86 0 584 40 0 585 72 0 586 73 0 587 54 0 588 86 0 589 87 0 590 41 0 591 73 0 592 74 0 593 55 0 594 87 0 595 88 0 596 42 0 597 74 0 598 75 0 599 56 0 600 88 0 601 89 0 602 43 0 603 75 0 604 76 0 605 57 0 606 89 0 607 90 0 608 44 0 609 76 0 610 77 0 611 58 0 612 90 0 613 91 0 614 45 0 615 77 0 616 78 0 617 32 0 618 64 0 619 65 0 620 59 0 621 91 0 622 92 0 623 46 0 624 78 0 625 79 0 626 33 0 627 65 0 628 66 0 629 60 0 630 92 0 631 93 0 632 47 0 633 79 0 634 80 0 635 34 0 636 66 0 637 67 0 638 61 0 639 93 0 640 94 0 641 48 0 642 80 0 643 81 0 644 35 0 645 67 0 646 68 0 647 62 0 648 94 0 649 95 0 650 49 0 651 81 0 652 82 0 653 36 0 654 68 0 655 69 0 656 63 0 657 95 0 658 64 0 659 50 0 660 82 0 661 83 0 662 37 0 663 69 0 664 70 0 665 51 0 666 83 0 667 84 0 668 38 0 669 70 0 670 71 0 671 52 0 672 84 0 673 85 0 674 39 0 675 71 0 676 72 0 677 18 0 678 114 0 679 113 0 680 66 1 681 65 1 682 68 1 683 65 1 684 64 1 685 95 1 686 90 1 687 95 1 688 92 1 689 95 1 690 94 1 691 92 1 692 65 1 693 95 1 694 81 1 695 94 1 696 93 1 697 92 1 698 92 1 699 91 1 700 90 1 701 90 1 702 89 1 703 88 1 704 88 1 705 87 1 706 86 1 707 86 1 708 85 1 709 84 1 710 84 1 711 83 1 712 82 1 713 82 1 714 81 1 715 84 1 716 81 1 717 80 1 718 79 1 719 79 1 720 78 1 721 76 1 722 79 1 723 65 1 724 81 1 725 78 1 726 77 1 727 76 1 728 76 1 729 75 1 730 74 1 731 74 1 732 73 1 733 72 1 734 72 1 735 71 1 736 70 1 737 70 1 738 69 1 739 68 1 740 68 1 741 67 1 742 66 1 743 95 1 744 90 1 745 84 1 746 90 1 747 88 1 748 86 1 749 86 1 750 84 1 751 90 1 752 65 1 753 79 1 754 68 1 755 74 1 756 79 1 757 76 1 758 74 1 759 72 1 760 70 1 761 70 1 762 68 1 763 74 1 764 74 1 765 68 1 766 79 1 767 97 0 768 129 0 769 159 0 770 5 0 771 101 0 772 100 0 773 0 0 774 97 0 775 127 0 776 19 0 777 115 0 778 114 0 779 6 0 780 102 0 781 101 0 782 20 0 783 116 0 784 115 0 785 7 0 786 103 0 787 102 0 788 21 0 789 117 0 790 116 0 791 8 0 792 104 0 793 103 0 794 22 0 795 118 0 796 117 0 797 9 0 798 105 0 799 104 0 800 23 0 801 119 0 802 118 0 803 10 0 804 106 0 805 105 0 806 24 0 807 120 0 808 119 0 809 11 0 810 107 0 811 106 0 812 25 0 813 121 0 814 120 0 815 12 0 816 108 0 817 107 0 818 26 0 819 122 0 820 121 0 821 13 0 822 109 0 823 108 0 824 27 0 825 123 0 826 122 0 827 14 0 828 110 0 829 109 0 830 1 0 831 96 0 832 97 0 833 28 0 834 124 0 835 123 0 836 15 0 837 111 0 838 110 0 839 2 0 840 98 0 841 96 0 842 29 0 843 125 0 844 124 0 845 16 0 846 112 0 847 111 0 848 3 0 849 99 0 850 98 0 851 30 0 852 126 0 853 125 0 854 17 0 855 113 0 856 112 0 857 4 0 858 100 0 859 99 0 860 31 0 861 127 0 862 126 0 863 151 2 864 183 2 865 182 2 866 115 0 867 147 0 868 146 0 869 102 0 870 134 0 871 133 0 872 116 0 873 148 0 874 147 0 875 103 0 876 135 0 877 134 0 878 117 0 879 149 0 880 148 0 881 104 0 882 136 0 883 135 0 884 118 0 885 150 0 886 149 0 887 105 0 888 137 0 889 136 0 890 119 0 891 151 0 892 150 0 893 106 0 894 138 0 895 137 0 896 120 0 897 152 0 898 151 0 899 107 0 900 139 0 901 138 0 902 121 0 903 153 0 904 152 0 905 108 0 906 140 0 907 139 0 908 122 0 909 154 0 910 153 0 911 109 0 912 141 0 913 140 0 914 123 0 915 155 0 916 154 0 917 110 0 918 142 0 919 141 0 920 96 0 921 128 0 922 129 0 923 124 0 924 156 0 925 155 0 926 111 0 927 143 0 928 142 0 929 98 0 930 130 0 931 128 0 932 125 0 933 157 0 934 156 0 935 112 0 936 144 0 937 143 0 938 99 0 939 131 0 940 130 0 941 126 0 942 158 0 943 157 0 944 113 0 945 145 0 946 144 0 947 100 0 948 132 0 949 131 0 950 127 0 951 159 0 952 158 0 953 114 0 954 146 0 955 145 0 956 101 0 957 133 0 958 132 0 959 161 0 960 160 0 961 191 0 962 160 0 963 162 0 964 164 0 965 191 0 966 160 0 967 175 0 968 162 0 969 163 0 970 164 0 971 164 0 972 165 0 973 166 0 974 166 0 975 167 0 976 168 0 977 168 0 978 169 0 979 170 0 980 170 0 981 171 0 982 172 0 983 172 0 984 173 0 985 174 0 986 174 0 987 175 0 988 172 0 989 175 0 990 176 0 991 177 0 992 172 0 993 175 0 994 160 0 995 177 0 996 178 0 997 180 0 998 175 0 999 177 0 1000 191 0 1001 178 0 1002 179 0 1003 180 0 1004 180 0 1005 181 0 1006 182 0 1007 182 0 1008 183 0 1009 184 0 1010 184 0 1011 185 0 1012 186 0 1013 186 0 1014 187 0 1015 188 0 1016 188 0 1017 189 0 1018 190 0 1019 190 0 1020 191 0 1021 188 0 1022 188 0 1023 191 0 1024 177 0 1025 160 0 1026 164 0 1027 172 0 1028 164 0 1029 166 0 1030 172 0 1031 166 0 1032 168 0 1033 170 0 1034 172 0 1035 166 0 1036 170 0 1037 188 0 1038 177 0 1039 180 0 1040 180 0 1041 182 0 1042 188 0 1043 182 0 1044 184 0 1045 186 0 1046 138 3 1047 170 3 1048 169 3 1049 152 4 1050 184 4 1051 183 4 1052 139 5 1053 171 5 1054 170 5 1055 153 6 1056 185 6 1057 184 6 1058 140 7 1059 172 7 1060 171 7 1061 154 8 1062 186 8 1063 185 8 1064 141 9 1065 173 9 1066 172 9 1067 155 10 1068 187 10 1069 186 10 1070 142 11 1071 174 11 1072 173 11 1073 128 12 1074 160 12 1075 161 12 1076 156 13 1077 188 13 1078 187 13 1079 143 14 1080 175 14 1081 174 14 1082 130 15 1083 162 15 1084 160 15 1085 157 16 1086 189 16 1087 188 16 1088 144 17 1089 176 17 1090 175 17 1091 131 18 1092 163 18 1093 162 18 1094 158 19 1095 190 19 1096 189 19 1097 145 20 1098 177 20 1099 176 20 1100 132 21 1101 164 21 1102 163 21 1103 159 22 1104 191 22 1105 190 22 1106 146 23 1107 178 23 1108 177 23 1109 133 24 1110 165 24 1111 164 24 1112 129 25 1113 161 25 1114 191 25 1115 147 26 1116 179 26 1117 178 26 1118 134 27 1119 166 27 1120 165 27 1121 148 28 1122 180 28 1123 179 28 1124 135 29 1125 167 29 1126 166 29 1127 149 30 1128 181 30 1129 180 30 1130 136 31 1131 168 31 1132 167 31 1133 150 32 1134 182 32 1135 181 32 1136 137 33 1137 169 33 1138 168 33 1139</p>
        </triangles>
      </mesh>
    </geometry>
  </library_geometries>
  <library_visual_scenes>
    <visual_scene id="Scene" name="Scene">
      <node id="ref_circle1" name="ref_circle1" type="NODE">
        <matrix sid="transform">1 0 0 0 0 1 0 0 0 0 1 0 0 0 0 1</matrix>
        <instance_geometry url="#Circle_001-mesh" name="ref_circle1">
          <bind_material>
            <technique_common>
              <instance_material symbol="Material_002-material" target="#Material_002-material">
                <bind_vertex_input semantic="UVMap" input_semantic="TEXCOORD" input_set="0" />
              </instance_material>
              <instance_material symbol="Material_001-material" target="#Material_001-material">
                <bind_vertex_input semantic="UVMap" input_semantic="TEXCOORD" input_set="0" />
              </instance_material>
            </technique_common>
          </bind_material>
        </instance_geometry>
      </node>
    </visual_scene>
  </library_visual_scenes>
  <scene>
    <instance_visual_scene url="#Scene" />
  </scene>
<library_images><image id="flat_fed200ff" name="flat_fed200ff"><init_from>flat_fed200ff.png</init_from></image></library_images></COLLADA>